<svg xmlns="http://www.w3.org/2000/svg" width="50.238" height="54" viewBox="0 0 50.238 54"><defs><style>.a{fill:#87a4e5;}.b{fill:#dd0031;}.c{fill:#c3002f;}.d{fill:#fff;}</style></defs><g transform="translate(0 0)"><g transform="translate(0 0)"><path class="a" d="M25.12,0,50.238,8.952,46.4,42.184,25.12,54ZM3.84,42.184,0,8.95,25.118,0V54Z"/><path class="b" d="M5305.669,1004.182l25.118-8.95v54l-21.278-11.815Z" transform="translate(-5305.669 -995.232)"/><path class="c" d="M5330.787,1004.183l-25.118-8.95v54l21.276-11.815Z" transform="translate(-5280.549 -995.232)"/></g><path class="d" d="M5328.479,1000.186l-15.342,34.133,5.731-.1,3.078-7.7h13.762l3.375,7.8,5.478.1-16.082-34.232Zm.04,10.937,5.183,10.838h-9.749l4.566-10.838Z" transform="translate(-5303.298 -993.881)"/></g></svg>