<svg width="145" height="22" viewBox="0 0 145 22" fill="none" xmlns="http://www.w3.org/2000/svg">
<g clip-path="url(#clip0_490_21663)">
<path d="M0 0.767822H4.15959V6.28047H8.90445V0.767822H13.0434V15.2044H8.90445V9.51104H4.15959V15.2044H0V0.767822Z" fill="white"/>
<path d="M14.7969 12.2762C14.7969 9.79333 16.897 8.82356 20.4099 8.82356H21.4198V8.58142C21.4198 7.57268 21.1777 6.9053 20.0266 6.9053C19.0374 6.9053 18.6736 7.49117 18.5932 8.15737H15.2008C15.3627 5.61307 17.3613 4.36218 20.2487 4.36218C23.1562 4.36218 25.0136 5.55283 25.0136 8.35935V15.2044H21.5008V13.9724C20.9958 14.7402 20.0668 15.4465 18.3712 15.4465C16.473 15.4465 14.7969 14.5181 14.7969 12.2762ZM21.4198 11.5096V10.8635H20.4708C19.0173 10.8635 18.3712 11.1458 18.3712 12.014C18.3712 12.6199 18.7746 13.0038 19.6227 13.0038C20.6527 13.0038 21.4198 12.418 21.4198 11.5096V11.5096Z" fill="white"/>
<path d="M27.0703 4.64449H30.6848V6.34069C31.25 5.25044 32.4005 4.36218 34.1575 4.36218C36.1968 4.36218 37.6101 5.63433 37.6101 8.33927V15.2044H33.9957V9.06689C33.9957 7.87506 33.5315 7.28919 32.4814 7.28919C31.4112 7.28919 30.6848 7.9353 30.6848 9.28896V15.2044H27.0703V4.64449Z" fill="white"/>
<path d="M39.1416 10.0355V9.87362C39.1416 6.28042 41.1201 4.36216 43.6242 4.36216C45.2797 4.36216 46.2689 5.06851 46.8749 6.13868V0H50.4888V15.2044H46.8749V13.4881C46.3499 14.5783 45.1787 15.4465 43.5835 15.4465C41.1408 15.4465 39.1416 13.6901 39.1416 10.0355ZM46.9759 9.97521V9.81338C46.9759 8.03686 46.2288 7.08718 44.8958 7.08718C43.5433 7.08718 42.8163 7.9967 42.8163 9.83346V9.99529C42.8163 11.7718 43.6036 12.6802 44.8556 12.6802C46.168 12.6802 46.9759 11.7718 46.9759 9.97521H46.9759Z" fill="white"/>
<path d="M51.9199 11.8522H55.2515C55.3726 12.6199 55.7163 13.044 56.7457 13.044C57.634 13.044 58.0379 12.7003 58.0379 12.1758C58.0379 11.6714 57.5336 11.4281 56.0795 11.2273C53.2529 10.8635 52.0617 10.0355 52.0617 7.8349C52.0617 5.49259 54.1412 4.36218 56.5845 4.36218C59.189 4.36218 61.0063 5.25044 61.2484 7.77466H57.9777C57.836 7.06712 57.4527 6.72458 56.6246 6.72458C55.8374 6.72458 55.4334 7.06712 55.4334 7.55141C55.4334 8.05697 55.9177 8.25895 57.2099 8.4196C60.1381 8.78341 61.5514 9.55118 61.5514 11.812C61.5514 14.3161 59.694 15.4465 56.7658 15.4465C53.7573 15.4465 52.0008 14.1945 51.9199 11.8522Z" fill="white"/>
<path d="M62.5596 10.0556V9.89373C62.5596 6.50251 65.0832 4.36218 68.3539 4.36218C71.6052 4.36218 74.1087 6.44109 74.1087 9.79332V9.95515C74.1087 13.3877 71.5845 15.4465 68.3338 15.4465C65.0832 15.4465 62.5596 13.468 62.5596 10.0556ZM70.434 9.99531V9.83349C70.434 8.05696 69.7271 7.06712 68.3539 7.06712C67.0015 7.06712 66.2544 8.01681 66.2544 9.79333V9.95515C66.2544 11.7718 66.9613 12.7617 68.3539 12.7617C69.707 12.7617 70.434 11.7518 70.434 9.99531V9.99531Z" fill="white"/>
<path d="M75.6807 4.64449H79.2951V6.34069C79.8603 5.25044 81.0108 4.36218 82.7678 4.36218C84.8072 4.36218 86.2205 5.63433 86.2205 8.33927V15.2044H82.606V9.06689C82.606 7.87506 82.1418 7.28919 81.0917 7.28919C80.0216 7.28919 79.2951 7.9353 79.2951 9.28896V15.2044H75.6807V4.64449Z" fill="white"/>
<path d="M88.7608 11.8119V7.10721H87.4893V4.64442H88.7608V2.44385H92.3753V4.64442H94.4548V7.10721H92.3753V11.4694C92.3753 12.236 92.7592 12.5797 93.4454 12.5797C93.7973 12.5856 94.1469 12.5239 94.4754 12.3978V15.1441C93.8255 15.3332 93.1531 15.4349 92.4763 15.4465C90.0938 15.4465 88.7608 14.296 88.7608 11.8119Z" fill="white"/>
<path d="M95.5234 12.2762C95.5234 9.79333 97.6236 8.82356 101.136 8.82356H102.146V8.58142C102.146 7.57268 101.904 6.9053 100.753 6.9053C99.7639 6.9053 99.4001 7.49117 99.3198 8.15737H95.9274C96.0892 5.61307 98.0878 4.36218 100.975 4.36218C103.883 4.36218 105.74 5.55283 105.74 8.35935V15.2044H102.227V13.9724C101.722 14.7402 100.793 15.4465 99.0977 15.4465C97.1996 15.4465 95.5234 14.5181 95.5234 12.2762ZM102.146 11.5096V10.8635H101.197C99.7439 10.8635 99.0977 11.1458 99.0977 12.014C99.0977 12.6199 99.5011 13.0038 100.349 13.0038C101.379 13.0038 102.146 12.418 102.146 11.5096V11.5096Z" fill="white"/>
<path d="M111.411 13.5684V15.2044H107.797V0H111.411V6.219C111.745 5.64427 112.225 5.16906 112.804 4.84258C113.383 4.51611 114.038 4.35024 114.702 4.36216C117.166 4.36216 119.165 6.219 119.165 9.83346V9.99529C119.165 13.6298 117.166 15.4465 114.682 15.4465C113.107 15.4465 111.936 14.7 111.411 13.5684ZM115.489 9.99529V9.83347C115.489 7.97544 114.682 7.08718 113.41 7.08718C112.098 7.08718 111.31 8.03687 111.31 9.81339V9.97521C111.31 11.7718 112.098 12.6802 113.41 12.6802C114.763 12.6802 115.489 11.7316 115.489 9.99529V9.99529Z" fill="white"/>
<path d="M120.878 0H124.472V15.2044H120.878V0Z" fill="white"/>
<path d="M126.147 10.0556V9.89373C126.147 6.50251 128.671 4.36218 131.861 4.36218C134.749 4.36218 137.232 6.01704 137.232 9.81341V10.7619H129.802C129.903 12.1557 130.71 12.9637 132.003 12.9637C133.194 12.9637 133.699 12.4179 133.84 11.7116H137.232C136.909 14.0941 135.072 15.4465 131.882 15.4465C128.57 15.4465 126.147 13.5082 126.147 10.0556ZM133.719 8.72316C133.658 7.45101 133.033 6.74466 131.861 6.74466C130.771 6.74466 130.024 7.45101 129.842 8.72316H133.719Z" fill="white"/>
<path d="M138.837 15.9053H144.932V22H138.837V15.9053Z" fill="#2856EA"/>
</g>
<defs>
<clipPath id="clip0_490_21663">
<rect width="144.932" height="22" fill="white"/>
</clipPath>
</defs>
</svg>
