<svg width="16" height="16" viewBox="0 0 16 16" fill="none" xmlns="http://www.w3.org/2000/svg">
<path d="M6.66602 10.6663L9.33268 13.333M6.66602 13.333L9.33268 10.6663M13.3327 3.99967V6.66634C13.3327 6.84315 13.2624 7.01272 13.1374 7.13775C13.0124 7.26277 12.8428 7.33301 12.666 7.33301H3.33268C3.15587 7.33301 2.9863 7.26277 2.86128 7.13775C2.73625 7.01272 2.66602 6.84315 2.66602 6.66634V3.99967C2.66602 3.82286 2.73625 3.65329 2.86128 3.52827C2.9863 3.40325 3.15587 3.33301 3.33268 3.33301H12.666C12.8428 3.33301 13.0124 3.40325 13.1374 3.52827C13.2624 3.65329 13.3327 3.82286 13.3327 3.99967Z" stroke="black" stroke-linecap="round" stroke-linejoin="round"/>
</svg>
