<svg width="16" height="16" viewBox="0 0 16 16" fill="none" xmlns="http://www.w3.org/2000/svg">
<path d="M4.33267 5.66667C3.97905 5.66667 2.99934 5.66667 2.99934 5.66667C2.99934 5.66667 2.99934 4.68696 2.99934 4.33333C2.99934 3.97971 2.99934 3.00045 2.99934 3.00045C2.99934 3.00045 3.97905 3 4.33267 3C4.68629 3 8.5 3 8.5 3M4.33267 5.66667C4.68629 5.66667 8.5 5.66667 8.5 5.66667M4.33267 5.66667L4.33267 9.66667C4.33267 10.0203 4.47315 10.3594 4.72319 10.6095C4.97324 10.8595 5.31238 11 5.666 11L8.99935 11M8.5 5.66667C8.5 5.66667 8.5 4.68696 8.5 4.33333C8.5 3.97971 8.5 3 8.5 3M8.5 5.66667C8.5 5.66667 11.9791 5.66667 12.3327 5.66667C12.6863 5.66667 13.6653 5.66667 13.6653 5.66667C13.6653 5.66667 13.666 4.68696 13.666 4.33333C13.666 3.97971 13.6653 3.00076 13.6653 3.00076C13.6653 3.00076 12.6863 3 12.3327 3C11.9791 3 8.5 3 8.5 3M8.99935 11L6.99935 9M8.99935 11L6.99935 13M12.3327 9.66667C11.9791 9.66667 10.9993 9.66667 10.9993 9.66667C10.9993 9.66667 10.9993 10.6464 10.9993 11C10.9993 11.3536 10.9993 12.3333 10.9993 12.3333C10.9993 12.3333 11.9791 12.3333 12.3327 12.3333C12.6863 12.3333 13.6412 12.3333 13.6412 12.3333C13.6412 12.3333 13.666 11.3536 13.666 11C13.666 10.6464 13.666 9.66667 13.666 9.66667C13.666 9.66667 12.6863 9.66667 12.3327 9.66667Z" stroke="black" stroke-linecap="round" stroke-linejoin="round"/>
</svg>
