<svg width="16" height="16" viewBox="0 0 16 16" fill="none" xmlns="http://www.w3.org/2000/svg">
<path d="M7.99935 5.99967V3.33301M6.66602 4.66634H9.33268M2.66602 11.9997V9.33301C2.66602 9.1562 2.73625 8.98663 2.86128 8.8616C2.9863 8.73658 3.15587 8.66634 3.33268 8.66634H12.666C12.8428 8.66634 13.0124 8.73658 13.1374 8.8616C13.2624 8.98663 13.3327 9.1562 13.3327 9.33301V11.9997C13.3327 12.1765 13.2624 12.3461 13.1374 12.4711C13.0124 12.5961 12.8428 12.6663 12.666 12.6663H3.33268C3.15587 12.6663 2.9863 12.5961 2.86128 12.4711C2.73625 12.3461 2.66602 12.1765 2.66602 11.9997Z" stroke="black" stroke-linecap="round" stroke-linejoin="round"/>
</svg>
