<svg width="16" height="16" viewBox="0 0 16 16" fill="none" xmlns="http://www.w3.org/2000/svg"><path d="M3.493 2.225 C 2.897 2.353,2.279 2.761,1.955 3.240 C 1.609 3.754,1.468 4.296,1.525 4.904 C 1.579 5.492,1.820 6.001,2.243 6.424 C 2.734 6.915,3.318 7.153,4.027 7.151 C 4.626 7.149,5.144 6.956,5.628 6.557 L 5.750 6.457 6.522 7.228 L 7.293 8.000 6.522 8.771 L 5.751 9.542 5.589 9.410 C 5.394 9.252,4.853 8.977,4.613 8.913 C 4.368 8.849,3.631 8.849,3.387 8.914 C 3.128 8.982,2.601 9.254,2.395 9.424 C 1.631 10.057,1.322 11.144,1.632 12.107 C 1.787 12.589,2.111 13.030,2.547 13.354 C 3.387 13.978,4.613 13.978,5.453 13.354 C 5.913 13.012,6.227 12.570,6.391 12.034 C 6.457 11.821,6.463 11.760,6.465 11.347 C 6.466 10.946,6.459 10.865,6.401 10.650 L 6.336 10.406 6.473 10.250 C 6.548 10.164,6.922 9.782,7.304 9.401 L 7.999 8.708 10.113 10.816 C 11.275 11.975,12.289 12.973,12.366 13.033 C 12.534 13.165,12.632 13.190,12.794 13.145 C 13.046 13.074,13.219 12.790,13.149 12.559 C 13.107 12.416,12.983 12.287,10.669 9.967 L 8.707 8.000 10.655 6.047 C 13.213 3.481,13.173 3.525,13.173 3.340 C 13.173 3.214,13.074 3.022,12.966 2.939 C 12.888 2.880,12.838 2.866,12.678 2.858 L 12.484 2.848 12.142 3.176 C 11.954 3.356,10.945 4.356,9.900 5.398 L 8.000 7.293 7.305 6.600 C 6.923 6.219,6.548 5.836,6.473 5.750 L 6.336 5.594 6.401 5.350 C 6.459 5.135,6.466 5.054,6.465 4.653 C 6.463 4.238,6.457 4.180,6.390 3.961 C 6.239 3.468,5.948 3.035,5.561 2.728 C 5.321 2.538,4.902 2.322,4.640 2.254 C 4.402 2.192,3.728 2.175,3.493 2.225 M4.280 3.200 C 4.368 3.214,4.536 3.273,4.653 3.331 C 5.382 3.691,5.694 4.572,5.350 5.295 C 5.248 5.511,4.980 5.814,4.776 5.945 C 4.533 6.101,4.370 6.142,4.000 6.142 C 3.630 6.142,3.467 6.101,3.224 5.945 C 3.020 5.814,2.752 5.511,2.650 5.295 C 2.391 4.750,2.496 4.098,2.913 3.661 C 3.299 3.257,3.731 3.111,4.280 3.200 M4.280 9.866 C 4.368 9.880,4.536 9.940,4.653 9.998 C 5.382 10.358,5.694 11.238,5.350 11.962 C 5.248 12.178,4.980 12.481,4.776 12.611 C 4.533 12.768,4.370 12.809,4.000 12.809 C 3.724 12.809,3.640 12.799,3.509 12.751 C 3.286 12.669,3.129 12.562,2.924 12.349 C 2.485 11.895,2.385 11.246,2.665 10.678 C 2.800 10.404,3.102 10.103,3.369 9.976 C 3.624 9.854,3.957 9.814,4.280 9.866 " stroke="none" fill-rule="evenodd"></path></svg>