<svg width="16" height="16" viewBox="0 0 16 16" fill="none" xmlns="http://www.w3.org/2000/svg"><path d="M3.730 2.188 C 3.424 2.221,3.215 2.283,2.920 2.426 C 2.343 2.706,1.933 3.135,1.699 3.707 C 1.561 4.041,1.508 4.308,1.508 4.667 C 1.508 5.345,1.758 5.948,2.239 6.428 C 2.718 6.908,3.324 7.159,4.000 7.159 C 4.598 7.159,5.127 6.968,5.603 6.581 L 5.753 6.459 6.523 7.229 L 7.293 8.000 6.523 8.770 L 5.753 9.541 5.576 9.397 C 5.371 9.230,4.886 8.980,4.650 8.921 C 4.249 8.821,3.749 8.821,3.350 8.922 C 3.124 8.979,2.688 9.195,2.479 9.354 C 1.868 9.818,1.508 10.551,1.508 11.333 C 1.508 12.011,1.758 12.615,2.239 13.095 C 2.718 13.575,3.324 13.826,4.000 13.826 C 4.676 13.826,5.282 13.575,5.761 13.095 C 6.252 12.605,6.496 12.005,6.489 11.307 C 6.487 10.990,6.453 10.802,6.335 10.440 C 6.321 10.396,6.470 10.235,7.159 9.547 L 8.000 8.707 10.207 10.912 C 12.204 12.907,12.424 13.119,12.530 13.147 C 12.673 13.184,12.824 13.161,12.939 13.084 C 13.122 12.960,13.203 12.745,13.147 12.530 C 13.119 12.424,12.907 12.204,10.912 10.207 L 8.707 8.000 10.911 5.793 C 13.195 3.507,13.173 3.531,13.173 3.333 C 13.173 3.170,13.047 2.966,12.899 2.890 C 12.810 2.843,12.616 2.830,12.493 2.862 C 12.436 2.877,11.792 3.504,10.207 5.088 L 8.000 7.293 7.159 6.453 C 6.470 5.765,6.321 5.604,6.335 5.560 C 6.453 5.198,6.487 5.010,6.489 4.693 C 6.499 3.624,5.879 2.721,4.862 2.323 C 4.568 2.208,4.082 2.150,3.730 2.188 M4.325 3.203 C 4.585 3.256,4.845 3.402,5.051 3.610 C 5.357 3.917,5.493 4.243,5.493 4.667 C 5.493 5.090,5.356 5.417,5.053 5.720 C 4.749 6.024,4.424 6.160,4.000 6.160 C 3.576 6.160,3.251 6.024,2.947 5.720 C 2.644 5.417,2.507 5.090,2.507 4.667 C 2.507 4.243,2.644 3.916,2.947 3.613 C 3.153 3.406,3.377 3.274,3.617 3.216 C 3.808 3.169,4.135 3.163,4.325 3.203 M4.325 9.869 C 4.585 9.923,4.845 10.069,5.051 10.276 C 5.357 10.584,5.493 10.909,5.493 11.333 C 5.493 11.757,5.356 12.084,5.053 12.387 C 4.749 12.691,4.424 12.827,4.000 12.827 C 3.576 12.827,3.251 12.691,2.947 12.387 C 2.644 12.084,2.507 11.757,2.507 11.333 C 2.507 10.910,2.644 10.583,2.947 10.280 C 3.153 10.073,3.377 9.940,3.617 9.882 C 3.808 9.836,4.135 9.830,4.325 9.869 " stroke="none" fill-rule="evenodd" fill="black"></path></svg>