<svg width="16" height="16" viewBox="0 0 16 16" fill="none" xmlns="http://www.w3.org/2000/svg"><path d="M2.768 2.561 C 2.714 2.590,2.636 2.657,2.595 2.711 L 2.520 2.809 2.513 4.305 C 2.505 5.985,2.495 5.896,2.705 6.066 L 2.805 6.147 3.322 6.155 L 3.840 6.163 3.840 8.023 C 3.840 9.185,3.850 9.939,3.867 10.032 C 3.980 10.639,4.476 11.202,5.080 11.407 L 5.293 11.480 6.544 11.488 L 7.795 11.496 7.167 12.128 C 6.484 12.815,6.483 12.815,6.514 13.084 C 6.529 13.224,6.634 13.369,6.774 13.444 C 6.888 13.505,7.093 13.508,7.208 13.451 C 7.326 13.392,9.378 11.344,9.442 11.221 C 9.471 11.165,9.493 11.069,9.493 11.000 C 9.493 10.931,9.471 10.835,9.442 10.779 C 9.378 10.656,7.326 8.608,7.208 8.549 C 6.928 8.410,6.548 8.612,6.513 8.919 C 6.483 9.185,6.484 9.186,7.169 9.875 L 7.800 10.509 6.640 10.501 L 5.480 10.493 5.331 10.423 C 5.142 10.335,4.999 10.192,4.910 10.002 L 4.840 9.853 4.832 8.007 L 4.825 6.160 9.307 6.160 C 13.652 6.160,13.792 6.158,13.888 6.110 C 14.010 6.047,14.066 5.987,14.119 5.860 C 14.154 5.776,14.160 5.559,14.159 4.328 C 14.159 2.993,14.155 2.886,14.110 2.787 C 14.052 2.660,13.992 2.603,13.860 2.548 C 13.773 2.511,13.158 2.507,8.314 2.508 C 2.964 2.509,2.865 2.510,2.768 2.561 M8.000 4.333 L 8.000 5.173 5.747 5.173 L 3.493 5.173 3.493 4.333 L 3.493 3.493 5.747 3.493 L 8.000 3.493 8.000 4.333 M13.173 4.333 L 13.173 5.173 11.093 5.173 L 9.013 5.173 9.013 4.333 L 9.013 3.493 11.093 3.493 L 13.173 3.493 13.173 4.333 M10.768 9.228 C 10.714 9.256,10.636 9.324,10.595 9.378 L 10.520 9.476 10.513 10.971 C 10.505 12.651,10.495 12.563,10.705 12.733 L 10.805 12.813 12.320 12.813 L 13.835 12.813 13.936 12.732 C 13.991 12.687,14.061 12.603,14.091 12.545 C 14.145 12.443,14.147 12.396,14.155 10.996 C 14.163 9.682,14.160 9.543,14.119 9.462 C 14.055 9.337,14.002 9.282,13.888 9.224 C 13.794 9.176,13.710 9.173,12.328 9.175 C 10.931 9.176,10.862 9.178,10.768 9.228 M13.173 10.580 C 13.173 10.811,13.165 11.189,13.156 11.420 L 13.138 11.840 12.316 11.840 L 11.493 11.840 11.493 11.000 L 11.493 10.160 12.333 10.160 L 13.173 10.160 13.173 10.580 " stroke="none" fill-rule="evenodd" fill="black"></path></svg>