<svg width="16" height="16" viewBox="0 0 16 16" fill="none" xmlns="http://www.w3.org/2000/svg"><path d="M6.246 1.522 C 5.306 1.594,4.345 1.957,3.573 2.530 C 3.333 2.709,2.850 3.173,2.654 3.413 C 2.423 3.697,2.219 4.018,2.038 4.387 C 1.432 5.617,1.335 6.977,1.761 8.274 C 2.122 9.374,2.842 10.319,3.816 10.974 C 4.304 11.302,5.034 11.605,5.641 11.730 C 7.057 12.022,8.600 11.675,9.755 10.806 L 9.951 10.658 11.849 12.554 C 13.562 14.265,13.758 14.452,13.863 14.480 C 14.244 14.580,14.580 14.244,14.480 13.863 C 14.452 13.758,14.265 13.562,12.554 11.849 L 10.658 9.951 10.806 9.755 C 11.538 8.782,11.919 7.476,11.818 6.288 C 11.731 5.276,11.386 4.354,10.804 3.574 C 10.618 3.325,10.182 2.871,9.933 2.667 C 9.123 2.004,8.109 1.603,7.034 1.520 C 6.649 1.491,6.648 1.491,6.246 1.522 M7.160 2.535 C 8.103 2.648,8.980 3.082,9.643 3.764 C 10.222 4.361,10.566 5.015,10.751 5.873 C 10.837 6.270,10.837 7.064,10.751 7.461 C 10.555 8.369,10.173 9.064,9.530 9.680 C 8.118 11.033,5.971 11.208,4.322 10.105 C 3.646 9.653,3.037 8.874,2.764 8.112 C 1.922 5.771,3.237 3.262,5.633 2.637 C 6.098 2.516,6.675 2.478,7.160 2.535 " stroke="none" fill-rule="evenodd" fill="black"></path></svg>