<svg width="16" height="16" viewBox="0 0 16 16" fill="none" xmlns="http://www.w3.org/2000/svg"><path d="M7.880 2.851 C 7.836 2.862,7.776 2.884,7.747 2.900 C 7.717 2.917,7.061 3.564,6.289 4.338 C 5.030 5.601,4.881 5.759,4.854 5.863 C 4.753 6.244,5.089 6.580,5.470 6.480 C 5.573 6.453,5.696 6.340,6.540 5.498 L 7.493 4.548 7.493 8.627 C 7.494 11.351,7.503 12.740,7.521 12.806 C 7.644 13.248,8.265 13.289,8.457 12.868 C 8.503 12.765,8.506 12.580,8.506 8.654 L 8.507 4.548 9.460 5.498 C 10.263 6.299,10.430 6.453,10.520 6.478 C 10.652 6.513,10.682 6.513,10.806 6.479 C 11.085 6.401,11.242 6.084,11.132 5.819 C 11.104 5.751,10.660 5.288,9.699 4.325 C 8.933 3.558,8.277 2.914,8.240 2.895 C 8.150 2.848,7.978 2.827,7.880 2.851 " stroke="none" fill-rule="evenodd" fill="black"></path></svg>