<svg width="16" height="16" viewBox="0 0 16 16" fill="none" xmlns="http://www.w3.org/2000/svg"><path d="M3.573 1.519 C 2.858 1.540,2.819 1.547,2.493 1.716 C 2.078 1.931,1.743 2.329,1.576 2.809 L 1.493 3.044 1.494 6.489 C 1.494 8.545,1.505 10.033,1.520 10.181 C 1.568 10.629,1.772 11.031,2.112 11.346 C 2.498 11.704,2.791 11.747,3.035 11.482 C 3.159 11.348,3.196 11.197,3.149 11.020 C 3.125 10.934,3.072 10.868,2.893 10.706 C 2.569 10.411,2.558 10.390,2.532 9.952 C 2.501 9.454,2.502 3.867,2.532 3.395 C 2.547 3.160,2.571 2.989,2.596 2.942 C 2.617 2.900,2.700 2.804,2.779 2.729 C 2.898 2.617,2.953 2.586,3.082 2.556 C 3.211 2.527,3.883 2.520,6.707 2.520 C 9.949 2.520,10.179 2.523,10.258 2.566 C 10.305 2.592,10.417 2.709,10.508 2.826 C 10.680 3.048,10.780 3.128,10.927 3.159 C 11.105 3.197,11.347 3.063,11.443 2.873 C 11.547 2.671,11.477 2.433,11.219 2.114 C 11.073 1.933,10.851 1.747,10.674 1.657 C 10.392 1.514,10.464 1.517,7.227 1.508 C 5.577 1.504,3.933 1.509,3.573 1.519 M6.002 4.216 C 5.640 4.287,5.239 4.487,4.947 4.742 C 4.596 5.049,4.355 5.450,4.214 5.962 C 4.161 6.157,4.160 6.221,4.161 9.340 L 4.161 12.520 4.224 12.733 C 4.351 13.160,4.478 13.409,4.707 13.675 C 5.045 14.069,5.380 14.278,5.933 14.442 L 6.147 14.506 9.333 14.506 L 12.520 14.506 12.733 14.442 C 13.160 14.316,13.409 14.188,13.675 13.960 C 14.069 13.622,14.278 13.286,14.442 12.733 L 14.506 12.520 14.506 9.333 L 14.506 6.147 14.442 5.933 C 14.303 5.464,14.162 5.207,13.884 4.913 C 13.573 4.586,13.262 4.392,12.832 4.256 L 12.611 4.187 9.365 4.190 C 7.580 4.191,6.067 4.203,6.002 4.216 M12.267 5.197 C 12.699 5.224,12.863 5.296,13.128 5.570 C 13.390 5.841,13.441 5.969,13.469 6.423 C 13.498 6.899,13.497 11.771,13.468 12.249 C 13.447 12.592,13.439 12.630,13.357 12.793 C 13.177 13.148,12.803 13.421,12.431 13.469 C 12.193 13.499,6.614 13.498,6.296 13.468 C 5.961 13.435,5.779 13.346,5.538 13.096 C 5.280 12.829,5.227 12.697,5.198 12.258 C 5.171 11.841,5.169 6.979,5.196 6.438 C 5.213 6.080,5.218 6.054,5.306 5.881 C 5.427 5.644,5.656 5.415,5.887 5.301 C 6.063 5.214,6.071 5.213,6.533 5.199 C 7.277 5.175,11.899 5.174,12.267 5.197 " stroke="none" fill-rule="evenodd"></path></svg>