<svg width="16" height="16" viewBox="0 0 16 16" fill="none" xmlns="http://www.w3.org/2000/svg"><path d="M7.773 2.895 C 7.666 2.951,7.603 3.011,7.551 3.107 C 7.510 3.180,7.506 3.540,7.499 7.319 L 7.492 11.451 6.686 10.650 C 6.243 10.210,5.799 9.776,5.699 9.685 C 5.519 9.521,5.517 9.520,5.356 9.520 C 5.262 9.520,5.156 9.538,5.103 9.564 C 4.908 9.656,4.801 9.900,4.856 10.125 C 4.886 10.246,4.964 10.329,6.264 11.628 C 7.021 12.384,7.699 13.041,7.771 13.088 C 7.944 13.200,8.056 13.200,8.229 13.088 C 8.301 13.042,8.969 12.396,9.713 11.653 C 11.182 10.187,11.197 10.169,11.161 9.932 C 11.123 9.678,10.927 9.521,10.648 9.520 L 10.482 9.520 10.301 9.685 C 10.201 9.776,9.757 10.210,9.313 10.651 L 8.507 11.453 8.505 7.520 C 8.504 5.357,8.494 3.481,8.482 3.352 C 8.459 3.086,8.419 3.010,8.251 2.914 C 8.125 2.842,7.893 2.833,7.773 2.895 " stroke="none" fill-rule="evenodd"></path></svg>