<svg width="16" height="16" viewBox="0 0 16 16" fill="none" xmlns="http://www.w3.org/2000/svg"><path d="M3.880 2.185 C 3.556 2.209,3.435 2.242,3.174 2.374 C 2.740 2.594,2.402 2.988,2.238 3.467 C 2.181 3.632,2.178 3.682,2.176 4.560 C 2.174 5.389,2.178 5.488,2.220 5.565 C 2.280 5.675,2.410 5.773,2.553 5.815 C 2.690 5.855,2.843 5.819,2.983 5.714 C 3.148 5.589,3.156 5.543,3.174 4.613 C 3.193 3.660,3.194 3.651,3.408 3.430 C 3.634 3.196,3.650 3.193,4.627 3.175 C 5.459 3.160,5.482 3.158,5.580 3.098 C 5.917 2.889,5.908 2.411,5.564 2.235 C 5.461 2.182,5.407 2.178,4.800 2.172 C 4.441 2.168,4.027 2.174,3.880 2.185 M10.533 2.191 C 10.397 2.230,10.280 2.330,10.216 2.461 C 10.129 2.641,10.155 2.833,10.286 2.989 C 10.417 3.144,10.466 3.152,11.390 3.175 C 12.182 3.194,12.240 3.199,12.350 3.254 C 12.509 3.334,12.658 3.481,12.738 3.637 C 12.804 3.766,12.805 3.782,12.825 4.624 C 12.847 5.567,12.850 5.588,13.020 5.716 C 13.235 5.878,13.489 5.865,13.680 5.682 C 13.834 5.536,13.849 5.418,13.834 4.467 C 13.822 3.674,13.821 3.665,13.746 3.443 C 13.567 2.913,13.101 2.439,12.589 2.267 C 12.477 2.230,12.300 2.202,12.069 2.186 C 11.611 2.154,10.652 2.158,10.533 2.191 M4.869 5.529 C 4.720 5.565,4.545 5.746,4.521 5.890 C 4.473 6.171,4.494 6.201,5.287 7.003 L 5.765 7.485 4.342 7.501 C 3.451 7.511,2.884 7.528,2.822 7.546 C 2.628 7.603,2.486 7.848,2.517 8.072 C 2.537 8.222,2.615 8.332,2.769 8.430 L 2.890 8.507 4.330 8.507 L 5.769 8.507 5.219 9.063 C 4.617 9.673,4.506 9.817,4.507 9.985 C 4.508 10.211,4.659 10.406,4.888 10.479 C 5.066 10.536,5.147 10.500,5.446 10.229 C 5.835 9.876,7.372 8.319,7.438 8.210 C 7.470 8.158,7.493 8.075,7.493 8.013 C 7.492 7.784,7.438 7.720,6.392 6.679 C 5.845 6.136,5.356 5.659,5.303 5.619 C 5.188 5.531,5.011 5.495,4.869 5.529 M10.760 5.577 C 10.654 5.631,8.923 7.346,8.653 7.664 C 8.522 7.819,8.520 7.824,8.520 8.000 C 8.520 8.168,8.526 8.185,8.627 8.309 C 8.786 8.505,9.931 9.662,10.378 10.080 C 10.882 10.551,11.007 10.595,11.281 10.396 C 11.503 10.235,11.555 9.922,11.395 9.710 C 11.354 9.657,11.077 9.365,10.778 9.061 L 10.235 8.509 11.688 8.501 L 13.142 8.493 13.258 8.413 C 13.324 8.367,13.400 8.282,13.435 8.213 C 13.548 7.994,13.472 7.719,13.261 7.581 C 13.170 7.521,12.617 7.498,11.243 7.495 L 10.206 7.493 10.797 6.893 C 11.122 6.562,11.412 6.253,11.441 6.206 C 11.528 6.062,11.493 5.813,11.366 5.671 C 11.230 5.521,10.954 5.478,10.760 5.577 M2.523 10.194 C 2.384 10.229,2.225 10.393,2.185 10.539 C 2.164 10.619,2.158 10.906,2.166 11.493 C 2.177 12.326,2.178 12.335,2.251 12.547 C 2.360 12.864,2.464 13.028,2.718 13.282 C 2.972 13.536,3.137 13.641,3.453 13.749 C 3.663 13.821,3.680 13.822,4.467 13.834 C 5.414 13.849,5.525 13.835,5.679 13.681 C 5.919 13.441,5.862 13.055,5.564 12.902 C 5.460 12.848,5.403 12.843,4.613 12.829 C 3.809 12.813,3.768 12.810,3.649 12.752 C 3.505 12.681,3.335 12.508,3.253 12.347 C 3.200 12.242,3.195 12.178,3.175 11.375 C 3.157 10.666,3.146 10.502,3.110 10.433 C 3.011 10.241,2.751 10.135,2.523 10.194 M13.200 10.193 C 13.149 10.207,13.068 10.247,13.020 10.284 C 12.850 10.412,12.847 10.433,12.825 11.376 C 12.802 12.339,12.803 12.335,12.583 12.575 C 12.375 12.800,12.347 12.806,11.387 12.829 C 10.463 12.851,10.414 12.859,10.286 13.011 C 10.138 13.187,10.128 13.423,10.260 13.613 C 10.406 13.822,10.429 13.827,11.427 13.827 L 12.307 13.827 12.541 13.750 C 13.097 13.568,13.559 13.110,13.746 12.557 C 13.821 12.335,13.822 12.328,13.834 11.514 C 13.848 10.625,13.836 10.510,13.714 10.351 C 13.609 10.212,13.385 10.143,13.200 10.193 " stroke="none" fill-rule="evenodd"></path></svg>