<svg width="16" height="16" viewBox="0 0 16 16" fill="none" xmlns="http://www.w3.org/2000/svg"><path d="M7.560 3.522 C 6.629 3.599,5.929 3.788,5.150 4.175 C 4.020 4.734,3.019 5.647,2.059 6.990 C 1.826 7.316,1.552 7.775,1.520 7.892 C 1.470 8.080,1.593 8.333,2.072 9.028 C 2.545 9.713,3.402 10.646,3.947 11.066 C 4.974 11.860,5.979 12.285,7.240 12.458 C 7.553 12.501,8.451 12.500,8.773 12.456 C 10.536 12.217,11.917 11.429,13.243 9.905 C 13.664 9.422,14.230 8.627,14.405 8.273 C 14.552 7.976,14.513 7.845,14.091 7.213 C 13.490 6.316,12.778 5.518,12.071 4.953 C 11.295 4.334,10.350 3.871,9.443 3.666 C 8.908 3.545,8.063 3.481,7.560 3.522 M8.493 4.534 C 9.850 4.659,11.106 5.293,12.144 6.376 C 12.565 6.815,13.189 7.613,13.337 7.900 C 13.396 8.016,13.398 8.011,13.191 8.320 C 11.791 10.411,10.020 11.492,7.992 11.493 C 6.752 11.494,5.601 11.083,4.555 10.267 C 4.027 9.854,3.323 9.074,2.818 8.341 L 2.584 8.001 2.723 7.794 C 3.233 7.034,3.790 6.389,4.354 5.905 C 5.559 4.871,6.994 4.396,8.493 4.534 M7.540 6.228 C 7.232 6.303,6.922 6.493,6.666 6.764 C 6.468 6.973,6.355 7.158,6.264 7.421 C 6.195 7.619,6.187 7.674,6.187 7.995 C 6.187 8.307,6.195 8.376,6.255 8.555 C 6.350 8.839,6.459 9.018,6.673 9.243 C 6.900 9.482,7.134 9.637,7.420 9.736 C 7.620 9.806,7.672 9.813,8.000 9.813 C 8.328 9.813,8.380 9.806,8.580 9.736 C 8.861 9.638,9.094 9.486,9.311 9.259 C 9.530 9.029,9.641 8.852,9.736 8.579 C 9.805 8.381,9.813 8.326,9.813 8.005 C 9.813 7.694,9.805 7.624,9.745 7.445 C 9.543 6.838,9.070 6.394,8.460 6.238 C 8.219 6.177,7.773 6.172,7.540 6.228 M8.337 7.252 C 8.636 7.384,8.804 7.654,8.804 8.000 C 8.804 8.255,8.738 8.425,8.578 8.581 C 8.412 8.744,8.242 8.812,8.000 8.812 C 7.758 8.812,7.588 8.744,7.422 8.581 C 7.258 8.421,7.190 8.248,7.189 7.987 C 7.187 7.815,7.199 7.751,7.247 7.661 C 7.367 7.435,7.584 7.252,7.796 7.197 C 7.919 7.166,8.208 7.195,8.337 7.252 " stroke="none" fill-rule="evenodd"></path></svg>