<svg width="16" height="16" viewBox="0 0 16 16" fill="none" xmlns="http://www.w3.org/2000/svg"><path d="M3.134 2.856 C 3.046 2.869,2.911 2.911,2.833 2.949 C 2.647 3.040,2.403 3.268,2.311 3.437 C 2.170 3.697,2.161 3.806,2.161 5.333 C 2.161 7.095,2.167 7.132,2.518 7.482 C 2.709 7.674,2.845 7.750,3.089 7.802 C 3.360 7.859,12.647 7.857,12.918 7.800 C 13.370 7.704,13.739 7.313,13.812 6.853 C 13.849 6.623,13.849 4.044,13.812 3.813 C 13.773 3.569,13.670 3.373,13.482 3.186 C 13.285 2.992,13.088 2.890,12.840 2.854 C 12.607 2.821,3.364 2.823,3.134 2.856 M12.778 3.884 C 12.824 3.926,12.827 4.006,12.827 5.329 C 12.827 6.594,12.822 6.734,12.783 6.778 C 12.740 6.825,12.557 6.827,8.005 6.827 C 3.637 6.827,3.267 6.823,3.222 6.783 C 3.176 6.741,3.173 6.661,3.173 5.338 C 3.173 4.072,3.178 3.933,3.217 3.889 C 3.260 3.842,3.443 3.840,7.995 3.840 C 12.363 3.840,12.733 3.843,12.778 3.884 M7.933 9.506 C 7.919 9.511,7.875 9.522,7.835 9.531 C 7.732 9.554,7.600 9.675,7.543 9.799 C 7.502 9.890,7.494 9.978,7.494 10.364 L 7.493 10.822 7.007 10.831 C 6.488 10.842,6.428 10.855,6.301 10.991 C 6.223 11.075,6.160 11.231,6.161 11.339 C 6.162 11.541,6.329 11.757,6.527 11.812 C 6.582 11.827,6.822 11.840,7.060 11.840 L 7.493 11.840 7.494 12.300 C 7.494 12.689,7.502 12.777,7.543 12.868 C 7.697 13.205,8.145 13.269,8.382 12.987 C 8.486 12.864,8.506 12.747,8.507 12.273 L 8.507 11.840 8.940 11.840 C 9.178 11.840,9.421 11.826,9.479 11.810 C 9.784 11.726,9.930 11.326,9.751 11.063 C 9.613 10.860,9.501 10.828,8.927 10.827 L 8.507 10.827 8.507 10.393 C 8.506 10.155,8.494 9.915,8.479 9.861 C 8.447 9.745,8.343 9.613,8.243 9.562 C 8.170 9.524,7.979 9.490,7.933 9.506 " stroke="none" fill-rule="evenodd" fill="black"></path></svg>