<svg width="16" height="16" viewBox="0 0 16 16" fill="none" xmlns="http://www.w3.org/2000/svg"><path d="M2.566 3.520 C 2.324 3.571,2.176 3.755,2.174 4.004 C 2.173 4.130,2.187 4.174,2.253 4.269 C 2.297 4.331,2.381 4.407,2.440 4.438 L 2.547 4.493 8.013 4.493 L 13.480 4.493 13.580 4.431 C 13.917 4.222,13.908 3.745,13.564 3.568 L 13.453 3.511 8.067 3.503 C 4.888 3.499,2.633 3.505,2.566 3.520 M2.538 7.523 C 2.310 7.578,2.132 7.845,2.170 8.079 C 2.191 8.209,2.313 8.371,2.440 8.438 C 2.547 8.493,2.549 8.493,6.013 8.493 L 9.480 8.493 9.580 8.431 C 9.917 8.222,9.908 7.745,9.564 7.569 L 9.453 7.512 6.053 7.503 C 3.772 7.498,2.615 7.504,2.538 7.523 M2.538 11.525 C 2.311 11.576,2.132 11.844,2.170 12.079 C 2.191 12.209,2.313 12.371,2.440 12.438 L 2.547 12.493 7.351 12.493 L 12.155 12.493 12.269 12.413 C 12.552 12.213,12.567 11.810,12.298 11.605 L 12.204 11.533 11.109 11.517 C 9.336 11.489,2.668 11.496,2.538 11.525 " stroke="none" fill-rule="evenodd"></path></svg>