<svg width="15" height="15" viewBox="0 0 15 15" fill="none" xmlns="http://www.w3.org/2000/svg"><path d="M3.420 2.027 C 3.009 2.088,2.589 2.271,2.262 2.532 C 1.883 2.833,1.579 3.306,1.445 3.800 L 1.388 4.013 1.388 6.875 L 1.388 9.738 1.445 9.950 C 1.525 10.247,1.743 10.674,1.926 10.892 C 2.228 11.252,2.693 11.548,3.163 11.678 C 3.351 11.730,3.423 11.734,4.388 11.743 L 5.413 11.753 6.325 12.662 C 7.143 13.476,7.249 13.574,7.350 13.600 C 7.747 13.706,8.081 13.372,7.975 12.975 C 7.949 12.874,7.846 12.762,6.954 11.868 C 6.212 11.124,5.931 10.858,5.839 10.812 L 5.715 10.750 4.651 10.750 C 3.479 10.749,3.406 10.742,3.118 10.597 C 2.919 10.496,2.639 10.216,2.529 10.007 C 2.372 9.708,2.376 9.778,2.376 6.875 C 2.376 3.972,2.372 4.042,2.529 3.743 C 2.635 3.541,2.916 3.260,3.118 3.154 C 3.424 2.994,3.225 3.001,7.500 3.001 C 10.781 3.001,11.414 3.006,11.557 3.037 C 11.997 3.130,12.395 3.490,12.561 3.947 C 12.611 4.082,12.613 4.151,12.625 5.877 L 12.638 7.666 12.705 7.768 C 12.808 7.924,12.930 7.988,13.125 7.988 C 13.320 7.988,13.442 7.924,13.545 7.767 L 13.613 7.666 13.613 5.839 L 13.613 4.013 13.555 3.800 C 13.475 3.504,13.280 3.115,13.099 2.890 C 12.845 2.575,12.455 2.294,12.075 2.153 C 11.676 2.005,11.990 2.015,7.588 2.010 C 5.374 2.007,3.499 2.015,3.420 2.027 M4.863 5.143 C 4.755 5.171,4.604 5.301,4.549 5.414 C 4.442 5.636,4.528 5.920,4.742 6.053 L 4.838 6.113 7.500 6.113 L 10.163 6.113 10.258 6.053 C 10.310 6.021,10.384 5.948,10.420 5.892 C 10.476 5.808,10.488 5.763,10.488 5.627 C 10.488 5.429,10.429 5.319,10.269 5.210 L 10.163 5.138 7.538 5.134 C 6.094 5.132,4.890 5.136,4.863 5.143 M4.863 7.643 C 4.755 7.671,4.604 7.801,4.549 7.914 C 4.442 8.136,4.528 8.420,4.742 8.553 L 4.838 8.613 6.877 8.613 L 8.916 8.613 9.017 8.545 C 9.174 8.442,9.238 8.320,9.238 8.125 C 9.238 7.929,9.179 7.818,9.019 7.710 L 8.912 7.638 6.913 7.634 C 5.813 7.632,4.890 7.636,4.863 7.643 M11.545 9.525 C 11.276 9.568,11.087 9.628,10.838 9.750 C 10.352 9.986,9.982 10.355,9.751 10.834 C 9.564 11.218,9.515 11.437,9.515 11.875 C 9.515 12.323,9.565 12.538,9.763 12.938 C 10.002 13.418,10.353 13.767,10.834 13.999 C 11.218 14.186,11.437 14.235,11.875 14.235 C 12.313 14.235,12.532 14.186,12.916 13.999 C 13.545 13.695,13.991 13.147,14.178 12.450 C 14.260 12.146,14.260 11.606,14.179 11.300 C 13.948 10.431,13.272 9.770,12.400 9.563 C 12.199 9.515,11.736 9.495,11.545 9.525 M12.298 10.563 L 12.433 10.604 11.523 11.515 L 10.613 12.426 10.580 12.347 C 10.514 12.189,10.488 11.890,10.520 11.669 C 10.596 11.136,11.037 10.655,11.557 10.536 C 11.748 10.492,12.108 10.506,12.298 10.563 M13.232 11.678 C 13.296 12.119,13.161 12.518,12.840 12.840 C 12.543 13.138,12.208 13.267,11.800 13.242 C 11.683 13.235,11.527 13.210,11.452 13.187 L 11.317 13.146 12.227 12.235 L 13.138 11.324 13.170 11.403 C 13.188 11.446,13.216 11.570,13.232 11.678 " stroke="none" fill-rule="evenodd" fill="black"></path></svg>