<svg width="15" height="15" viewBox="0 0 15 15" fill="none" xmlns="http://www.w3.org/2000/svg"><path d="M3.420 2.027 C 3.009 2.088,2.589 2.271,2.262 2.532 C 1.883 2.833,1.579 3.306,1.445 3.800 L 1.388 4.013 1.388 6.875 L 1.388 9.738 1.445 9.950 C 1.525 10.247,1.743 10.674,1.926 10.892 C 2.228 11.252,2.693 11.548,3.163 11.678 C 3.351 11.730,3.423 11.734,4.388 11.743 L 5.413 11.753 6.325 12.662 C 7.093 13.426,7.253 13.575,7.338 13.597 C 7.583 13.664,7.704 13.620,7.967 13.368 C 8.084 13.256,8.207 13.116,8.241 13.058 C 8.375 12.830,8.294 12.522,8.066 12.388 C 7.929 12.308,7.703 12.300,7.585 12.373 L 7.507 12.420 6.735 11.647 C 6.171 11.083,5.929 10.857,5.839 10.812 L 5.715 10.750 4.651 10.750 C 3.479 10.749,3.406 10.742,3.118 10.597 C 2.919 10.496,2.639 10.216,2.529 10.007 C 2.372 9.708,2.376 9.778,2.376 6.875 C 2.376 3.972,2.372 4.042,2.529 3.743 C 2.635 3.541,2.916 3.260,3.118 3.154 C 3.424 2.994,3.225 3.001,7.500 3.001 C 11.775 3.001,11.576 2.994,11.882 3.154 C 12.084 3.260,12.365 3.541,12.471 3.743 C 12.623 4.034,12.624 4.050,12.625 6.075 C 12.626 7.810,12.629 7.918,12.672 8.013 C 12.817 8.324,13.223 8.407,13.464 8.174 C 13.634 8.008,13.628 8.101,13.618 5.937 C 13.610 4.005,13.609 3.986,13.554 3.788 C 13.472 3.498,13.275 3.109,13.099 2.890 C 12.845 2.575,12.455 2.294,12.075 2.153 C 11.676 2.005,11.990 2.015,7.588 2.010 C 5.374 2.007,3.499 2.015,3.420 2.027 M4.863 5.143 C 4.755 5.171,4.604 5.301,4.549 5.414 C 4.442 5.636,4.528 5.920,4.742 6.053 L 4.838 6.113 7.500 6.113 L 10.163 6.113 10.258 6.053 C 10.310 6.021,10.384 5.948,10.420 5.892 C 10.476 5.808,10.488 5.763,10.488 5.627 C 10.488 5.429,10.429 5.319,10.269 5.210 L 10.163 5.138 7.538 5.134 C 6.094 5.132,4.890 5.136,4.863 5.143 M4.863 7.643 C 4.755 7.671,4.604 7.801,4.549 7.914 C 4.442 8.136,4.528 8.420,4.742 8.553 L 4.838 8.613 6.877 8.613 L 8.916 8.613 9.017 8.545 C 9.174 8.442,9.238 8.320,9.238 8.125 C 9.238 7.929,9.179 7.818,9.019 7.710 L 8.912 7.638 6.913 7.634 C 5.813 7.632,4.890 7.636,4.863 7.643 M11.738 9.517 C 11.630 9.547,11.478 9.677,11.427 9.782 C 11.378 9.885,11.375 9.930,11.375 10.632 L 11.375 11.372 10.606 11.380 L 9.838 11.388 9.721 11.468 C 9.425 11.674,9.431 12.096,9.732 12.295 L 9.834 12.363 10.603 12.370 L 11.372 12.378 11.380 13.145 C 11.387 13.903,11.388 13.914,11.447 14.008 C 11.479 14.060,11.552 14.134,11.608 14.170 C 11.692 14.226,11.737 14.238,11.875 14.238 C 12.013 14.238,12.058 14.226,12.142 14.170 C 12.198 14.134,12.271 14.060,12.303 14.008 C 12.362 13.914,12.363 13.903,12.370 13.145 L 12.378 12.378 13.145 12.370 C 13.903 12.363,13.914 12.362,14.008 12.303 C 14.060 12.271,14.134 12.198,14.170 12.142 C 14.226 12.058,14.238 12.013,14.238 11.877 C 14.238 11.679,14.179 11.569,14.019 11.460 L 13.913 11.388 13.145 11.380 L 12.378 11.372 12.370 10.605 C 12.363 9.859,12.361 9.835,12.306 9.747 C 12.224 9.615,12.071 9.523,11.916 9.512 C 11.845 9.507,11.765 9.509,11.738 9.517 " stroke="none" fill-rule="evenodd" fill="black"></path></svg>