<svg width="16" height="16" viewBox="0 0 16 16" fill="none" xmlns="http://www.w3.org/2000/svg"><path d="M7.857 2.861 C 7.725 2.894,7.559 3.058,7.522 3.192 C 7.506 3.248,7.494 3.486,7.493 3.723 L 7.493 4.152 7.017 4.167 C 6.491 4.185,6.402 4.206,6.286 4.344 C 6.139 4.520,6.128 4.758,6.259 4.944 C 6.393 5.133,6.480 5.159,7.018 5.169 L 7.489 5.178 7.498 5.667 L 7.507 6.156 7.587 6.269 C 7.751 6.501,8.054 6.565,8.271 6.412 C 8.467 6.273,8.492 6.190,8.503 5.647 L 8.512 5.173 8.929 5.173 C 9.524 5.172,9.628 5.138,9.759 4.904 C 9.855 4.732,9.850 4.545,9.745 4.394 C 9.613 4.205,9.530 4.180,8.984 4.165 L 8.512 4.153 8.502 3.665 L 8.493 3.178 8.413 3.062 C 8.289 2.884,8.074 2.807,7.857 2.861 M3.920 8.186 L 3.027 8.200 2.851 8.283 C 2.626 8.390,2.370 8.637,2.280 8.832 C 2.171 9.070,2.154 9.375,2.167 10.859 C 2.179 12.373,2.183 12.404,2.376 12.660 C 2.518 12.848,2.749 13.026,2.946 13.098 L 3.107 13.157 7.440 13.166 C 9.823 13.172,12.043 13.166,12.373 13.154 C 12.971 13.131,12.974 13.131,13.154 13.047 C 13.514 12.878,13.760 12.537,13.813 12.132 C 13.844 11.888,13.846 9.475,13.815 9.205 C 13.771 8.824,13.510 8.464,13.148 8.285 L 12.975 8.200 12.107 8.183 C 11.091 8.163,5.218 8.165,3.920 8.186 M12.779 9.221 C 12.830 9.272,12.830 12.061,12.779 12.112 C 12.727 12.163,3.273 12.163,3.221 12.112 C 3.194 12.085,3.185 11.800,3.179 10.777 C 3.174 10.061,3.180 9.417,3.192 9.345 L 3.214 9.213 3.441 9.198 C 3.565 9.189,5.709 9.183,8.205 9.184 C 11.892 9.186,12.751 9.193,12.779 9.221 " stroke="none" fill-rule="evenodd"></path></svg>