<svg width="16" height="16" viewBox="0 0 16 16" fill="none" xmlns="http://www.w3.org/2000/svg"><path d="M9.933 3.506 C 9.919 3.511,9.875 3.522,9.835 3.531 C 9.669 3.568,9.495 3.803,9.494 3.994 C 9.493 4.185,9.557 4.261,10.514 5.220 L 11.453 6.160 8.413 6.160 C 5.295 6.160,4.937 6.170,4.563 6.266 C 3.448 6.552,2.574 7.414,2.278 8.520 C 2.179 8.890,2.145 9.277,2.182 9.620 C 2.337 11.041,3.322 12.136,4.720 12.439 C 4.981 12.496,5.965 12.526,6.125 12.483 C 6.479 12.386,6.617 11.958,6.383 11.680 C 6.248 11.520,6.204 11.511,5.533 11.493 C 4.934 11.476,4.914 11.474,4.667 11.390 C 4.344 11.280,4.098 11.134,3.864 10.914 C 3.559 10.626,3.381 10.338,3.249 9.919 C 3.196 9.748,3.187 9.665,3.187 9.333 C 3.188 8.920,3.212 8.792,3.354 8.467 C 3.457 8.229,3.587 8.035,3.770 7.845 C 4.043 7.560,4.320 7.389,4.733 7.250 L 4.920 7.187 8.187 7.179 L 11.453 7.172 10.514 8.113 C 9.557 9.072,9.493 9.149,9.494 9.339 C 9.496 9.590,9.748 9.840,10.000 9.840 C 10.193 9.840,10.213 9.822,11.662 8.378 C 12.436 7.605,13.086 6.943,13.106 6.906 C 13.165 6.796,13.180 6.656,13.147 6.531 C 13.119 6.425,12.976 6.273,11.711 5.005 C 10.939 4.230,10.277 3.581,10.240 3.561 C 10.170 3.524,9.978 3.490,9.933 3.506 " stroke="none" fill-rule="evenodd" fill="black"></path></svg>