<svg width="16" height="16" viewBox="0 0 16 16" fill="none" xmlns="http://www.w3.org/2000/svg"><path d="M2.600 2.173 C 2.585 2.178,2.541 2.189,2.502 2.198 C 2.333 2.235,2.161 2.471,2.161 2.667 C 2.161 2.781,2.238 2.953,2.324 3.032 C 2.487 3.183,2.112 3.173,7.979 3.173 C 11.832 3.173,13.404 3.165,13.479 3.144 C 13.538 3.127,13.630 3.070,13.684 3.016 C 13.959 2.741,13.828 2.273,13.451 2.186 C 13.356 2.163,2.666 2.151,2.600 2.173 M7.933 6.173 C 7.919 6.178,7.871 6.190,7.827 6.199 C 7.718 6.223,4.952 8.975,4.878 9.133 C 4.758 9.389,4.880 9.685,5.153 9.799 C 5.269 9.847,5.336 9.850,5.480 9.811 C 5.570 9.787,5.737 9.633,6.540 8.832 L 7.493 7.881 7.493 10.648 C 7.493 13.647,7.487 13.516,7.635 13.676 C 7.706 13.754,7.882 13.839,7.973 13.839 C 8.193 13.841,8.422 13.677,8.477 13.479 C 8.498 13.405,8.506 12.549,8.507 10.627 L 8.507 7.881 9.460 8.831 C 10.486 9.853,10.499 9.863,10.733 9.828 C 11.034 9.783,11.224 9.493,11.146 9.196 C 11.119 9.092,10.971 8.935,9.725 7.685 C 8.959 6.918,8.297 6.269,8.253 6.242 C 8.176 6.194,7.988 6.153,7.933 6.173 " stroke="none" fill-rule="evenodd" fill="black"></path></svg>