<svg width="16" height="16" viewBox="0 0 16 16" fill="none" xmlns="http://www.w3.org/2000/svg"><path d="M9.204 2.188 C 8.817 2.228,8.455 2.487,8.288 2.842 C 8.214 3.000,8.203 3.058,8.182 3.393 C 8.168 3.603,8.161 5.787,8.166 8.331 L 8.175 12.893 8.234 13.051 C 8.342 13.336,8.600 13.618,8.859 13.733 C 8.926 13.762,9.093 13.798,9.230 13.813 C 9.561 13.848,11.814 13.847,12.120 13.812 C 12.441 13.775,12.602 13.698,12.819 13.477 C 13.072 13.220,13.121 13.095,13.149 12.644 C 13.179 12.147,13.178 3.840,13.148 3.369 C 13.129 3.081,13.110 2.959,13.066 2.858 C 12.989 2.678,12.670 2.370,12.463 2.274 C 12.319 2.208,12.270 2.201,11.827 2.183 C 11.202 2.158,9.456 2.161,9.204 2.188 M12.112 3.221 C 12.163 3.273,12.163 12.727,12.112 12.779 C 12.061 12.830,9.272 12.830,9.221 12.779 C 9.193 12.751,9.185 11.908,9.180 8.325 C 9.176 5.895,9.182 3.751,9.193 3.560 L 9.213 3.213 9.307 3.196 C 9.358 3.187,10.002 3.181,10.739 3.183 C 11.797 3.186,12.085 3.194,12.112 3.221 M4.440 6.229 C 4.202 6.353,4.176 6.424,4.165 7.003 L 4.155 7.487 3.684 7.499 C 3.335 7.508,3.188 7.522,3.115 7.554 C 2.999 7.603,2.867 7.775,2.842 7.906 C 2.806 8.099,2.928 8.353,3.101 8.446 C 3.170 8.482,3.280 8.493,3.671 8.502 L 4.155 8.512 4.164 8.983 C 4.175 9.538,4.200 9.614,4.414 9.747 C 4.594 9.859,4.776 9.859,4.936 9.746 C 5.142 9.602,5.159 9.548,5.169 8.996 L 5.178 8.512 5.663 8.502 C 6.199 8.491,6.261 8.475,6.382 8.313 C 6.531 8.114,6.536 7.898,6.396 7.706 C 6.277 7.541,6.197 7.519,5.650 7.501 L 5.173 7.485 5.173 7.069 C 5.172 6.484,5.137 6.373,4.917 6.247 C 4.792 6.175,4.560 6.166,4.440 6.229 " stroke="none" fill-rule="evenodd"></path></svg>