<svg width="16" height="16" viewBox="0 0 16 16" fill="none" xmlns="http://www.w3.org/2000/svg"><path d="M3.871 2.188 C 3.483 2.228,3.121 2.487,2.955 2.842 C 2.881 3.000,2.870 3.058,2.848 3.393 C 2.835 3.603,2.828 5.787,2.833 8.331 L 2.841 12.893 2.901 13.051 C 3.008 13.336,3.266 13.618,3.526 13.733 C 3.593 13.762,3.760 13.798,3.897 13.813 C 4.226 13.847,6.479 13.847,6.787 13.812 C 7.100 13.777,7.270 13.695,7.490 13.472 C 7.738 13.220,7.788 13.094,7.815 12.644 C 7.844 12.171,7.844 3.832,7.815 3.359 C 7.798 3.082,7.780 2.967,7.734 2.862 C 7.655 2.678,7.339 2.371,7.129 2.274 C 6.985 2.208,6.937 2.201,6.493 2.183 C 5.869 2.158,4.122 2.161,3.871 2.188 M6.779 3.221 C 6.830 3.273,6.830 12.727,6.779 12.779 C 6.728 12.830,3.939 12.830,3.888 12.779 C 3.860 12.751,3.852 11.908,3.846 8.325 C 3.843 5.895,3.849 3.751,3.860 3.560 L 3.880 3.213 3.973 3.196 C 4.025 3.187,4.669 3.181,5.405 3.183 C 6.464 3.186,6.751 3.194,6.779 3.221 M10.431 6.232 C 10.189 6.351,10.097 6.697,10.249 6.920 C 10.279 6.964,10.525 7.225,10.797 7.500 L 11.290 8.000 10.797 8.500 C 10.265 9.039,10.204 9.113,10.174 9.249 C 10.114 9.526,10.389 9.840,10.691 9.840 C 10.818 9.840,10.986 9.709,11.482 9.221 L 12.000 8.712 12.516 9.220 C 12.815 9.515,13.080 9.753,13.147 9.787 C 13.529 9.981,13.981 9.529,13.787 9.147 C 13.753 9.080,13.515 8.815,13.220 8.516 L 12.712 8.000 13.221 7.482 C 13.509 7.190,13.755 6.914,13.788 6.851 C 13.864 6.703,13.848 6.541,13.743 6.393 C 13.637 6.244,13.518 6.187,13.313 6.187 C 13.114 6.187,13.138 6.168,12.448 6.850 L 12.003 7.290 11.468 6.764 C 11.173 6.475,10.902 6.227,10.865 6.213 C 10.760 6.173,10.530 6.183,10.431 6.232 " stroke="none" fill-rule="evenodd"></path></svg>