<svg width="16" height="16" viewBox="0 0 16 16" fill="none" xmlns="http://www.w3.org/2000/svg"><path d="M7.555 3.522 C 5.391 3.653,3.547 4.834,1.997 7.080 C 1.738 7.455,1.552 7.770,1.521 7.887 C 1.479 8.045,1.520 8.176,1.701 8.467 C 2.702 10.072,3.916 11.248,5.213 11.868 C 6.759 12.607,8.544 12.701,10.160 12.129 C 11.122 11.789,11.972 11.230,12.791 10.397 C 13.361 9.817,13.834 9.212,14.299 8.467 C 14.556 8.054,14.556 7.946,14.299 7.533 C 13.830 6.782,13.362 6.183,12.778 5.590 C 11.694 4.487,10.455 3.819,9.067 3.589 C 8.861 3.555,7.970 3.484,7.920 3.497 C 7.913 3.500,7.748 3.511,7.555 3.522 M8.573 4.534 C 10.058 4.699,11.348 5.424,12.463 6.720 C 12.861 7.183,13.387 7.911,13.387 8.000 C 13.387 8.025,13.288 8.188,13.168 8.362 C 11.724 10.465,10.026 11.493,8.000 11.493 C 6.825 11.493,5.751 11.143,4.787 10.444 C 4.073 9.927,3.356 9.154,2.750 8.247 L 2.585 8.000 2.750 7.753 C 3.359 6.842,4.088 6.055,4.787 5.557 C 5.584 4.988,6.475 4.639,7.387 4.536 C 7.674 4.504,8.293 4.503,8.573 4.534 M7.744 6.189 C 7.355 6.235,7.013 6.407,6.710 6.709 C 6.486 6.933,6.345 7.160,6.248 7.453 C 6.187 7.638,6.178 7.711,6.178 8.000 C 6.178 8.289,6.187 8.362,6.248 8.547 C 6.345 8.840,6.486 9.067,6.709 9.291 C 6.933 9.514,7.160 9.655,7.453 9.752 C 7.638 9.813,7.711 9.822,8.000 9.822 C 8.289 9.822,8.362 9.813,8.547 9.752 C 8.840 9.655,9.067 9.514,9.291 9.291 C 9.514 9.067,9.655 8.840,9.752 8.547 C 9.813 8.362,9.822 8.289,9.822 8.000 C 9.822 7.712,9.813 7.638,9.752 7.453 C 9.468 6.590,8.658 6.080,7.744 6.189 M8.352 7.249 C 8.511 7.327,8.673 7.488,8.752 7.648 C 8.840 7.828,8.840 8.173,8.751 8.353 C 8.442 8.981,7.554 8.981,7.250 8.353 C 7.176 8.200,7.154 7.939,7.200 7.772 C 7.265 7.540,7.487 7.303,7.724 7.213 C 7.879 7.155,8.196 7.173,8.352 7.249 " stroke="none" fill-rule="evenodd" fill="black"></path></svg>