<svg width="16" height="16" viewBox="0 0 16 16" fill="none" xmlns="http://www.w3.org/2000/svg"><path d="M9.213 2.178 C 8.926 2.213,8.660 2.350,8.469 2.562 C 8.316 2.733,8.223 2.927,8.188 3.147 C 8.150 3.388,8.150 12.615,8.188 12.853 C 8.229 13.109,8.322 13.287,8.513 13.478 C 8.869 13.833,8.902 13.839,10.667 13.839 C 12.192 13.839,12.304 13.830,12.561 13.690 C 12.720 13.604,12.958 13.361,13.039 13.203 C 13.176 12.933,13.172 13.086,13.172 8.000 C 13.172 2.912,13.176 3.067,13.038 2.797 C 12.957 2.637,12.683 2.374,12.507 2.287 C 12.426 2.247,12.276 2.202,12.173 2.188 C 12.002 2.163,9.404 2.154,9.213 2.178 M12.111 3.217 C 12.158 3.260,12.160 3.443,12.160 7.995 C 12.160 12.363,12.157 12.733,12.116 12.778 C 12.074 12.824,11.994 12.827,10.671 12.827 C 9.406 12.827,9.266 12.822,9.222 12.783 C 9.175 12.740,9.173 12.557,9.173 8.005 C 9.173 3.637,9.177 3.267,9.217 3.222 C 9.259 3.176,9.339 3.173,10.662 3.173 C 11.928 3.173,12.067 3.178,12.111 3.217 M4.547 6.184 C 4.369 6.228,4.235 6.356,4.188 6.527 C 4.173 6.582,4.160 6.822,4.160 7.060 L 4.160 7.493 3.740 7.494 C 3.166 7.495,3.054 7.527,2.916 7.730 C 2.737 7.992,2.882 8.392,3.187 8.477 C 3.246 8.493,3.488 8.506,3.727 8.507 L 4.160 8.507 4.160 8.940 C 4.160 9.178,4.174 9.421,4.190 9.479 C 4.244 9.674,4.472 9.839,4.688 9.840 C 4.771 9.840,4.933 9.769,5.010 9.699 C 5.149 9.571,5.172 9.465,5.173 8.967 L 5.173 8.507 5.628 8.507 C 6.111 8.507,6.211 8.487,6.343 8.365 C 6.427 8.288,6.505 8.115,6.506 8.006 C 6.507 7.898,6.444 7.742,6.365 7.658 C 6.239 7.522,6.179 7.508,5.660 7.498 L 5.173 7.488 5.173 7.037 C 5.173 6.555,5.153 6.454,5.032 6.324 C 4.919 6.203,4.712 6.143,4.547 6.184 " stroke="none" fill-rule="evenodd" fill="black"></path></svg>