<svg width="16" height="16" viewBox="0 0 16 16" fill="none" xmlns="http://www.w3.org/2000/svg"><path d="M3.919 2.852 L 3.025 2.867 2.844 2.956 C 2.614 3.069,2.369 3.306,2.280 3.499 C 2.171 3.737,2.154 4.042,2.167 5.525 C 2.179 7.040,2.183 7.071,2.376 7.327 C 2.518 7.515,2.749 7.693,2.946 7.765 L 3.107 7.824 7.440 7.833 C 9.823 7.838,12.043 7.832,12.373 7.820 C 12.973 7.799,12.974 7.799,13.154 7.714 C 13.515 7.544,13.760 7.203,13.813 6.799 C 13.844 6.555,13.846 4.141,13.815 3.872 C 13.771 3.489,13.512 3.132,13.152 2.954 L 12.975 2.867 12.121 2.849 C 11.122 2.829,5.221 2.831,3.919 2.852 M12.779 3.888 C 12.830 3.939,12.830 6.728,12.779 6.779 C 12.727 6.830,3.273 6.830,3.221 6.779 C 3.194 6.751,3.185 6.470,3.179 5.459 C 3.175 4.752,3.181 4.107,3.193 4.027 L 3.214 3.880 3.454 3.864 C 3.585 3.856,5.730 3.850,8.219 3.851 C 11.894 3.853,12.751 3.860,12.779 3.888 M7.857 9.528 C 7.725 9.561,7.559 9.725,7.522 9.858 C 7.506 9.914,7.494 10.153,7.493 10.389 L 7.493 10.818 7.017 10.834 C 6.491 10.851,6.402 10.873,6.286 11.011 C 6.139 11.186,6.128 11.425,6.259 11.611 C 6.393 11.800,6.480 11.825,7.018 11.835 L 7.489 11.844 7.498 12.333 L 7.507 12.822 7.587 12.935 C 7.751 13.168,8.053 13.231,8.273 13.078 C 8.466 12.944,8.492 12.859,8.502 12.316 L 8.512 11.846 8.998 11.836 C 9.476 11.827,9.486 11.825,9.595 11.753 C 9.827 11.600,9.897 11.278,9.745 11.061 C 9.612 10.870,9.527 10.844,8.982 10.831 L 8.512 10.820 8.502 10.332 L 8.493 9.845 8.413 9.729 C 8.289 9.551,8.074 9.473,7.857 9.528 " stroke="none" fill-rule="evenodd"></path></svg>