<svg width="16" height="16" viewBox="0 0 16 16" fill="none" xmlns="http://www.w3.org/2000/svg"><path d="M2.801 2.549 C 2.679 2.602,2.618 2.659,2.557 2.779 C 2.509 2.872,2.507 2.958,2.507 4.333 C 2.507 5.709,2.509 5.794,2.557 5.888 C 2.615 6.001,2.671 6.055,2.792 6.117 C 2.861 6.152,2.968 6.160,3.358 6.160 L 3.838 6.160 3.846 8.100 L 3.853 10.040 3.935 10.268 C 4.124 10.795,4.539 11.210,5.065 11.398 L 5.293 11.480 6.540 11.493 L 7.787 11.507 7.198 12.093 C 6.875 12.416,6.586 12.725,6.558 12.779 C 6.465 12.959,6.511 13.235,6.657 13.363 C 6.796 13.486,7.022 13.529,7.192 13.465 C 7.287 13.429,9.399 11.323,9.453 11.210 C 9.500 11.112,9.506 10.916,9.465 10.808 C 9.428 10.709,7.349 8.624,7.221 8.558 C 7.041 8.465,6.764 8.511,6.637 8.657 C 6.506 8.806,6.468 9.045,6.549 9.208 C 6.573 9.255,6.864 9.567,7.196 9.901 L 7.800 10.509 6.640 10.501 L 5.480 10.493 5.332 10.424 C 5.146 10.337,5.000 10.190,4.910 10.000 L 4.840 9.853 4.832 8.007 L 4.824 6.160 9.313 6.160 C 13.633 6.160,13.804 6.158,13.893 6.111 C 13.944 6.083,14.022 6.016,14.066 5.961 L 14.147 5.862 14.147 4.335 L 14.147 2.809 14.072 2.711 C 14.031 2.657,13.950 2.589,13.893 2.560 C 13.790 2.507,13.729 2.507,8.341 2.508 C 3.551 2.509,2.882 2.514,2.801 2.549 M8.000 4.333 L 8.000 5.173 5.747 5.173 L 3.493 5.173 3.493 4.333 L 3.493 3.493 5.747 3.493 L 8.000 3.493 8.000 4.333 M13.173 4.333 L 13.173 5.173 11.093 5.173 L 9.013 5.173 9.013 4.333 L 9.013 3.493 11.093 3.493 L 13.173 3.493 13.173 4.333 M10.787 9.218 C 10.669 9.280,10.614 9.335,10.557 9.446 C 10.495 9.566,10.492 9.760,10.549 9.875 C 10.573 9.922,10.825 10.194,11.109 10.480 L 11.627 11.001 11.118 11.507 C 10.838 11.785,10.586 12.058,10.558 12.112 C 10.465 12.292,10.511 12.569,10.657 12.697 C 10.797 12.819,11.023 12.862,11.192 12.798 C 11.233 12.783,11.507 12.531,11.801 12.239 L 12.334 11.707 12.841 12.215 C 13.119 12.495,13.391 12.747,13.446 12.775 C 13.735 12.926,14.117 12.732,14.153 12.417 C 14.183 12.152,14.175 12.141,13.585 11.546 L 13.041 10.998 13.561 10.479 C 13.846 10.194,14.099 9.920,14.123 9.870 C 14.188 9.732,14.163 9.498,14.070 9.376 C 13.924 9.184,13.651 9.118,13.446 9.225 C 13.391 9.253,13.119 9.505,12.840 9.785 L 12.334 10.293 11.814 9.776 C 11.527 9.491,11.255 9.239,11.208 9.216 C 11.100 9.162,10.891 9.163,10.787 9.218 " stroke="none" fill-rule="evenodd" fill="black"></path></svg>