<svg width="16" height="16" viewBox="0 0 16 16" fill="none" xmlns="http://www.w3.org/2000/svg"><path d="M6.253 1.524 C 5.324 1.603,4.404 1.940,3.659 2.473 C 3.390 2.666,2.951 3.070,2.726 3.333 C 2.142 4.016,1.734 4.909,1.557 5.893 C 1.494 6.244,1.493 7.060,1.556 7.427 C 1.813 8.929,2.617 10.179,3.853 10.994 C 4.746 11.583,5.975 11.904,7.005 11.818 C 8.069 11.728,8.936 11.407,9.769 10.793 L 9.951 10.658 11.649 12.351 C 13.669 14.364,13.748 14.440,13.890 14.482 C 14.218 14.580,14.580 14.218,14.482 13.890 C 14.440 13.748,14.364 13.669,12.352 11.650 L 10.660 9.953 10.839 9.704 C 11.179 9.230,11.371 8.853,11.559 8.288 C 11.788 7.600,11.874 6.943,11.817 6.305 C 11.696 4.934,11.136 3.780,10.146 2.856 C 9.326 2.092,8.222 1.622,7.005 1.522 C 6.631 1.491,6.637 1.491,6.253 1.524 M7.114 2.535 C 8.729 2.711,10.111 3.828,10.609 5.360 C 10.775 5.871,10.787 5.955,10.787 6.667 C 10.787 7.376,10.778 7.442,10.609 7.969 C 10.172 9.337,8.999 10.402,7.568 10.730 C 7.072 10.844,6.369 10.852,5.879 10.750 C 4.828 10.530,3.956 9.981,3.335 9.145 C 2.776 8.395,2.523 7.619,2.524 6.653 C 2.524 5.979,2.642 5.449,2.922 4.863 C 3.209 4.262,3.756 3.619,4.288 3.257 C 5.135 2.681,6.128 2.428,7.114 2.535 " stroke="none" fill-rule="evenodd"></path></svg>