<svg width="16" height="16" viewBox="0 0 16 16" fill="none" xmlns="http://www.w3.org/2000/svg"><path d="M3.880 2.178 C 3.592 2.213,3.327 2.350,3.136 2.562 C 2.983 2.733,2.889 2.927,2.855 3.147 C 2.816 3.388,2.817 12.615,2.855 12.853 C 2.896 13.109,2.988 13.287,3.180 13.478 C 3.535 13.833,3.569 13.839,5.333 13.839 C 6.858 13.839,6.970 13.830,7.227 13.690 C 7.387 13.604,7.625 13.361,7.705 13.203 C 7.843 12.933,7.839 13.086,7.839 8.000 C 7.839 2.912,7.843 3.067,7.705 2.797 C 7.623 2.637,7.349 2.374,7.173 2.287 C 7.093 2.247,6.943 2.202,6.840 2.188 C 6.668 2.163,4.070 2.154,3.880 2.178 M6.778 3.217 C 6.825 3.260,6.827 3.443,6.827 7.995 C 6.827 12.363,6.823 12.733,6.783 12.778 C 6.741 12.824,6.661 12.827,5.338 12.827 C 4.072 12.827,3.933 12.822,3.889 12.783 C 3.842 12.740,3.840 12.557,3.840 8.005 C 3.840 3.637,3.843 3.267,3.884 3.222 C 3.926 3.176,4.006 3.173,5.329 3.173 C 6.594 3.173,6.734 3.178,6.778 3.217 M10.537 6.186 C 10.275 6.250,10.115 6.532,10.187 6.804 C 10.214 6.903,10.294 6.997,10.755 7.460 L 11.292 8.000 10.755 8.540 C 10.294 9.003,10.214 9.097,10.187 9.196 C 10.109 9.492,10.299 9.783,10.600 9.828 C 10.821 9.861,10.877 9.823,11.460 9.244 L 12.000 8.708 12.540 9.245 C 13.096 9.797,13.156 9.841,13.360 9.839 C 13.451 9.839,13.628 9.754,13.699 9.676 C 13.775 9.593,13.840 9.436,13.840 9.333 C 13.840 9.161,13.762 9.058,13.233 8.527 L 12.707 8.000 13.233 7.473 C 13.762 6.942,13.840 6.839,13.840 6.667 C 13.840 6.496,13.719 6.303,13.560 6.220 C 13.463 6.169,13.212 6.165,13.120 6.212 C 13.083 6.230,12.816 6.481,12.527 6.769 L 12.000 7.293 11.473 6.769 C 11.184 6.481,10.923 6.234,10.893 6.219 C 10.811 6.178,10.636 6.162,10.537 6.186 " stroke="none" fill-rule="evenodd" fill="black"></path></svg>