<svg width="16" height="16" viewBox="0 0 16 16" fill="none" xmlns="http://www.w3.org/2000/svg"><path d="M7.880 2.851 C 7.703 2.895,7.569 3.023,7.521 3.194 C 7.503 3.258,7.494 4.031,7.493 5.393 L 7.493 7.493 5.407 7.494 C 4.251 7.494,3.273 7.505,3.215 7.519 C 2.839 7.606,2.708 8.074,2.983 8.349 C 3.037 8.403,3.129 8.461,3.187 8.477 C 3.260 8.497,3.943 8.506,5.393 8.507 L 7.493 8.507 7.493 10.607 C 7.494 11.969,7.503 12.742,7.521 12.806 C 7.644 13.248,8.265 13.289,8.457 12.868 C 8.503 12.766,8.506 12.639,8.506 10.633 L 8.507 8.507 10.607 8.507 C 11.969 8.506,12.742 8.497,12.806 8.479 C 13.004 8.424,13.171 8.208,13.173 8.006 C 13.174 7.831,13.057 7.641,12.893 7.551 C 12.821 7.511,12.605 7.506,10.660 7.499 L 8.507 7.492 8.507 5.372 C 8.507 3.079,8.511 3.147,8.365 2.991 C 8.252 2.870,8.045 2.810,7.880 2.851 " stroke="none" fill-rule="evenodd" fill="black"></path></svg>