<svg width="16" height="16" viewBox="0 0 16 16" fill="none" xmlns="http://www.w3.org/2000/svg"><path d="M2.600 3.506 C 2.585 3.511,2.541 3.522,2.502 3.531 C 2.333 3.568,2.161 3.805,2.161 4.000 C 2.161 4.207,2.327 4.423,2.527 4.479 C 2.672 4.519,13.335 4.517,13.479 4.477 C 13.538 4.461,13.630 4.403,13.684 4.349 C 13.959 4.074,13.828 3.606,13.451 3.519 C 13.356 3.497,2.666 3.485,2.600 3.506 M2.600 7.506 C 2.585 7.511,2.541 7.522,2.502 7.531 C 2.333 7.568,2.161 7.805,2.161 8.000 C 2.161 8.207,2.327 8.423,2.527 8.479 C 2.671 8.519,9.336 8.517,9.479 8.477 C 9.538 8.461,9.630 8.403,9.684 8.349 C 9.959 8.074,9.828 7.606,9.451 7.519 C 9.356 7.497,2.665 7.485,2.600 7.506 M2.600 11.506 C 2.585 11.511,2.541 11.522,2.502 11.531 C 2.333 11.568,2.161 11.805,2.161 12.000 C 2.161 12.207,2.327 12.423,2.527 12.479 C 2.671 12.519,12.002 12.517,12.146 12.477 C 12.204 12.461,12.296 12.403,12.350 12.349 C 12.626 12.074,12.495 11.606,12.118 11.519 C 12.023 11.497,2.665 11.485,2.600 11.506 " stroke="none" fill-rule="evenodd" fill="black"></path></svg>