<svg width="16" height="16" viewBox="0 0 16 16" fill="none" xmlns="http://www.w3.org/2000/svg"><path d="M3.765 3.565 C 3.579 3.656,3.466 3.908,3.521 4.109 C 3.559 4.251,3.617 4.313,5.624 6.326 L 7.292 7.998 5.505 9.793 C 4.522 10.779,3.670 11.645,3.613 11.717 C 3.517 11.835,3.508 11.862,3.508 12.002 C 3.508 12.131,3.521 12.176,3.587 12.269 C 3.673 12.391,3.806 12.474,3.956 12.498 C 4.161 12.531,4.193 12.502,6.154 10.549 L 8.002 8.709 9.674 10.376 C 11.667 12.363,11.748 12.440,11.890 12.482 C 12.218 12.580,12.580 12.218,12.482 11.890 C 12.440 11.748,12.363 11.667,10.375 9.673 L 8.707 8.000 10.348 6.353 C 12.509 4.186,12.506 4.189,12.507 4.006 C 12.507 3.880,12.407 3.688,12.299 3.606 C 12.221 3.546,12.171 3.532,12.012 3.524 L 11.819 3.514 11.516 3.802 C 11.350 3.961,10.491 4.810,9.608 5.690 L 8.003 7.290 6.134 5.431 C 5.106 4.408,4.235 3.560,4.197 3.546 C 4.093 3.506,3.863 3.516,3.765 3.565 " stroke="none" fill-rule="evenodd"></path></svg>