<svg width="16" height="16" viewBox="0 0 16 16" fill="none" xmlns="http://www.w3.org/2000/svg"><path d="M3.240 2.531 C 2.821 2.546,2.780 2.551,2.700 2.609 C 2.515 2.740,2.521 2.690,2.512 4.213 C 2.507 4.969,2.511 5.649,2.520 5.725 C 2.542 5.903,2.623 6.025,2.773 6.100 C 2.882 6.156,2.927 6.160,3.366 6.160 L 3.840 6.160 3.840 8.083 L 3.840 10.007 3.908 10.196 C 4.020 10.507,4.135 10.695,4.351 10.920 C 4.584 11.164,4.759 11.278,5.088 11.403 L 5.320 11.492 6.320 11.493 C 6.870 11.493,7.419 11.501,7.540 11.511 L 7.760 11.528 7.163 12.134 C 6.724 12.580,6.558 12.766,6.533 12.840 C 6.495 12.955,6.513 13.137,6.574 13.254 C 6.671 13.443,7.010 13.551,7.199 13.454 C 7.337 13.382,9.404 11.308,9.453 11.192 C 9.511 11.054,9.504 10.884,9.437 10.774 C 9.405 10.723,8.904 10.205,8.323 9.623 C 7.169 8.468,7.183 8.479,6.917 8.519 C 6.613 8.565,6.425 8.899,6.543 9.183 C 6.563 9.231,6.853 9.548,7.186 9.888 L 7.793 10.507 6.647 10.507 L 5.502 10.507 5.340 10.426 C 5.153 10.332,4.978 10.155,4.900 9.979 C 4.847 9.858,4.845 9.799,4.832 8.008 L 4.819 6.161 9.323 6.154 L 13.827 6.147 13.924 6.086 C 13.977 6.053,14.052 5.985,14.090 5.935 L 14.160 5.844 14.160 4.341 L 14.160 2.839 14.094 2.742 C 14.058 2.689,13.983 2.617,13.928 2.583 L 13.827 2.520 8.760 2.518 C 5.973 2.517,3.489 2.523,3.240 2.531 M8.000 4.333 L 8.000 5.173 5.747 5.173 L 3.493 5.173 3.493 4.333 L 3.493 3.493 5.747 3.493 L 8.000 3.493 8.000 4.333 M13.173 4.333 L 13.173 5.173 11.093 5.173 L 9.013 5.173 9.013 4.333 L 9.013 3.493 11.093 3.493 L 13.173 3.493 13.173 4.333 M10.848 9.200 C 10.582 9.280,10.436 9.592,10.543 9.849 C 10.563 9.897,10.814 10.176,11.100 10.468 L 11.621 11.000 11.094 11.536 C 10.709 11.927,10.558 12.099,10.534 12.173 C 10.495 12.288,10.513 12.470,10.574 12.587 C 10.670 12.774,11.010 12.885,11.196 12.789 C 11.243 12.765,11.518 12.513,11.807 12.229 L 12.333 11.713 12.871 12.240 C 13.446 12.805,13.505 12.844,13.724 12.820 C 14.058 12.782,14.271 12.382,14.103 12.108 C 14.072 12.057,13.821 11.787,13.546 11.508 L 13.044 11.000 13.547 10.490 C 13.824 10.209,14.075 9.939,14.105 9.890 C 14.212 9.715,14.148 9.404,13.980 9.285 C 13.870 9.206,13.685 9.162,13.564 9.184 C 13.445 9.207,13.227 9.394,12.695 9.929 L 12.337 10.290 11.794 9.759 C 11.379 9.354,11.227 9.222,11.152 9.201 C 11.038 9.169,10.950 9.169,10.848 9.200 " stroke="none" fill-rule="evenodd"></path></svg>