<svg width="16" height="16" viewBox="0 0 16 16" fill="none" xmlns="http://www.w3.org/2000/svg"><path d="M3.919 2.852 L 3.025 2.867 2.844 2.956 C 2.614 3.069,2.369 3.306,2.280 3.499 C 2.171 3.737,2.154 4.042,2.167 5.525 C 2.179 7.040,2.183 7.071,2.376 7.327 C 2.518 7.515,2.749 7.693,2.946 7.765 L 3.107 7.824 7.440 7.833 C 9.823 7.838,12.043 7.832,12.373 7.820 C 12.973 7.799,12.974 7.799,13.154 7.714 C 13.515 7.544,13.760 7.203,13.813 6.799 C 13.844 6.555,13.846 4.141,13.815 3.872 C 13.771 3.489,13.512 3.132,13.152 2.954 L 12.975 2.867 12.121 2.849 C 11.122 2.829,5.221 2.831,3.919 2.852 M12.779 3.888 C 12.830 3.939,12.830 6.728,12.779 6.779 C 12.727 6.830,3.273 6.830,3.221 6.779 C 3.194 6.751,3.185 6.470,3.179 5.459 C 3.175 4.752,3.181 4.107,3.193 4.027 L 3.214 3.880 3.454 3.864 C 3.585 3.856,5.730 3.850,8.219 3.851 C 11.894 3.853,12.751 3.860,12.779 3.888 M6.533 10.192 C 6.332 10.248,6.160 10.465,6.160 10.663 C 6.160 10.821,6.269 10.965,6.780 11.484 L 7.288 12.000 6.780 12.516 C 6.485 12.815,6.247 13.080,6.213 13.147 C 6.056 13.455,6.315 13.829,6.684 13.825 C 6.862 13.824,6.903 13.793,7.513 13.190 L 8.000 12.710 8.500 13.203 C 9.039 13.735,9.113 13.796,9.249 13.826 C 9.554 13.892,9.892 13.554,9.826 13.249 C 9.796 13.113,9.735 13.039,9.203 12.500 L 8.710 12.000 9.190 11.513 C 9.806 10.889,9.826 10.863,9.826 10.664 C 9.826 10.536,9.812 10.491,9.746 10.398 C 9.637 10.244,9.520 10.187,9.313 10.187 C 9.114 10.187,9.138 10.168,8.448 10.850 L 8.003 11.290 7.456 10.753 C 6.987 10.293,6.894 10.214,6.808 10.199 C 6.752 10.190,6.689 10.178,6.667 10.174 C 6.645 10.169,6.585 10.177,6.533 10.192 " stroke="none" fill-rule="evenodd"></path></svg>