<svg width="16" height="16" viewBox="0 0 16 16" fill="none" xmlns="http://www.w3.org/2000/svg"><path d="M7.876 0.856 C 7.764 0.888,7.228 1.389,6.324 2.305 C 5.539 3.101,5.474 3.187,5.502 3.395 C 5.521 3.540,5.641 3.702,5.787 3.780 C 5.942 3.863,6.121 3.849,6.263 3.742 C 6.316 3.702,6.614 3.418,6.925 3.111 L 7.491 2.553 7.499 4.021 L 7.507 5.489 7.587 5.602 C 7.694 5.755,7.870 5.848,8.021 5.832 C 8.179 5.815,8.369 5.691,8.438 5.560 C 8.492 5.456,8.494 5.414,8.501 4.004 L 8.509 2.555 9.108 3.145 C 9.767 3.793,9.859 3.859,10.061 3.829 C 10.418 3.775,10.617 3.350,10.414 3.076 C 10.291 2.910,8.314 0.944,8.227 0.900 C 8.115 0.845,7.975 0.827,7.876 0.856 M2.566 7.520 C 2.283 7.580,2.112 7.852,2.187 8.120 C 2.232 8.282,2.353 8.418,2.488 8.459 C 2.577 8.486,3.709 8.493,8.040 8.493 L 13.480 8.493 13.580 8.431 C 13.917 8.222,13.908 7.745,13.564 7.568 L 13.453 7.511 8.067 7.503 C 4.888 7.499,2.633 7.505,2.566 7.520 M7.868 10.193 C 7.741 10.227,7.642 10.302,7.569 10.420 L 7.507 10.520 7.499 11.985 L 7.491 13.450 6.992 12.957 C 6.718 12.686,6.425 12.402,6.342 12.325 C 6.192 12.189,6.187 12.187,6.021 12.187 C 5.815 12.187,5.697 12.243,5.590 12.393 C 5.477 12.553,5.467 12.710,5.560 12.872 C 5.655 13.039,7.682 15.064,7.817 15.128 C 7.930 15.181,8.000 15.184,8.144 15.144 C 8.228 15.121,8.406 14.958,9.114 14.258 C 10.216 13.167,10.469 12.891,10.493 12.750 C 10.528 12.540,10.426 12.335,10.239 12.239 C 10.126 12.182,9.915 12.169,9.799 12.214 C 9.760 12.228,9.460 12.506,9.131 12.831 C 8.802 13.156,8.532 13.417,8.530 13.411 C 8.529 13.405,8.520 12.752,8.510 11.959 L 8.492 10.519 8.430 10.419 C 8.320 10.241,8.066 10.139,7.868 10.193 " stroke="none" fill-rule="evenodd"></path></svg>