<svg width="16" height="16" viewBox="0 0 16 16" fill="none" xmlns="http://www.w3.org/2000/svg"><path d="M1.867 1.525 C 1.730 1.563,1.613 1.663,1.549 1.794 C 1.469 1.960,1.477 2.073,1.579 2.229 C 1.626 2.301,2.214 2.913,2.886 3.589 L 4.107 4.818 3.981 4.908 C 3.632 5.159,2.721 6.102,2.347 6.600 C 1.902 7.193,1.554 7.743,1.511 7.923 C 1.471 8.089,1.646 8.424,2.124 9.096 C 3.025 10.367,4.106 11.335,5.213 11.865 C 6.127 12.303,6.993 12.493,8.067 12.490 C 9.013 12.489,9.811 12.311,10.715 11.901 L 11.043 11.753 12.315 13.018 C 13.014 13.713,13.641 14.326,13.707 14.378 C 13.855 14.496,13.967 14.523,14.128 14.478 C 14.380 14.407,14.552 14.123,14.483 13.892 C 14.438 13.744,13.172 12.457,7.181 6.475 C 2.647 1.948,2.241 1.549,2.145 1.533 C 2.087 1.523,2.022 1.512,2.000 1.507 C 1.978 1.502,1.918 1.511,1.867 1.525 M7.693 3.510 C 7.062 3.557,6.639 3.632,6.498 3.724 C 6.229 3.899,6.231 4.341,6.503 4.521 C 6.647 4.616,6.756 4.625,7.133 4.575 C 7.607 4.513,8.154 4.495,8.493 4.531 C 9.866 4.678,10.994 5.234,12.041 6.280 C 12.247 6.485,12.532 6.800,12.676 6.980 C 12.927 7.294,13.387 7.951,13.387 7.995 C 13.387 8.081,12.872 8.795,12.440 9.307 C 12.161 9.637,12.081 9.774,12.081 9.920 C 12.081 10.104,12.218 10.310,12.382 10.372 C 12.499 10.416,12.685 10.405,12.800 10.347 C 13.046 10.221,14.034 8.954,14.390 8.307 C 14.562 7.994,14.526 7.863,14.091 7.213 C 13.487 6.311,12.797 5.540,12.069 4.954 C 11.298 4.332,10.361 3.873,9.438 3.665 C 8.989 3.564,8.070 3.482,7.693 3.510 M5.614 6.322 L 6.395 7.098 6.332 7.236 C 6.223 7.475,6.185 7.672,6.185 8.000 C 6.185 8.561,6.319 8.883,6.718 9.282 C 7.117 9.681,7.439 9.815,8.000 9.815 C 8.328 9.815,8.525 9.777,8.765 9.668 L 8.903 9.605 9.571 10.281 C 9.939 10.652,10.240 10.974,10.240 10.995 C 10.240 11.060,9.615 11.277,9.082 11.399 C 8.624 11.504,7.632 11.519,7.133 11.429 C 5.390 11.114,4.069 10.157,2.762 8.261 L 2.583 8.001 2.809 7.674 C 3.127 7.212,3.314 6.973,3.645 6.608 C 4.016 6.197,4.727 5.550,4.810 5.547 C 4.823 5.547,5.184 5.896,5.614 6.322 M8.080 8.806 C 8.080 8.842,7.877 8.828,7.734 8.782 C 7.442 8.688,7.216 8.388,7.184 8.053 L 7.167 7.880 7.624 8.333 C 7.875 8.582,8.080 8.795,8.080 8.806 " stroke="none" fill-rule="evenodd"></path></svg>