<svg width="16" height="16" viewBox="0 0 16 16" fill="none" xmlns="http://www.w3.org/2000/svg"><path d="M3.087 1.521 C 2.407 1.600,1.812 2.100,1.579 2.787 L 1.507 3.000 1.499 6.507 C 1.493 8.967,1.500 10.081,1.521 10.240 C 1.590 10.769,1.929 11.289,2.379 11.555 C 2.506 11.630,2.574 11.653,2.666 11.653 C 3.027 11.651,3.263 11.309,3.134 10.972 C 3.099 10.879,3.048 10.821,2.914 10.719 C 2.818 10.646,2.704 10.539,2.660 10.479 C 2.499 10.261,2.507 10.440,2.507 6.654 C 2.507 2.675,2.484 3.032,2.758 2.758 C 3.032 2.484,2.675 2.507,6.659 2.507 C 9.513 2.507,10.150 2.513,10.221 2.543 C 10.308 2.579,10.411 2.687,10.569 2.906 C 10.784 3.204,11.083 3.250,11.333 3.023 C 11.611 2.773,11.523 2.406,11.078 1.954 C 10.826 1.698,10.548 1.561,10.198 1.521 C 9.916 1.489,3.364 1.489,3.087 1.521 M6.200 4.187 C 5.920 4.218,5.692 4.284,5.442 4.407 C 4.849 4.698,4.408 5.242,4.233 5.896 L 4.173 6.120 4.173 9.333 L 4.173 12.547 4.233 12.771 C 4.451 13.589,5.077 14.215,5.896 14.434 L 6.120 14.493 9.333 14.493 L 12.547 14.493 12.771 14.434 C 13.589 14.215,14.215 13.589,14.434 12.771 L 14.493 12.547 14.493 9.333 L 14.493 6.120 14.433 5.893 C 14.217 5.081,13.585 4.451,12.770 4.235 L 12.547 4.176 9.467 4.171 C 7.773 4.168,6.303 4.175,6.200 4.187 M12.546 5.214 C 12.632 5.237,12.764 5.288,12.838 5.327 C 13.011 5.420,13.247 5.655,13.339 5.829 C 13.499 6.128,13.493 5.995,13.493 9.333 C 13.493 12.667,13.499 12.543,13.341 12.832 C 13.183 13.122,12.914 13.341,12.592 13.440 C 12.426 13.492,12.338 13.493,9.335 13.493 C 5.964 13.493,6.145 13.501,5.828 13.341 C 5.663 13.257,5.422 13.016,5.327 12.838 C 5.168 12.539,5.173 12.671,5.173 9.342 C 5.173 7.187,5.182 6.255,5.203 6.155 C 5.297 5.714,5.680 5.320,6.120 5.211 C 6.222 5.186,6.975 5.177,9.321 5.176 C 11.996 5.174,12.409 5.179,12.546 5.214 " stroke="none" fill-rule="evenodd" fill="black"></path></svg>