<svg width="16" height="16" viewBox="0 0 16 16" fill="none" xmlns="http://www.w3.org/2000/svg"><path d="M7.868 2.193 C 7.741 2.227,7.642 2.302,7.569 2.420 L 7.507 2.520 7.499 5.319 L 7.492 8.118 6.713 7.345 C 6.284 6.919,5.840 6.483,5.727 6.376 L 5.520 6.181 5.324 6.191 C 5.160 6.199,5.113 6.213,5.031 6.275 C 4.918 6.361,4.862 6.458,4.838 6.607 C 4.802 6.832,4.828 6.864,6.261 8.293 C 6.990 9.021,7.643 9.661,7.711 9.716 C 7.855 9.832,7.968 9.858,8.134 9.813 C 8.242 9.785,8.387 9.647,9.655 8.377 C 11.170 6.861,11.197 6.829,11.162 6.605 C 11.138 6.453,11.035 6.305,10.908 6.241 C 10.792 6.182,10.583 6.169,10.466 6.214 C 10.427 6.229,9.976 6.657,9.464 7.165 C 8.952 7.673,8.532 8.084,8.530 8.078 C 8.529 8.072,8.520 6.825,8.510 5.307 C 8.493 2.579,8.492 2.545,8.437 2.440 C 8.339 2.251,8.075 2.137,7.868 2.193 M2.581 12.852 C 2.370 12.891,2.218 13.039,2.173 13.249 C 2.129 13.458,2.288 13.732,2.488 13.793 C 2.577 13.820,3.706 13.827,8.027 13.827 C 13.295 13.827,13.456 13.825,13.555 13.776 C 13.757 13.676,13.878 13.410,13.812 13.209 C 13.763 13.058,13.689 12.966,13.564 12.902 L 13.453 12.844 8.080 12.837 C 5.125 12.833,2.650 12.840,2.581 12.852 " stroke="none" fill-rule="evenodd"></path></svg>