<svg width="16" height="16" viewBox="0 0 16 16" fill="none" xmlns="http://www.w3.org/2000/svg"><path d="M1.933 1.506 C 1.919 1.511,1.875 1.522,1.835 1.531 C 1.678 1.566,1.495 1.802,1.494 1.973 C 1.493 2.195,1.490 2.192,2.829 3.534 L 4.107 4.814 3.913 4.960 C 3.630 5.174,2.822 5.991,2.530 6.360 C 2.059 6.956,1.573 7.691,1.521 7.887 C 1.479 8.045,1.520 8.176,1.701 8.467 C 2.678 10.033,3.880 11.211,5.133 11.828 C 5.938 12.225,6.667 12.419,7.593 12.484 C 8.691 12.560,9.746 12.361,10.755 11.886 L 11.043 11.750 12.395 13.100 C 13.606 14.308,13.759 14.452,13.863 14.480 C 14.244 14.580,14.580 14.244,14.480 13.863 C 14.452 13.757,13.930 13.227,8.378 7.672 C 5.039 4.330,2.277 1.581,2.240 1.561 C 2.170 1.524,1.979 1.490,1.933 1.506 M7.533 3.522 C 7.164 3.545,6.722 3.615,6.588 3.670 C 6.384 3.755,6.282 3.929,6.299 4.162 C 6.312 4.346,6.400 4.479,6.566 4.563 C 6.688 4.625,6.746 4.624,7.320 4.550 C 7.688 4.502,8.226 4.495,8.573 4.534 C 10.371 4.734,11.869 5.746,13.168 7.638 C 13.288 7.812,13.387 7.975,13.387 8.000 C 13.387 8.099,12.781 8.926,12.356 9.407 C 12.116 9.678,12.068 9.781,12.086 9.975 C 12.116 10.280,12.408 10.473,12.711 10.386 C 12.832 10.351,12.878 10.315,13.076 10.100 C 13.613 9.514,14.405 8.393,14.479 8.113 C 14.521 7.955,14.480 7.824,14.299 7.533 C 13.830 6.781,13.360 6.181,12.778 5.590 C 11.684 4.480,10.461 3.820,9.067 3.589 C 8.847 3.552,8.007 3.487,7.893 3.497 C 7.871 3.500,7.709 3.510,7.533 3.522 M5.618 6.325 L 6.396 7.103 6.348 7.198 C 6.225 7.439,6.174 7.681,6.176 8.013 C 6.179 8.384,6.245 8.636,6.419 8.931 C 6.548 9.149,6.851 9.452,7.069 9.581 C 7.364 9.755,7.616 9.821,7.987 9.824 C 8.319 9.826,8.561 9.775,8.802 9.652 L 8.897 9.604 9.588 10.295 C 10.052 10.759,10.270 10.994,10.252 11.012 C 10.168 11.096,9.370 11.348,8.928 11.430 C 8.622 11.487,7.763 11.509,7.413 11.468 C 5.611 11.262,4.132 10.256,2.817 8.342 L 2.585 8.003 2.819 7.657 C 3.184 7.119,3.472 6.768,3.920 6.317 C 4.299 5.935,4.748 5.547,4.813 5.547 C 4.828 5.547,5.190 5.897,5.618 6.325 M7.978 8.821 C 7.794 8.833,7.582 8.746,7.433 8.599 C 7.270 8.438,7.191 8.269,7.178 8.053 L 7.168 7.880 7.638 8.347 L 8.108 8.813 7.978 8.821 " stroke="none" fill-rule="evenodd" fill="black"></path></svg>