<svg width="16" height="16" viewBox="0 0 16 16" fill="none" xmlns="http://www.w3.org/2000/svg"><path d="M7.933 0.839 C 7.919 0.844,7.871 0.856,7.827 0.866 C 7.719 0.889,5.618 2.977,5.544 3.133 C 5.425 3.390,5.547 3.685,5.820 3.799 C 5.936 3.847,6.003 3.850,6.147 3.811 C 6.234 3.787,6.363 3.673,6.873 3.165 L 7.493 2.548 7.494 3.987 C 7.494 5.330,7.498 5.434,7.544 5.533 C 7.571 5.592,7.622 5.666,7.657 5.699 C 7.734 5.769,7.895 5.840,7.979 5.840 C 8.195 5.839,8.423 5.674,8.477 5.479 C 8.497 5.408,8.506 4.909,8.507 3.961 L 8.507 2.548 9.127 3.164 C 9.796 3.829,9.842 3.862,10.067 3.828 C 10.368 3.783,10.558 3.492,10.480 3.196 C 10.453 3.093,10.331 2.962,9.391 2.019 C 8.809 1.435,8.297 0.935,8.253 0.908 C 8.176 0.860,7.987 0.820,7.933 0.839 M2.600 7.506 C 2.585 7.511,2.541 7.522,2.502 7.531 C 2.333 7.568,2.161 7.805,2.161 8.000 C 2.161 8.114,2.238 8.286,2.324 8.365 C 2.487 8.516,2.112 8.507,7.979 8.507 C 11.832 8.506,13.404 8.498,13.479 8.477 C 13.538 8.461,13.630 8.403,13.684 8.349 C 13.959 8.074,13.828 7.606,13.451 7.519 C 13.356 7.497,2.666 7.485,2.600 7.506 M7.933 10.173 C 7.919 10.178,7.875 10.189,7.835 10.198 C 7.732 10.220,7.600 10.342,7.543 10.466 C 7.498 10.566,7.494 10.674,7.494 12.013 L 7.493 13.452 6.887 12.849 C 6.553 12.518,6.250 12.231,6.213 12.212 C 6.122 12.165,5.870 12.169,5.773 12.220 C 5.612 12.304,5.493 12.497,5.494 12.672 C 5.495 12.861,5.575 12.955,6.670 14.044 C 7.522 14.890,7.768 15.121,7.849 15.147 C 7.963 15.183,8.126 15.166,8.236 15.108 C 8.275 15.087,8.789 14.587,9.378 13.995 C 10.330 13.040,10.453 12.907,10.480 12.804 C 10.566 12.477,10.339 12.178,10.005 12.178 C 9.918 12.178,9.819 12.196,9.773 12.221 C 9.729 12.244,9.429 12.528,9.107 12.852 L 8.520 13.441 8.507 11.980 C 8.494 10.569,8.491 10.517,8.439 10.427 C 8.368 10.306,8.201 10.194,8.067 10.177 C 8.008 10.169,7.948 10.167,7.933 10.173 " stroke="none" fill-rule="evenodd" fill="black"></path></svg>