<svg width="16" height="16" viewBox="0 0 16 16" fill="none" xmlns="http://www.w3.org/2000/svg"><path d="M7.880 2.851 C 7.703 2.895,7.569 3.023,7.521 3.194 C 7.503 3.260,7.494 4.649,7.493 7.373 L 7.493 11.452 6.540 10.501 C 5.875 9.838,5.562 9.544,5.507 9.529 C 5.384 9.497,5.190 9.510,5.101 9.556 C 4.862 9.680,4.766 9.998,4.894 10.239 C 4.914 10.276,5.564 10.939,6.338 11.711 C 7.787 13.156,7.807 13.173,8.000 13.173 C 8.193 13.173,8.213 13.156,9.663 11.711 C 10.614 10.763,11.089 10.272,11.122 10.200 C 11.207 10.019,11.172 9.807,11.032 9.658 C 10.909 9.526,10.697 9.476,10.493 9.529 C 10.438 9.544,10.125 9.838,9.460 10.501 L 8.507 11.452 8.507 7.352 C 8.507 2.898,8.515 3.151,8.365 2.991 C 8.252 2.870,8.045 2.810,7.880 2.851 " stroke="none" fill-rule="evenodd" fill="black"></path></svg>