<svg width="16" height="16" viewBox="0 0 16 16" fill="none" xmlns="http://www.w3.org/2000/svg"><path d="M7.933 2.173 C 7.919 2.178,7.875 2.189,7.835 2.198 C 7.732 2.220,7.600 2.342,7.543 2.466 C 7.497 2.568,7.494 2.714,7.494 5.346 L 7.493 8.119 6.553 7.183 C 6.036 6.668,5.583 6.231,5.547 6.212 C 5.455 6.165,5.203 6.169,5.107 6.220 C 4.867 6.345,4.766 6.629,4.878 6.867 C 4.912 6.939,5.385 7.429,6.337 8.377 C 7.465 9.500,7.767 9.787,7.849 9.813 C 7.963 9.849,8.126 9.833,8.236 9.774 C 8.275 9.754,8.939 9.103,9.711 8.328 C 10.970 7.066,11.119 6.908,11.146 6.804 C 11.232 6.477,11.005 6.178,10.672 6.178 C 10.584 6.178,10.486 6.196,10.440 6.221 C 10.396 6.244,9.946 6.678,9.440 7.185 L 8.520 8.107 8.507 5.313 C 8.494 2.558,8.493 2.519,8.439 2.427 C 8.368 2.306,8.201 2.194,8.067 2.177 C 8.008 2.169,7.948 2.167,7.933 2.173 M2.600 12.840 C 2.585 12.845,2.541 12.856,2.502 12.864 C 2.333 12.901,2.161 13.138,2.161 13.333 C 2.161 13.448,2.238 13.620,2.324 13.699 C 2.487 13.849,2.112 13.840,7.979 13.840 C 11.832 13.840,13.404 13.831,13.479 13.810 C 13.538 13.794,13.630 13.737,13.684 13.683 C 13.959 13.407,13.828 12.940,13.451 12.852 C 13.356 12.830,2.666 12.818,2.600 12.840 " stroke="none" fill-rule="evenodd" fill="black"></path></svg>