<svg width="16" height="16" viewBox="0 0 16 16" fill="none" xmlns="http://www.w3.org/2000/svg"><path d="M7.787 2.882 C 7.712 2.913,5.648 4.959,5.173 5.474 C 4.916 5.751,4.855 5.834,4.840 5.918 C 4.786 6.237,5.097 6.547,5.417 6.493 C 5.552 6.470,5.630 6.400,6.659 5.376 L 7.492 4.549 7.499 8.681 C 7.505 12.122,7.513 12.824,7.543 12.880 C 7.659 13.091,7.898 13.203,8.112 13.145 C 8.260 13.105,8.355 13.037,8.431 12.913 L 8.493 12.813 8.501 8.683 L 8.508 4.552 9.407 5.444 C 9.902 5.935,10.353 6.371,10.411 6.414 C 10.497 6.479,10.540 6.492,10.664 6.492 C 10.849 6.492,10.968 6.428,11.079 6.270 C 11.146 6.176,11.159 6.131,11.159 6.002 C 11.159 5.861,11.149 5.835,11.053 5.717 C 10.919 5.552,8.760 3.374,8.443 3.085 L 8.207 2.868 8.030 2.861 C 7.933 2.857,7.824 2.866,7.787 2.882 " stroke="none" fill-rule="evenodd"></path></svg>