<svg width="16" height="16" viewBox="0 0 16 16" fill="none" xmlns="http://www.w3.org/2000/svg"><path d="M2.600 3.506 C 2.585 3.511,2.541 3.522,2.502 3.531 C 2.333 3.568,2.161 3.805,2.161 4.000 C 2.161 4.207,2.327 4.423,2.527 4.479 C 2.672 4.519,13.335 4.517,13.479 4.477 C 13.538 4.461,13.630 4.403,13.684 4.349 C 13.959 4.074,13.828 3.606,13.451 3.519 C 13.356 3.497,2.666 3.485,2.600 3.506 M6.600 7.506 C 6.585 7.511,6.541 7.522,6.502 7.531 C 6.333 7.568,6.161 7.805,6.161 8.000 C 6.161 8.207,6.327 8.423,6.527 8.479 C 6.671 8.519,13.336 8.517,13.479 8.477 C 13.538 8.461,13.630 8.403,13.684 8.349 C 13.959 8.074,13.828 7.606,13.451 7.519 C 13.356 7.497,6.665 7.485,6.600 7.506 M3.933 11.506 C 3.919 11.511,3.875 11.522,3.835 11.531 C 3.666 11.568,3.495 11.805,3.495 12.000 C 3.495 12.207,3.660 12.423,3.861 12.479 C 4.005 12.519,13.335 12.517,13.479 12.477 C 13.538 12.461,13.630 12.403,13.684 12.349 C 13.959 12.074,13.828 11.606,13.451 11.519 C 13.356 11.497,3.999 11.485,3.933 11.506 " stroke="none" fill-rule="evenodd" fill="black"></path></svg>