<svg width="15" height="15" viewBox="0 0 15 15" fill="none" xmlns="http://www.w3.org/2000/svg"><path d="M4.737 2.026 C 3.109 2.042,3.191 2.033,2.754 2.239 C 2.448 2.383,2.251 2.527,2.023 2.770 C 1.773 3.037,1.613 3.311,1.483 3.697 L 1.377 4.013 1.376 6.863 L 1.375 9.714 1.452 9.963 C 1.549 10.276,1.764 10.694,1.923 10.880 C 2.251 11.264,2.657 11.524,3.175 11.680 C 3.322 11.725,3.439 11.731,4.375 11.743 L 5.413 11.756 6.305 12.641 C 7.230 13.558,7.309 13.623,7.503 13.624 C 7.555 13.625,7.652 13.595,7.728 13.555 C 7.835 13.499,7.874 13.460,7.930 13.353 C 8.013 13.194,8.018 13.079,7.948 12.926 C 7.878 12.770,6.048 10.942,5.850 10.829 L 5.713 10.750 4.713 10.749 C 4.163 10.749,3.629 10.738,3.526 10.724 C 3.111 10.670,2.710 10.363,2.497 9.935 C 2.427 9.794,2.420 9.752,2.399 9.397 C 2.370 8.897,2.370 4.853,2.399 4.353 C 2.420 3.993,2.427 3.958,2.502 3.803 C 2.614 3.574,2.950 3.239,3.179 3.127 L 3.345 3.045 3.916 3.021 C 4.251 3.007,5.943 3.000,8.000 3.006 L 11.513 3.015 11.677 3.070 C 12.014 3.182,12.335 3.475,12.506 3.825 C 12.583 3.983,12.586 4.001,12.603 4.438 C 12.613 4.685,12.622 5.508,12.623 6.266 L 12.625 7.644 12.706 7.764 C 12.810 7.917,12.941 7.987,13.125 7.987 C 13.309 7.987,13.440 7.917,13.544 7.764 L 13.625 7.644 13.625 5.840 L 13.625 4.036 13.547 3.787 C 13.461 3.510,13.289 3.148,13.161 2.973 C 13.028 2.792,12.705 2.497,12.496 2.367 C 12.191 2.177,11.917 2.078,11.618 2.050 C 11.316 2.022,6.811 2.007,4.737 2.026 M5.350 5.148 C 5.013 5.157,4.794 5.173,4.763 5.192 C 4.620 5.275,4.500 5.475,4.500 5.632 C 4.500 5.769,4.613 5.962,4.743 6.049 L 4.859 6.125 7.500 6.125 L 10.141 6.125 10.252 6.051 C 10.421 5.938,10.484 5.827,10.485 5.642 C 10.486 5.447,10.431 5.331,10.292 5.232 L 10.188 5.157 8.037 5.145 C 6.855 5.139,5.646 5.140,5.350 5.148 M5.225 7.648 C 4.984 7.656,4.792 7.675,4.763 7.692 C 4.620 7.775,4.500 7.975,4.500 8.132 C 4.500 8.269,4.613 8.462,4.743 8.549 L 4.859 8.625 6.876 8.625 L 8.894 8.625 9.014 8.544 C 9.167 8.440,9.237 8.309,9.236 8.125 C 9.235 7.948,9.175 7.826,9.042 7.732 L 8.938 7.657 7.288 7.645 C 6.380 7.638,5.452 7.639,5.225 7.648 M11.300 9.575 C 11.091 9.631,10.712 9.805,10.531 9.929 C 10.359 10.046,10.086 10.314,9.960 10.490 C 9.828 10.675,9.674 10.979,9.601 11.200 C 9.488 11.539,9.492 12.230,9.608 12.566 C 9.686 12.789,9.820 13.059,9.950 13.250 C 10.309 13.779,11.000 14.180,11.626 14.222 C 12.271 14.265,12.698 14.160,13.187 13.839 C 13.927 13.353,14.331 12.478,14.225 11.590 C 14.131 10.800,13.642 10.116,12.910 9.753 C 12.551 9.575,12.417 9.545,11.925 9.534 C 11.546 9.526,11.462 9.531,11.300 9.575 M12.344 10.577 L 12.426 10.613 11.515 11.523 L 10.604 12.433 10.566 12.298 C 10.399 11.692,10.614 11.084,11.117 10.742 C 11.398 10.550,11.503 10.523,11.913 10.533 C 12.144 10.538,12.290 10.553,12.344 10.577 M13.227 11.694 C 13.249 11.867,13.249 11.960,13.225 12.099 C 13.143 12.584,12.758 13.027,12.275 13.191 C 12.090 13.253,11.673 13.253,11.465 13.191 L 11.317 13.146 12.227 12.235 L 13.138 11.324 13.168 11.397 C 13.185 11.437,13.211 11.571,13.227 11.694 " stroke="none" fill-rule="evenodd"></path></svg>