<svg width="15" height="15" viewBox="0 0 15 15" fill="none" xmlns="http://www.w3.org/2000/svg"><path d="M3.420 2.027 C 3.009 2.088,2.589 2.271,2.262 2.532 C 1.883 2.833,1.579 3.306,1.445 3.800 L 1.388 4.013 1.388 6.875 L 1.388 9.738 1.445 9.950 C 1.525 10.247,1.743 10.674,1.926 10.892 C 2.228 11.252,2.693 11.548,3.163 11.678 C 3.351 11.730,3.423 11.734,4.388 11.743 L 5.413 11.753 6.325 12.662 C 7.276 13.609,7.296 13.625,7.500 13.625 C 7.692 13.625,7.748 13.584,8.283 13.054 C 8.570 12.770,8.832 12.490,8.866 12.432 C 9.000 12.206,8.919 11.897,8.691 11.763 C 8.561 11.687,8.343 11.677,8.218 11.741 C 8.174 11.763,7.994 11.923,7.818 12.096 L 7.499 12.411 6.718 11.632 C 6.145 11.059,5.908 10.839,5.825 10.802 C 5.718 10.753,5.663 10.751,4.650 10.750 C 3.480 10.749,3.406 10.742,3.118 10.597 C 2.919 10.496,2.639 10.216,2.529 10.007 C 2.372 9.708,2.376 9.778,2.376 6.875 C 2.376 3.972,2.372 4.042,2.529 3.743 C 2.635 3.541,2.916 3.260,3.118 3.154 C 3.424 2.994,3.225 3.001,7.500 3.001 C 10.781 3.001,11.414 3.006,11.557 3.037 C 11.997 3.130,12.395 3.490,12.561 3.947 C 12.611 4.083,12.613 4.148,12.625 6.188 L 12.638 8.287 12.697 8.383 C 12.729 8.435,12.802 8.509,12.858 8.545 C 12.942 8.601,12.987 8.613,13.125 8.613 C 13.263 8.613,13.308 8.601,13.392 8.545 C 13.448 8.509,13.521 8.435,13.553 8.383 L 13.613 8.287 13.613 6.150 L 13.613 4.013 13.555 3.800 C 13.475 3.504,13.280 3.115,13.099 2.890 C 12.845 2.575,12.455 2.294,12.075 2.153 C 11.676 2.005,11.990 2.015,7.588 2.010 C 5.374 2.007,3.499 2.015,3.420 2.027 M4.863 5.143 C 4.755 5.171,4.604 5.301,4.549 5.414 C 4.442 5.636,4.528 5.920,4.742 6.053 L 4.838 6.113 7.500 6.113 L 10.163 6.113 10.258 6.053 C 10.310 6.021,10.384 5.948,10.420 5.892 C 10.476 5.808,10.488 5.763,10.488 5.627 C 10.488 5.429,10.429 5.319,10.269 5.210 L 10.163 5.138 7.538 5.134 C 6.094 5.132,4.890 5.136,4.863 5.143 M4.863 7.643 C 4.755 7.671,4.604 7.801,4.549 7.914 C 4.442 8.136,4.528 8.420,4.742 8.553 L 4.838 8.613 6.877 8.613 L 8.916 8.613 9.017 8.545 C 9.174 8.442,9.238 8.320,9.238 8.125 C 9.238 7.929,9.179 7.818,9.019 7.710 L 8.912 7.638 6.913 7.634 C 5.813 7.632,4.890 7.636,4.863 7.643 M10.488 10.142 C 10.460 10.150,10.391 10.188,10.334 10.228 C 10.141 10.360,10.072 10.625,10.174 10.836 C 10.205 10.899,10.462 11.176,10.849 11.562 L 11.475 12.187 10.839 12.825 C 10.424 13.241,10.189 13.495,10.164 13.555 C 10.002 13.943,10.361 14.336,10.775 14.225 C 10.874 14.199,10.965 14.119,11.538 13.548 L 12.189 12.901 12.801 13.514 C 13.137 13.851,13.452 14.152,13.500 14.182 C 13.633 14.266,13.881 14.261,14.017 14.170 C 14.174 14.067,14.238 13.945,14.238 13.750 C 14.238 13.626,14.225 13.567,14.182 13.500 C 14.152 13.452,13.851 13.137,13.514 12.801 L 12.901 12.189 13.548 11.538 C 14.119 10.965,14.199 10.874,14.225 10.775 C 14.286 10.548,14.210 10.339,14.019 10.210 C 13.929 10.150,13.887 10.138,13.750 10.138 C 13.530 10.138,13.491 10.168,12.775 10.886 L 12.188 11.475 11.575 10.866 C 11.238 10.531,10.926 10.232,10.881 10.202 C 10.799 10.146,10.588 10.114,10.488 10.142 " stroke="none" fill-rule="evenodd" fill="black"></path></svg>