<svg width="16" height="16" viewBox="0 0 16 16" fill="none" xmlns="http://www.w3.org/2000/svg"><path d="M3.134 2.856 C 3.046 2.869,2.911 2.911,2.833 2.949 C 2.647 3.040,2.403 3.268,2.311 3.437 C 2.170 3.697,2.161 3.806,2.161 5.333 C 2.161 7.095,2.167 7.132,2.518 7.482 C 2.709 7.674,2.845 7.750,3.089 7.802 C 3.360 7.859,12.647 7.857,12.918 7.800 C 13.370 7.704,13.739 7.313,13.812 6.853 C 13.849 6.623,13.849 4.044,13.812 3.813 C 13.773 3.569,13.670 3.373,13.482 3.186 C 13.285 2.992,13.088 2.890,12.840 2.854 C 12.607 2.821,3.364 2.823,3.134 2.856 M12.778 3.884 C 12.824 3.926,12.827 4.006,12.827 5.329 C 12.827 6.594,12.822 6.734,12.783 6.778 C 12.740 6.825,12.557 6.827,8.005 6.827 C 3.637 6.827,3.267 6.823,3.222 6.783 C 3.176 6.741,3.173 6.661,3.173 5.338 C 3.173 4.072,3.178 3.933,3.217 3.889 C 3.260 3.842,3.443 3.840,7.995 3.840 C 12.363 3.840,12.733 3.843,12.778 3.884 M6.600 10.173 C 6.585 10.178,6.541 10.189,6.502 10.198 C 6.336 10.234,6.162 10.470,6.161 10.661 C 6.159 10.839,6.233 10.938,6.767 11.473 L 7.293 12.000 6.767 12.527 C 6.233 13.062,6.159 13.161,6.161 13.339 C 6.162 13.541,6.329 13.757,6.527 13.812 C 6.652 13.847,6.681 13.847,6.813 13.811 C 6.900 13.787,7.020 13.682,7.460 13.245 L 8.000 12.708 8.540 13.245 C 9.003 13.706,9.097 13.786,9.196 13.813 C 9.577 13.914,9.914 13.577,9.813 13.196 C 9.786 13.097,9.706 13.003,9.245 12.540 L 8.708 12.000 9.245 11.460 C 9.682 11.020,9.787 10.900,9.811 10.813 C 9.847 10.681,9.847 10.652,9.812 10.527 C 9.779 10.406,9.675 10.280,9.563 10.221 C 9.463 10.169,9.214 10.164,9.120 10.212 C 9.083 10.230,8.816 10.481,8.527 10.769 L 8.000 11.293 7.473 10.769 C 7.184 10.481,6.923 10.234,6.893 10.219 C 6.832 10.189,6.640 10.158,6.600 10.173 " stroke="none" fill-rule="evenodd" fill="black"></path></svg>