<svg width="16" height="16" viewBox="0 0 16 16" fill="none" xmlns="http://www.w3.org/2000/svg"><path d="M3.871 2.188 C 3.483 2.228,3.121 2.487,2.955 2.842 C 2.881 3.000,2.870 3.058,2.848 3.393 C 2.835 3.603,2.828 5.787,2.833 8.331 L 2.841 12.893 2.901 13.051 C 3.008 13.336,3.266 13.618,3.526 13.733 C 3.593 13.762,3.760 13.798,3.897 13.813 C 4.226 13.847,6.479 13.847,6.787 13.812 C 7.100 13.777,7.270 13.695,7.490 13.472 C 7.738 13.220,7.788 13.094,7.815 12.644 C 7.844 12.171,7.844 3.832,7.815 3.359 C 7.798 3.082,7.780 2.967,7.734 2.862 C 7.655 2.678,7.339 2.371,7.129 2.274 C 6.985 2.208,6.937 2.201,6.493 2.183 C 5.869 2.158,4.122 2.161,3.871 2.188 M6.779 3.221 C 6.830 3.273,6.830 12.727,6.779 12.779 C 6.728 12.830,3.939 12.830,3.888 12.779 C 3.860 12.751,3.852 11.908,3.846 8.325 C 3.843 5.895,3.849 3.751,3.860 3.560 L 3.880 3.213 3.973 3.196 C 4.025 3.187,4.669 3.181,5.405 3.183 C 6.464 3.186,6.751 3.194,6.779 3.221 M11.107 6.229 C 10.868 6.353,10.843 6.424,10.831 7.003 L 10.822 7.487 10.351 7.499 C 10.002 7.508,9.855 7.522,9.782 7.554 C 9.666 7.603,9.533 7.775,9.509 7.906 C 9.472 8.099,9.595 8.353,9.768 8.446 C 9.837 8.482,9.947 8.493,10.338 8.502 L 10.822 8.512 10.831 8.998 C 10.840 9.474,10.841 9.486,10.912 9.593 C 11.010 9.740,11.236 9.853,11.392 9.832 C 11.528 9.814,11.699 9.697,11.772 9.573 C 11.821 9.490,11.828 9.426,11.836 8.996 L 11.845 8.512 12.329 8.502 C 12.724 8.494,12.829 8.484,12.899 8.446 C 13.001 8.391,13.101 8.263,13.149 8.126 C 13.217 7.933,13.081 7.637,12.886 7.555 C 12.823 7.529,12.643 7.511,12.317 7.501 L 11.840 7.485 11.839 7.069 C 11.838 6.484,11.804 6.373,11.584 6.247 C 11.458 6.175,11.227 6.166,11.107 6.229 " stroke="none" fill-rule="evenodd"></path></svg>