<svg width="15" height="15" viewBox="0 0 15 15" fill="none" xmlns="http://www.w3.org/2000/svg"><path d="M4.737 2.026 C 3.109 2.042,3.191 2.033,2.754 2.239 C 2.448 2.383,2.251 2.527,2.023 2.770 C 1.773 3.037,1.613 3.311,1.483 3.697 L 1.377 4.013 1.376 6.863 L 1.375 9.714 1.452 9.963 C 1.549 10.276,1.764 10.694,1.923 10.880 C 2.251 11.264,2.657 11.524,3.175 11.680 C 3.322 11.725,3.439 11.731,4.375 11.743 L 5.413 11.756 6.275 12.610 C 6.749 13.080,7.179 13.496,7.229 13.534 C 7.362 13.634,7.552 13.650,7.701 13.575 C 7.839 13.505,8.215 13.130,8.264 13.013 C 8.340 12.830,8.290 12.591,8.146 12.457 C 8.005 12.326,7.757 12.287,7.600 12.372 L 7.513 12.419 6.749 11.663 C 6.239 11.158,5.940 10.881,5.849 10.829 L 5.713 10.750 4.713 10.749 C 4.163 10.749,3.629 10.738,3.526 10.724 C 3.111 10.670,2.710 10.363,2.497 9.935 C 2.427 9.794,2.420 9.752,2.399 9.397 C 2.370 8.897,2.370 4.853,2.399 4.353 C 2.420 3.993,2.427 3.958,2.502 3.803 C 2.614 3.574,2.950 3.239,3.179 3.127 C 3.342 3.047,3.354 3.045,3.829 3.024 C 4.095 3.012,5.747 3.002,7.500 3.002 C 9.253 3.002,10.905 3.012,11.171 3.024 C 11.646 3.045,11.658 3.047,11.821 3.127 C 11.941 3.185,12.047 3.268,12.201 3.423 C 12.426 3.650,12.533 3.819,12.578 4.016 C 12.595 4.094,12.611 4.822,12.621 6.054 L 12.638 7.971 12.713 8.077 C 12.906 8.352,13.298 8.375,13.508 8.125 C 13.544 8.083,13.582 8.007,13.593 7.956 C 13.604 7.904,13.612 6.996,13.612 5.938 C 13.611 3.826,13.616 3.907,13.455 3.525 C 13.313 3.189,13.179 2.978,12.964 2.754 C 12.724 2.504,12.427 2.301,12.111 2.171 C 11.923 2.093,11.826 2.070,11.620 2.050 C 11.317 2.022,6.818 2.007,4.737 2.026 M5.350 5.148 C 5.013 5.157,4.794 5.173,4.763 5.192 C 4.620 5.275,4.500 5.475,4.500 5.632 C 4.500 5.769,4.613 5.962,4.743 6.049 L 4.859 6.125 7.500 6.125 L 10.141 6.125 10.252 6.051 C 10.421 5.938,10.484 5.827,10.485 5.642 C 10.486 5.447,10.431 5.331,10.292 5.232 L 10.188 5.157 8.037 5.145 C 6.855 5.139,5.646 5.140,5.350 5.148 M5.225 7.648 C 4.984 7.656,4.792 7.675,4.763 7.692 C 4.620 7.775,4.500 7.975,4.500 8.132 C 4.500 8.269,4.613 8.462,4.743 8.549 L 4.859 8.625 6.876 8.625 L 8.894 8.625 9.014 8.544 C 9.167 8.440,9.237 8.309,9.236 8.125 C 9.235 7.948,9.175 7.826,9.042 7.732 L 8.938 7.657 7.288 7.645 C 6.380 7.638,5.452 7.639,5.225 7.648 M11.763 9.526 C 11.658 9.548,11.600 9.583,11.510 9.679 C 11.383 9.815,11.375 9.870,11.375 10.650 L 11.375 11.368 10.598 11.381 L 9.822 11.394 9.730 11.468 C 9.539 11.622,9.469 11.798,9.522 11.996 C 9.558 12.131,9.622 12.216,9.756 12.306 L 9.858 12.375 10.614 12.375 L 11.371 12.375 11.379 13.146 L 11.388 13.916 11.450 14.009 C 11.484 14.059,11.556 14.131,11.609 14.168 C 11.690 14.225,11.731 14.235,11.875 14.235 C 12.019 14.235,12.060 14.225,12.141 14.168 C 12.194 14.131,12.266 14.059,12.300 14.009 L 12.363 13.916 12.371 13.148 L 12.380 12.380 13.148 12.371 L 13.917 12.363 14.015 12.294 C 14.173 12.184,14.234 12.072,14.235 11.892 C 14.236 11.695,14.181 11.581,14.034 11.475 L 13.921 11.394 13.150 11.381 L 12.380 11.368 12.371 10.601 C 12.363 9.838,12.362 9.833,12.302 9.746 C 12.269 9.698,12.206 9.633,12.162 9.603 C 12.071 9.540,11.874 9.502,11.763 9.526 " stroke="none" fill-rule="evenodd"></path></svg>