<svg width="16" height="16" viewBox="0 0 16 16" fill="none" xmlns="http://www.w3.org/2000/svg"><path d="M2.566 3.520 C 2.324 3.571,2.176 3.755,2.174 4.004 C 2.173 4.130,2.187 4.174,2.253 4.269 C 2.297 4.331,2.381 4.407,2.440 4.438 L 2.547 4.493 8.013 4.493 L 13.480 4.493 13.580 4.431 C 13.917 4.222,13.908 3.745,13.564 3.568 L 13.453 3.511 8.067 3.503 C 4.888 3.499,2.633 3.505,2.566 3.520 M5.205 7.525 C 4.977 7.576,4.799 7.844,4.837 8.079 C 4.858 8.209,4.980 8.371,5.107 8.438 C 5.213 8.493,5.225 8.493,8.018 8.493 L 10.822 8.493 10.935 8.413 C 11.218 8.213,11.233 7.810,10.965 7.605 L 10.871 7.533 10.215 7.516 C 9.177 7.489,5.335 7.496,5.205 7.525 M3.871 11.525 C 3.645 11.575,3.461 11.858,3.504 12.089 C 3.528 12.217,3.655 12.382,3.777 12.442 C 3.877 12.492,3.992 12.493,8.018 12.493 L 12.155 12.493 12.269 12.413 C 12.552 12.213,12.567 11.810,12.298 11.605 L 12.204 11.533 11.269 11.517 C 9.753 11.489,4.001 11.496,3.871 11.525 " stroke="none" fill-rule="evenodd"></path></svg>