<svg width="16" height="16" viewBox="0 0 16 16" fill="none" xmlns="http://www.w3.org/2000/svg"><path d="M9.867 3.525 C 9.730 3.563,9.613 3.663,9.549 3.794 C 9.471 3.957,9.478 4.071,9.576 4.226 C 9.621 4.297,10.060 4.760,10.551 5.255 L 11.444 6.155 8.262 6.168 C 6.116 6.176,5.011 6.190,4.867 6.211 C 3.732 6.370,2.738 7.194,2.352 8.293 C 2.224 8.660,2.177 8.933,2.176 9.320 C 2.173 10.168,2.501 10.961,3.103 11.560 C 3.649 12.104,4.326 12.418,5.085 12.479 C 5.538 12.516,6.010 12.514,6.143 12.474 C 6.367 12.407,6.531 12.145,6.493 11.918 C 6.470 11.781,6.339 11.605,6.225 11.557 C 6.161 11.531,5.947 11.512,5.525 11.495 C 4.973 11.474,4.898 11.465,4.705 11.400 C 4.105 11.199,3.662 10.819,3.400 10.280 C 3.211 9.891,3.193 9.798,3.205 9.271 C 3.216 8.831,3.219 8.805,3.301 8.600 C 3.434 8.266,3.568 8.060,3.814 7.814 C 4.059 7.569,4.265 7.435,4.600 7.300 L 4.813 7.215 5.720 7.197 C 6.219 7.188,7.712 7.178,9.038 7.177 L 11.449 7.173 10.543 8.087 C 10.021 8.612,9.605 9.054,9.562 9.128 C 9.501 9.232,9.489 9.278,9.500 9.372 C 9.527 9.612,9.729 9.811,9.967 9.833 C 10.075 9.843,10.112 9.832,10.227 9.757 C 10.300 9.709,10.980 9.051,11.738 8.295 C 12.971 7.064,13.118 6.908,13.146 6.804 C 13.205 6.581,13.174 6.515,12.828 6.141 C 12.655 5.953,12.004 5.294,11.381 4.675 C 10.365 3.667,10.237 3.549,10.144 3.533 C 10.087 3.523,10.022 3.512,10.000 3.507 C 9.978 3.502,9.918 3.511,9.867 3.525 " stroke="none" fill-rule="evenodd"></path></svg>