<svg width="16" height="16" viewBox="0 0 16 16" fill="none" xmlns="http://www.w3.org/2000/svg"><path d="M3.870 3.519 C 3.608 3.583,3.449 3.865,3.520 4.137 C 3.548 4.242,3.733 4.436,5.422 6.127 L 7.293 8.000 5.422 9.873 C 3.733 11.564,3.548 11.758,3.520 11.863 C 3.420 12.244,3.756 12.580,4.137 12.480 C 4.242 12.452,4.436 12.267,6.127 10.578 L 8.000 8.707 9.873 10.578 C 11.564 12.267,11.758 12.452,11.863 12.480 C 12.244 12.580,12.580 12.244,12.480 11.863 C 12.452 11.758,12.267 11.564,10.578 9.873 L 8.707 8.000 10.578 6.127 C 12.512 4.190,12.506 4.196,12.506 4.000 C 12.506 3.837,12.381 3.633,12.233 3.556 C 12.143 3.510,11.950 3.497,11.827 3.529 C 11.769 3.544,11.214 4.082,9.873 5.421 L 8.000 7.293 6.140 5.436 C 5.117 4.415,4.256 3.567,4.227 3.553 C 4.144 3.512,3.969 3.495,3.870 3.519 " stroke="none" fill-rule="evenodd" fill="black"></path></svg>