<svg width="16" height="16" viewBox="0 0 16 16" fill="none" xmlns="http://www.w3.org/2000/svg"><path d="M5.880 3.518 C 5.836 3.528,5.776 3.551,5.747 3.567 C 5.717 3.583,5.061 4.230,4.289 5.005 C 3.024 6.273,2.881 6.425,2.853 6.531 C 2.820 6.656,2.835 6.796,2.894 6.906 C 2.914 6.943,3.564 7.605,4.338 8.378 C 5.787 9.822,5.807 9.840,6.000 9.840 C 6.252 9.840,6.504 9.590,6.506 9.339 C 6.507 9.149,6.443 9.072,5.486 8.113 L 4.547 7.172 7.813 7.179 L 11.080 7.187 11.267 7.250 C 12.039 7.510,12.531 8.016,12.764 8.787 C 12.801 8.909,12.813 9.037,12.813 9.333 C 12.813 9.665,12.804 9.748,12.751 9.919 C 12.619 10.338,12.441 10.626,12.136 10.914 C 11.902 11.134,11.656 11.280,11.333 11.390 C 11.086 11.474,11.066 11.476,10.467 11.493 C 9.796 11.511,9.752 11.520,9.617 11.680 C 9.383 11.958,9.521 12.386,9.875 12.483 C 10.035 12.526,11.019 12.496,11.280 12.439 C 13.083 12.048,14.176 10.311,13.730 8.547 C 13.451 7.442,12.557 6.554,11.437 6.266 C 11.063 6.170,10.705 6.160,7.587 6.160 L 4.547 6.160 5.486 5.220 C 6.437 4.268,6.507 4.185,6.507 4.000 C 6.507 3.835,6.385 3.635,6.240 3.561 C 6.149 3.514,5.977 3.493,5.880 3.518 " stroke="none" fill-rule="evenodd" fill="black"></path></svg>