<svg width="16" height="16" viewBox="0 0 16 16" fill="none" xmlns="http://www.w3.org/2000/svg"><path d="M3.133 2.531 C 2.748 2.548,2.672 2.578,2.562 2.757 C 2.508 2.844,2.507 2.877,2.507 4.246 C 2.507 5.046,2.518 5.708,2.533 5.790 C 2.555 5.912,2.577 5.950,2.685 6.047 L 2.812 6.160 3.325 6.160 L 3.837 6.160 3.846 8.113 C 3.855 10.043,3.856 10.069,3.913 10.221 C 4.031 10.535,4.140 10.702,4.386 10.948 C 4.644 11.206,4.817 11.314,5.151 11.428 L 5.343 11.493 6.570 11.493 L 7.796 11.493 7.210 12.087 C 6.888 12.413,6.596 12.726,6.562 12.782 C 6.512 12.864,6.503 12.910,6.512 13.027 C 6.541 13.374,6.875 13.585,7.188 13.454 C 7.319 13.400,9.398 11.322,9.453 11.192 C 9.504 11.069,9.504 10.931,9.453 10.808 C 9.398 10.677,7.334 8.617,7.190 8.549 C 6.995 8.458,6.715 8.541,6.593 8.726 C 6.502 8.863,6.482 9.075,6.548 9.202 C 6.573 9.251,6.865 9.565,7.195 9.899 L 7.796 10.507 6.649 10.507 L 5.502 10.507 5.340 10.426 C 5.161 10.336,4.994 10.172,4.905 9.996 C 4.846 9.881,4.846 9.875,4.832 8.020 L 4.819 6.160 9.203 6.158 C 11.614 6.157,13.656 6.147,13.740 6.136 C 13.912 6.115,14.014 6.052,14.093 5.917 C 14.145 5.830,14.147 5.779,14.147 4.333 C 14.147 2.651,14.157 2.736,13.941 2.593 L 13.831 2.520 8.655 2.518 C 5.809 2.516,3.324 2.522,3.133 2.531 M8.000 4.333 L 8.000 5.173 5.747 5.173 L 3.493 5.173 3.493 4.333 L 3.493 3.493 5.747 3.493 L 8.000 3.493 8.000 4.333 M13.173 4.333 L 13.173 5.173 11.093 5.173 L 9.013 5.173 9.013 4.333 L 9.013 3.493 11.093 3.493 L 13.173 3.493 13.173 4.333 M10.920 9.196 C 10.766 9.216,10.641 9.296,10.562 9.424 C 10.508 9.511,10.507 9.544,10.507 10.913 C 10.507 11.713,10.518 12.374,10.533 12.456 C 10.555 12.579,10.577 12.617,10.685 12.713 L 10.812 12.827 12.314 12.827 L 13.817 12.827 13.910 12.756 C 13.961 12.717,14.035 12.630,14.075 12.562 L 14.147 12.440 14.147 10.973 C 14.147 9.321,14.156 9.402,13.941 9.260 L 13.831 9.187 12.442 9.183 C 11.678 9.181,10.993 9.187,10.920 9.196 M13.173 10.516 C 13.173 10.711,13.165 11.089,13.156 11.356 L 13.138 11.840 12.316 11.840 L 11.493 11.840 11.493 11.000 L 11.493 10.160 12.333 10.160 L 13.173 10.160 13.173 10.516 " stroke="none" fill-rule="evenodd"></path></svg>