<svg width="15" height="15" viewBox="0 0 15 15" fill="none" xmlns="http://www.w3.org/2000/svg"><path d="M4.737 2.026 C 3.109 2.042,3.191 2.033,2.754 2.239 C 2.448 2.383,2.251 2.527,2.023 2.770 C 1.773 3.037,1.613 3.311,1.483 3.697 L 1.377 4.013 1.376 6.863 L 1.375 9.714 1.452 9.963 C 1.549 10.276,1.764 10.694,1.923 10.880 C 2.251 11.264,2.657 11.524,3.175 11.680 C 3.322 11.725,3.439 11.731,4.375 11.743 L 5.413 11.756 6.275 12.612 C 6.750 13.083,7.193 13.504,7.261 13.547 C 7.411 13.642,7.553 13.650,7.707 13.572 C 7.852 13.499,8.833 12.514,8.886 12.388 C 9.023 12.059,8.783 11.700,8.425 11.700 C 8.258 11.700,8.178 11.752,7.831 12.087 L 7.499 12.406 6.741 11.656 C 6.324 11.243,5.934 10.874,5.874 10.834 L 5.766 10.763 4.614 10.747 C 3.803 10.736,3.433 10.723,3.363 10.701 C 3.013 10.592,2.674 10.291,2.497 9.935 C 2.427 9.794,2.420 9.752,2.399 9.397 C 2.370 8.897,2.370 4.853,2.399 4.353 C 2.420 3.993,2.427 3.958,2.502 3.803 C 2.614 3.574,2.950 3.239,3.179 3.127 L 3.345 3.045 3.916 3.021 C 4.251 3.007,5.943 3.000,8.000 3.006 L 11.513 3.015 11.677 3.070 C 12.014 3.182,12.335 3.474,12.506 3.825 C 12.585 3.986,12.586 3.993,12.603 4.487 C 12.613 4.763,12.621 5.725,12.623 6.627 L 12.625 8.266 12.699 8.377 C 12.816 8.552,12.923 8.610,13.125 8.610 C 13.327 8.610,13.434 8.552,13.551 8.377 L 13.625 8.266 13.625 6.151 L 13.625 4.036 13.547 3.787 C 13.461 3.510,13.289 3.148,13.161 2.973 C 13.028 2.792,12.705 2.497,12.496 2.367 C 12.191 2.177,11.917 2.078,11.618 2.050 C 11.316 2.022,6.811 2.007,4.737 2.026 M5.350 5.148 C 5.013 5.157,4.794 5.173,4.763 5.192 C 4.620 5.275,4.500 5.475,4.500 5.632 C 4.500 5.769,4.613 5.962,4.743 6.049 L 4.859 6.125 7.500 6.125 L 10.141 6.125 10.252 6.051 C 10.421 5.938,10.484 5.827,10.485 5.642 C 10.486 5.447,10.431 5.331,10.292 5.232 L 10.188 5.157 8.037 5.145 C 6.855 5.139,5.646 5.140,5.350 5.148 M5.225 7.648 C 4.984 7.656,4.792 7.675,4.763 7.692 C 4.620 7.775,4.500 7.975,4.500 8.132 C 4.500 8.269,4.613 8.462,4.743 8.549 L 4.859 8.625 6.876 8.625 L 8.894 8.625 9.014 8.544 C 9.167 8.440,9.237 8.309,9.236 8.125 C 9.235 7.948,9.175 7.826,9.042 7.732 L 8.938 7.657 7.288 7.645 C 6.380 7.638,5.452 7.639,5.225 7.648 M10.438 10.172 C 10.256 10.257,10.124 10.451,10.126 10.630 C 10.127 10.805,10.209 10.910,10.846 11.555 L 11.470 12.188 10.840 12.827 C 10.493 13.178,10.191 13.506,10.167 13.556 C 10.022 13.862,10.293 14.252,10.650 14.249 C 10.805 14.248,10.929 14.150,11.557 13.528 L 12.187 12.904 12.840 13.550 C 13.474 14.176,13.497 14.196,13.628 14.225 C 13.859 14.277,14.085 14.180,14.185 13.988 C 14.253 13.857,14.255 13.612,14.188 13.509 C 14.162 13.470,13.863 13.156,13.523 12.813 L 12.904 12.188 13.528 11.557 C 14.166 10.912,14.248 10.807,14.249 10.630 C 14.251 10.467,14.125 10.266,13.970 10.185 C 13.932 10.166,13.831 10.150,13.741 10.150 C 13.589 10.150,13.572 10.156,13.434 10.261 C 13.353 10.322,13.041 10.619,12.739 10.922 L 12.191 11.472 11.556 10.848 C 11.207 10.505,10.891 10.209,10.854 10.190 C 10.732 10.127,10.549 10.119,10.438 10.172 " stroke="none" fill-rule="evenodd"></path></svg>