<svg width="16" height="16" viewBox="0 0 16 16" fill="none" xmlns="http://www.w3.org/2000/svg"><path d="M5.787 3.550 C 5.712 3.580,3.592 5.681,3.146 6.168 C 2.828 6.514,2.796 6.585,2.854 6.804 C 2.882 6.908,3.029 7.064,4.262 8.295 C 5.020 9.051,5.700 9.709,5.773 9.757 C 5.888 9.832,5.925 9.843,6.033 9.833 C 6.271 9.811,6.473 9.612,6.500 9.372 C 6.511 9.278,6.499 9.232,6.438 9.128 C 6.395 9.055,5.976 8.609,5.455 8.083 L 4.547 7.166 7.827 7.181 L 11.107 7.195 11.335 7.278 C 12.015 7.526,12.489 8.003,12.723 8.674 C 12.795 8.881,12.799 8.919,12.800 9.329 C 12.800 9.726,12.794 9.782,12.731 9.969 C 12.495 10.673,12.004 11.162,11.295 11.400 C 11.102 11.465,11.027 11.474,10.475 11.495 C 9.812 11.521,9.738 11.537,9.619 11.678 C 9.415 11.920,9.495 12.302,9.778 12.443 C 9.869 12.488,9.941 12.493,10.427 12.491 C 11.058 12.487,11.266 12.460,11.652 12.331 C 12.459 12.061,13.121 11.489,13.500 10.733 C 13.867 10.000,13.927 9.122,13.663 8.328 C 13.298 7.231,12.271 6.371,11.133 6.211 C 10.989 6.190,9.884 6.176,7.738 6.168 L 4.556 6.155 5.460 5.244 C 5.980 4.720,6.395 4.279,6.438 4.205 C 6.500 4.100,6.511 4.056,6.500 3.956 C 6.483 3.807,6.369 3.638,6.240 3.569 C 6.138 3.515,5.900 3.505,5.787 3.550 " stroke="none" fill-rule="evenodd"></path></svg>