<svg width="16" height="16" viewBox="0 0 16 16" fill="none" xmlns="http://www.w3.org/2000/svg"><path d="M2.566 2.187 C 2.283 2.247,2.112 2.519,2.187 2.787 C 2.232 2.949,2.353 3.085,2.488 3.126 C 2.577 3.153,3.709 3.160,8.040 3.160 L 13.480 3.160 13.580 3.098 C 13.917 2.888,13.908 2.412,13.564 2.235 L 13.453 2.178 8.067 2.170 C 4.893 2.165,2.633 2.172,2.566 2.187 M7.876 6.189 C 7.764 6.222,7.061 6.889,5.871 8.091 C 4.853 9.120,4.806 9.180,4.838 9.397 C 4.861 9.548,4.936 9.663,5.070 9.752 C 5.232 9.859,5.444 9.857,5.590 9.747 C 5.647 9.704,6.098 9.268,6.592 8.778 L 7.491 7.886 7.499 10.670 C 7.506 13.392,7.508 13.456,7.560 13.560 C 7.640 13.719,7.811 13.827,7.984 13.827 C 8.166 13.827,8.357 13.714,8.438 13.560 C 8.493 13.454,8.493 13.434,8.501 10.670 L 8.509 7.886 9.410 8.781 C 10.292 9.657,10.504 9.840,10.635 9.840 C 10.945 9.840,11.209 9.544,11.160 9.251 C 11.145 9.167,11.084 9.084,10.828 8.807 C 10.366 8.306,8.317 6.280,8.225 6.234 C 8.116 6.178,7.976 6.160,7.876 6.189 " stroke="none" fill-rule="evenodd"></path></svg>