<svg width="16" height="16" viewBox="0 0 16 16" fill="none" xmlns="http://www.w3.org/2000/svg"><path d="M2.566 3.520 C 2.324 3.571,2.176 3.755,2.174 4.004 C 2.173 4.130,2.187 4.174,2.253 4.269 C 2.297 4.331,2.381 4.407,2.440 4.438 L 2.547 4.493 8.013 4.493 L 13.480 4.493 13.580 4.431 C 13.917 4.222,13.908 3.745,13.564 3.568 L 13.453 3.511 8.067 3.503 C 4.888 3.499,2.633 3.505,2.566 3.520 M6.538 7.523 C 6.310 7.578,6.132 7.845,6.170 8.079 C 6.191 8.209,6.313 8.371,6.440 8.438 C 6.547 8.493,6.549 8.493,10.013 8.493 L 13.480 8.493 13.580 8.431 C 13.917 8.222,13.908 7.745,13.564 7.569 L 13.453 7.512 10.053 7.503 C 7.772 7.498,6.615 7.504,6.538 7.523 M3.871 11.523 C 3.644 11.578,3.461 11.859,3.504 12.089 C 3.528 12.217,3.655 12.382,3.777 12.442 C 3.877 12.492,4.001 12.493,8.680 12.493 L 13.480 12.493 13.580 12.431 C 13.917 12.222,13.908 11.745,13.564 11.568 L 13.453 11.511 8.720 11.503 C 5.520 11.498,3.949 11.504,3.871 11.523 " stroke="none" fill-rule="evenodd"></path></svg>