<svg width="16" height="16" viewBox="0 0 16 16" fill="none" xmlns="http://www.w3.org/2000/svg"><path d="M3.738 2.189 C 3.033 2.280,2.434 2.808,2.220 3.526 C 2.187 3.637,2.176 3.850,2.167 4.530 C 2.154 5.499,2.162 5.552,2.335 5.704 C 2.611 5.947,3.049 5.822,3.145 5.473 C 3.161 5.415,3.173 5.052,3.173 4.608 C 3.173 3.707,3.185 3.649,3.417 3.417 C 3.649 3.185,3.707 3.173,4.608 3.173 C 5.084 3.173,5.413 3.162,5.479 3.144 C 5.538 3.127,5.630 3.070,5.684 3.016 C 5.959 2.741,5.828 2.273,5.451 2.186 C 5.323 2.156,3.972 2.158,3.738 2.189 M10.600 2.173 C 10.585 2.178,10.541 2.189,10.502 2.198 C 10.336 2.234,10.162 2.470,10.161 2.661 C 10.160 2.769,10.223 2.925,10.301 3.009 C 10.439 3.157,10.455 3.159,11.373 3.173 C 12.197 3.186,12.231 3.189,12.352 3.248 C 12.512 3.327,12.673 3.488,12.752 3.648 C 12.811 3.769,12.814 3.803,12.827 4.627 C 12.838 5.366,12.846 5.491,12.886 5.563 C 13.057 5.877,13.488 5.924,13.716 5.653 C 13.835 5.511,13.845 5.415,13.834 4.509 C 13.824 3.681,13.823 3.663,13.753 3.453 C 13.654 3.159,13.513 2.932,13.290 2.709 C 12.975 2.395,12.650 2.236,12.219 2.187 C 12.010 2.163,10.665 2.151,10.600 2.173 M4.947 5.506 C 4.932 5.511,4.887 5.523,4.847 5.531 C 4.749 5.553,4.587 5.699,4.543 5.805 C 4.495 5.919,4.497 6.085,4.547 6.206 C 4.573 6.267,4.808 6.524,5.178 6.897 L 5.769 7.491 4.318 7.499 C 2.705 7.508,2.788 7.498,2.619 7.691 C 2.527 7.796,2.493 7.923,2.514 8.083 C 2.535 8.235,2.632 8.364,2.785 8.440 L 2.917 8.507 4.343 8.507 L 5.770 8.507 5.169 9.113 C 4.519 9.769,4.489 9.812,4.513 10.056 C 4.529 10.228,4.622 10.358,4.785 10.440 C 4.942 10.519,5.043 10.523,5.187 10.456 C 5.258 10.422,5.656 10.042,6.378 9.316 C 7.334 8.356,7.465 8.215,7.481 8.125 C 7.509 7.975,7.480 7.822,7.403 7.711 C 7.301 7.564,5.332 5.612,5.240 5.567 C 5.156 5.525,4.992 5.491,4.947 5.506 M10.886 5.520 C 10.838 5.531,10.754 5.571,10.699 5.609 C 10.511 5.740,8.592 7.687,8.548 7.793 C 8.495 7.919,8.495 8.081,8.548 8.207 C 8.611 8.357,10.610 10.354,10.785 10.441 C 10.942 10.519,11.042 10.523,11.187 10.456 C 11.452 10.333,11.563 10.058,11.453 9.794 C 11.427 9.733,11.192 9.475,10.821 9.102 L 10.229 8.507 11.655 8.506 C 12.985 8.506,13.087 8.502,13.187 8.456 C 13.384 8.365,13.493 8.202,13.493 8.000 C 13.493 7.866,13.454 7.765,13.365 7.671 C 13.203 7.500,13.276 7.507,11.668 7.499 L 10.203 7.491 10.820 6.872 C 11.160 6.532,11.450 6.220,11.465 6.178 C 11.481 6.137,11.493 6.057,11.493 6.000 C 11.493 5.684,11.194 5.447,10.886 5.520 M2.600 10.173 C 2.585 10.178,2.541 10.189,2.500 10.198 C 2.392 10.222,2.249 10.361,2.199 10.491 C 2.161 10.592,2.157 10.715,2.166 11.470 C 2.176 12.321,2.177 12.336,2.247 12.547 C 2.346 12.841,2.486 13.068,2.709 13.291 C 2.932 13.514,3.159 13.654,3.453 13.753 C 3.663 13.823,3.681 13.824,4.509 13.834 C 5.461 13.846,5.529 13.837,5.683 13.683 C 5.959 13.407,5.828 12.940,5.451 12.852 C 5.394 12.839,5.008 12.828,4.594 12.827 C 3.906 12.827,3.830 12.822,3.698 12.773 C 3.526 12.709,3.337 12.531,3.249 12.353 C 3.189 12.231,3.186 12.199,3.173 11.373 C 3.163 10.720,3.151 10.504,3.123 10.453 C 3.071 10.358,2.984 10.267,2.907 10.227 C 2.836 10.191,2.645 10.157,2.600 10.173 M13.267 10.173 C 13.252 10.178,13.208 10.189,13.169 10.198 C 13.077 10.218,12.944 10.330,12.886 10.437 C 12.846 10.509,12.838 10.634,12.827 11.373 C 12.814 12.197,12.811 12.231,12.752 12.352 C 12.672 12.513,12.499 12.686,12.347 12.757 C 12.235 12.809,12.168 12.814,11.373 12.827 C 10.455 12.841,10.439 12.843,10.301 12.991 C 10.223 13.075,10.160 13.231,10.161 13.339 C 10.161 13.462,10.244 13.629,10.344 13.714 C 10.489 13.836,10.582 13.845,11.491 13.834 C 12.319 13.824,12.337 13.823,12.547 13.753 C 12.841 13.654,13.068 13.514,13.291 13.291 C 13.514 13.068,13.654 12.841,13.753 12.547 C 13.823 12.337,13.824 12.319,13.834 11.491 C 13.841 10.926,13.835 10.613,13.815 10.539 C 13.781 10.414,13.680 10.281,13.577 10.229 C 13.503 10.191,13.312 10.156,13.267 10.173 " stroke="none" fill-rule="evenodd" fill="black"></path></svg>