<svg width="16" height="16" viewBox="0 0 16 16" fill="none" xmlns="http://www.w3.org/2000/svg"><path d="M7.933 2.839 C 7.919 2.844,7.875 2.856,7.835 2.864 C 7.732 2.887,7.600 3.008,7.543 3.132 C 7.502 3.223,7.494 3.311,7.494 3.697 L 7.493 4.155 7.007 4.165 C 6.488 4.175,6.428 4.189,6.301 4.324 C 6.223 4.408,6.160 4.565,6.161 4.672 C 6.162 4.875,6.329 5.090,6.527 5.145 C 6.582 5.161,6.822 5.173,7.060 5.173 L 7.493 5.173 7.494 5.633 C 7.494 6.022,7.502 6.110,7.543 6.201 C 7.697 6.538,8.145 6.602,8.382 6.320 C 8.486 6.197,8.506 6.081,8.507 5.607 L 8.507 5.173 8.940 5.173 C 9.178 5.173,9.421 5.160,9.479 5.144 C 9.784 5.059,9.930 4.659,9.751 4.396 C 9.613 4.194,9.501 4.162,8.927 4.161 L 8.507 4.160 8.507 3.727 C 8.506 3.488,8.494 3.249,8.479 3.194 C 8.447 3.078,8.343 2.946,8.243 2.896 C 8.170 2.858,7.979 2.823,7.933 2.839 M3.134 8.190 C 3.046 8.202,2.911 8.244,2.833 8.282 C 2.647 8.373,2.403 8.602,2.311 8.770 C 2.170 9.030,2.161 9.140,2.161 10.667 C 2.161 12.428,2.167 12.465,2.518 12.816 C 2.709 13.007,2.845 13.083,3.089 13.135 C 3.360 13.192,12.647 13.191,12.918 13.133 C 13.370 13.038,13.739 12.647,13.812 12.187 C 13.849 11.956,13.849 9.377,13.812 9.147 C 13.773 8.902,13.670 8.706,13.482 8.520 C 13.285 8.325,13.088 8.223,12.840 8.188 C 12.607 8.154,3.364 8.156,3.134 8.190 M12.778 9.217 C 12.824 9.259,12.827 9.339,12.827 10.662 C 12.827 11.928,12.822 12.067,12.783 12.111 C 12.740 12.158,12.557 12.160,8.005 12.160 C 3.637 12.160,3.267 12.157,3.222 12.116 C 3.176 12.074,3.173 11.994,3.173 10.671 C 3.173 9.406,3.178 9.266,3.217 9.222 C 3.260 9.175,3.443 9.173,7.995 9.173 C 12.363 9.173,12.733 9.177,12.778 9.217 " stroke="none" fill-rule="evenodd" fill="black"></path></svg>