<svg width="16" height="16" viewBox="0 0 16 16" fill="none" xmlns="http://www.w3.org/2000/svg"><path d="M7.773 2.895 C 7.666 2.951,7.603 3.011,7.551 3.107 C 7.511 3.179,7.506 3.400,7.499 5.340 L 7.491 7.493 5.659 7.496 C 4.651 7.497,3.670 7.506,3.477 7.516 C 3.154 7.533,3.121 7.539,3.035 7.605 C 2.765 7.811,2.780 8.212,3.065 8.413 L 3.178 8.493 5.334 8.501 L 7.491 8.509 7.499 10.661 C 7.505 12.424,7.513 12.825,7.543 12.880 C 7.659 13.091,7.898 13.203,8.112 13.145 C 8.260 13.105,8.355 13.037,8.431 12.913 L 8.493 12.813 8.501 10.661 L 8.509 8.509 10.648 8.501 C 12.758 8.493,12.788 8.493,12.893 8.438 C 12.952 8.407,13.036 8.331,13.080 8.269 C 13.147 8.174,13.160 8.130,13.160 8.000 C 13.160 7.870,13.147 7.826,13.080 7.731 C 12.918 7.502,13.080 7.518,10.654 7.500 L 8.507 7.485 8.506 5.469 C 8.506 4.360,8.494 3.376,8.481 3.281 C 8.452 3.084,8.398 2.998,8.251 2.914 C 8.125 2.842,7.893 2.833,7.773 2.895 " stroke="none" fill-rule="evenodd"></path></svg>