<svg xmlns="http://www.w3.org/2000/svg" width="447.222" height="174.649" viewBox="0 0 447.222 174.649"><defs><style>.a,.b{fill:#f1f2f5;}.b,.d{stroke:#d5d9e4;stroke-miterlimit:10;}.c{font-size:20px;font-family:Roboto-Regular, Roboto;letter-spacing:0.03em;}.d{fill:#fff;}.e{stroke:none;}.f{fill:none;}</style></defs><g transform="translate(-919.764 -494.995)"><rect class="a" width="445.3" height="174.096" rx="4" transform="translate(920.7 495.548)"/><g transform="translate(564.764)"><g transform="translate(356 495.995)"><g class="b" transform="translate(0 0)"><path class="e" d="M4,0H89.222a0,0,0,0,1,0,0V45.005a0,0,0,0,1,0,0H0a0,0,0,0,1,0,0V4A4,4,0,0,1,4,0Z"/><path class="f" d="M4-.5H89.222a.5.5,0,0,1,.5.5V45.005a.5.5,0,0,1-.5.5H0a.5.5,0,0,1-.5-.5V4A4.5,4.5,0,0,1,4-.5Z"/></g><text class="c" transform="translate(44 29.005)"><tspan x="-6.523" y="0">A</tspan></text></g><g transform="translate(356 541.995)"><g class="d" transform="translate(0 0)"><rect class="e" width="89.222" height="40.255"/><rect class="f" x="-0.5" y="-0.5" width="90.222" height="41.255"/></g><text class="c" transform="translate(25 27.005)"><tspan x="-12.439" y="0">A1</tspan></text></g><g transform="translate(356 582.995)"><g class="d" transform="translate(0 0)"><rect class="e" width="89.222" height="40.255"/><rect class="f" x="-0.5" y="-0.5" width="90.222" height="41.255"/></g></g><g transform="translate(356 623.995)"><g class="d" transform="translate(0 0)"><path class="e" d="M0,0H89.222a0,0,0,0,1,0,0V40.255a0,0,0,0,1,0,0H4a4,4,0,0,1-4-4V0A0,0,0,0,1,0,0Z"/><path class="f" d="M0-.5H89.222a.5.5,0,0,1,.5.5V40.255a.5.5,0,0,1-.5.5H4a4.5,4.5,0,0,1-4.5-4.5V0A.5.5,0,0,1,0-.5Z"/></g></g><g transform="translate(445 495.995)"><g class="b" transform="translate(0 0)"><rect class="e" width="89.222" height="45.005"/><rect class="f" x="-0.5" y="-0.5" width="90.222" height="46.005"/></g><text class="c" transform="translate(44 29.005)"><tspan x="-6.226" y="0">B</tspan></text></g><g transform="translate(445 541.995)"><g class="d" transform="translate(0 0)"><rect class="e" width="89.222" height="40.255"/><rect class="f" x="-0.5" y="-0.5" width="90.222" height="41.255"/></g><text class="c" transform="translate(25 27.005)"><tspan x="-12.141" y="0">B1</tspan></text></g><g transform="translate(445 582.995)"><g class="d" transform="translate(0 0)"><rect class="e" width="89.222" height="40.255"/><rect class="f" x="-0.5" y="-0.5" width="90.222" height="41.255"/></g></g><g transform="translate(445 623.995)"><g class="d" transform="translate(0 0)"><rect class="e" width="89.222" height="40.255"/><rect class="f" x="-0.5" y="-0.5" width="90.222" height="41.255"/></g></g><g transform="translate(534 495.995)"><g class="b" transform="translate(0 0)"><rect class="e" width="89.222" height="45.005"/><rect class="f" x="-0.5" y="-0.5" width="90.222" height="46.005"/></g><text class="c" transform="translate(44 29.005)"><tspan x="-6.509" y="0">C</tspan></text></g><g transform="translate(534 541.995)"><g class="d" transform="translate(0 0)"><rect class="e" width="89.222" height="40.255"/><rect class="f" x="-0.5" y="-0.5" width="90.222" height="41.255"/></g><text class="c" transform="translate(25 27.005)"><tspan x="-12.424" y="0">C1</tspan></text></g><g transform="translate(534 582.995)"><g class="d" transform="translate(0 0)"><rect class="e" width="89.222" height="40.255"/><rect class="f" x="-0.5" y="-0.5" width="90.222" height="41.255"/></g></g><g transform="translate(534 623.995)"><g class="d" transform="translate(0 0)"><rect class="e" width="89.222" height="40.255"/><rect class="f" x="-0.5" y="-0.5" width="90.222" height="41.255"/></g></g><g transform="translate(623 495.995)"><g class="b" transform="translate(0 0)"><rect class="e" width="89.222" height="45.005"/><rect class="f" x="-0.5" y="-0.5" width="90.222" height="46.005"/></g><text class="c" transform="translate(44 29.005)"><tspan x="-6.558" y="0">D</tspan></text></g><g transform="translate(623 541.995)"><g class="d" transform="translate(0 0)"><rect class="e" width="89.222" height="40.255"/><rect class="f" x="-0.5" y="-0.5" width="90.222" height="41.255"/></g><text class="c" transform="translate(25 27.005)"><tspan x="-12.473" y="0">D1</tspan></text></g><g transform="translate(623 582.995)"><g class="d" transform="translate(0 0)"><rect class="e" width="89.222" height="40.255"/><rect class="f" x="-0.5" y="-0.5" width="90.222" height="41.255"/></g></g><g transform="translate(623 623.995)"><g class="d" transform="translate(0 0)"><rect class="e" width="89.222" height="40.255"/><rect class="f" x="-0.5" y="-0.5" width="90.222" height="41.255"/></g></g><g transform="translate(712 495.995)"><g class="b" transform="translate(0 0)"><path class="e" d="M0,0H85.222a4,4,0,0,1,4,4V45.005a0,0,0,0,1,0,0H0a0,0,0,0,1,0,0V0A0,0,0,0,1,0,0Z"/><path class="f" d="M0-.5H85.222a4.5,4.5,0,0,1,4.5,4.5V45.005a.5.5,0,0,1-.5.5H0a.5.5,0,0,1-.5-.5V0A.5.5,0,0,1,0-.5Z"/></g><text class="c" transform="translate(44 29.005)"><tspan x="-5.684" y="0">E</tspan></text></g><g transform="translate(712 541.995)"><g class="d" transform="translate(0 0)"><rect class="e" width="89.222" height="40.255"/><rect class="f" x="-0.5" y="-0.5" width="90.222" height="41.255"/></g><text class="c" transform="translate(25 27.005)"><tspan x="-11.599" y="0">E1</tspan></text></g><g transform="translate(712 582.995)"><g class="d" transform="translate(0 0)"><rect class="e" width="89.222" height="40.255"/><rect class="f" x="-0.5" y="-0.5" width="90.222" height="41.255"/></g></g><g transform="translate(712 623.995)"><g class="d" transform="translate(0 0)"><path class="e" d="M0,0H89.222a0,0,0,0,1,0,0V36.255a4,4,0,0,1-4,4H0a0,0,0,0,1,0,0V0A0,0,0,0,1,0,0Z"/><path class="f" d="M0-.5H89.222a.5.5,0,0,1,.5.5V36.255a4.5,4.5,0,0,1-4.5,4.5H0a.5.5,0,0,1-.5-.5V0A.5.5,0,0,1,0-.5Z"/></g></g></g></g></svg>