<svg width="16" height="16" viewBox="0 0 16 16" fill="none" xmlns="http://www.w3.org/2000/svg">
<g clip-path="url(#clip0_343_18885)">
<path d="M2.66602 8.66667C3.85474 8.80794 4.96138 9.34502 5.80785 10.1915C6.65433 11.038 7.19141 12.1446 7.33268 13.3333C7.92196 12.9936 8.41488 12.5092 8.76483 11.926C9.11479 11.3427 9.31023 10.6798 9.33268 10C10.4521 9.60621 11.4296 8.88933 12.1416 7.94001C12.8536 6.99069 13.2681 5.85156 13.3327 4.66667C13.3327 4.13623 13.122 3.62753 12.7469 3.25245C12.3718 2.87738 11.8631 2.66667 11.3327 2.66667C10.1478 2.73127 9.00866 3.14578 8.05934 3.85777C7.11002 4.56976 6.39314 5.54726 5.99935 6.66667C5.31952 6.68912 4.65665 6.88456 4.07339 7.23451C3.49013 7.58447 3.00574 8.07739 2.66602 8.66667Z" stroke="#1A42E8" stroke-linecap="round" stroke-linejoin="round"/>
<path d="M4.66634 9.33333C3.97249 9.72505 3.41144 10.3151 3.05511 11.0277C2.69877 11.7404 2.5634 12.5432 2.66634 13.3333C3.45644 13.4363 4.25929 13.3009 4.97195 12.9446C5.68462 12.5882 6.27462 12.0272 6.66634 11.3333" stroke="#1A42E8" stroke-linecap="round" stroke-linejoin="round"/>
<path d="M9.33398 6C9.33398 6.17681 9.40422 6.34638 9.52925 6.4714C9.65427 6.59643 9.82384 6.66667 10.0007 6.66667C10.1775 6.66667 10.347 6.59643 10.4721 6.4714C10.5971 6.34638 10.6673 6.17681 10.6673 6C10.6673 5.82319 10.5971 5.65362 10.4721 5.5286C10.347 5.40357 10.1775 5.33333 10.0007 5.33333C9.82384 5.33333 9.65427 5.40357 9.52925 5.5286C9.40422 5.65362 9.33398 5.82319 9.33398 6Z" stroke="#1A42E8" stroke-linecap="round" stroke-linejoin="round"/>
</g>
<defs>
<clipPath id="clip0_343_18885">
<rect width="16" height="16" fill="white"/>
</clipPath>
</defs>
</svg>
