<svg xmlns="http://www.w3.org/2000/svg" width="54" height="54" viewBox="0 0 150 150"><defs><linearGradient id="a" x1="-211.7" x2="-207.44" y1="477.2" y2="479.22" gradientTransform="matrix(23.9 0 0 -23.91 5084.02 11503.76)" gradientUnits="userSpaceOnUse"><stop offset="0" stop-color="#e40035"/><stop offset=".24" stop-color="#f60a48"/><stop offset=".35" stop-color="#f20755"/><stop offset=".49" stop-color="#dc087d"/><stop offset=".74" stop-color="#9717e7"/><stop offset="1" stop-color="#6c00f5"/></linearGradient><linearGradient id="b" x1="-211.13" x2="-208.38" y1="480.28" y2="477.12" gradientTransform="matrix(23.9 0 0 -23.91 5084.02 11503.76)" gradientUnits="userSpaceOnUse"><stop offset="0" stop-color="#ff31d9"/><stop offset="1" stop-color="#ff5be1" stop-opacity="0"/></linearGradient></defs><path d="M0 0h150v150H0V0Z" style="fill:none"/><path d="m139.64 33.21-4.65 69.05-44.5-90.55 49.15 21.49Zm-30.82 89.29L75.2 140.63 41.58 122.5l6.84-15.66h53.57l6.84 15.66ZM75.2 46.08l17.62 40.47H57.57l17.62-40.47Zm-59.84 56.17-4.61-69.04 49.16-21.5-44.54 90.55Z" style="fill:url(#a)"/><path d="m139.64 33.21-4.65 69.05-44.5-90.55 49.15 21.49Zm-30.82 89.29L75.2 140.63 41.58 122.5l6.84-15.66h53.57l6.84 15.66ZM75.2 46.08l17.62 40.47H57.57l17.62-40.47Zm-59.84 56.17-4.61-69.04 49.16-21.5-44.54 90.55Z" style="fill:url(#b)"/></svg>