<?xml version="1.0" encoding="UTF-8"?>
<svg data-name="Warstwa 1" viewBox="0 0 1300 197.33" xmlns="http://www.w3.org/2000/svg">
<defs>
<style>.cls-1{fill:#1a42e8;}</style>
</defs>
<title>Handsontable_logo_color</title>
<path transform="translate(-50 -101.33)" d="m50 108.22h37.31v49.447h42.56v-49.447h37.125v129.49h-37.125v-51.068h-42.56v51.068h-37.31z"/>
<path transform="translate(-50 -101.33)" d="m182.72 211.45c0-22.271 18.838-30.969 50.348-30.969h9.0588v-2.172c0-9.0482-2.172-15.034-12.497-15.034-8.8734 0-12.137 5.2551-12.857 11.231h-30.429c1.4515-22.822 19.378-34.042 45.278-34.042 26.08 0 42.74 10.68 42.74 35.854v61.398h-31.51v-11.051c-4.5294 6.8868-12.862 13.223-28.072 13.223-17.026 0-32.061-8.3277-32.061-28.437zm59.406-6.8762v-5.7955h-8.5131c-13.037 0-18.833 2.5322-18.833 10.32 0 5.4353 3.6182 8.8786 11.225 8.8786 9.2389 3e-5 16.12-5.2551 16.12-13.403z"/>
<path transform="translate(-50 -101.33)" d="m292.82 142.99h32.421v15.214c5.0697-9.7792 15.389-17.747 31.149-17.747 18.292 0 30.969 11.411 30.969 35.674v61.578h-32.421v-55.052c0-10.69-4.1639-15.946-13.583-15.946-9.5991 0-16.115 5.7955-16.115 17.937v53.06h-32.421z"/>
<path transform="translate(-50 -101.33)" d="m401.09 191.35v-1.4515c0-32.23 17.747-49.436 40.208-49.436 14.849 0 23.722 6.3358 29.158 15.935v-55.062h32.416v136.38h-32.416v-15.395c-4.7095 9.7792-15.214 17.567-29.523 17.567-21.911 0-39.843-15.755-39.843-48.536zm70.272-0.54035v-1.4515c0-15.935-6.7014-24.453-18.658-24.453-12.131 0-18.653 8.1582-18.653 24.633v1.4515c0 15.935 7.0616 24.083 18.292 24.083 11.771-1e-5 19.018-8.1476 19.018-24.263z"/>
<path transform="translate(-50 -101.33)" d="m515.71 207.64h29.883c1.086 6.8868 4.1692 10.69 13.403 10.69 7.9675 0 11.591-3.0832 11.591-7.7874 0-4.5241-4.5241-6.7067-17.567-8.5078-25.354-3.2633-36.039-10.69-36.039-30.429 0-21.01 18.653-31.149 40.568-31.149 23.362 0 39.663 7.9675 41.835 30.609h-29.338c-1.2714-6.3464-4.7095-9.419-12.137-9.419-7.0616 0-10.685 3.0726-10.685 7.4165 0 4.5347 4.344 6.3464 15.935 7.7874 26.265 3.2633 38.942 10.15 38.942 30.429 0 22.462-16.661 32.601-42.926 32.601-26.986-4e-5 -42.74-11.231-43.466-32.241z"/>
<path transform="translate(-50 -101.33)" d="m611.14 191.53v-1.4515c0-30.418 22.636-49.617 51.974-49.617 29.163 0 51.619 18.647 51.619 48.716v1.4515c0 30.789-22.642 49.256-51.799 49.256s-51.794-17.747-51.794-48.356zm70.632-0.54035v-1.4515c0-15.935-6.3411-24.814-18.658-24.814-12.131 0-18.833 8.5184-18.833 24.453v1.4515c0 16.295 6.3411 25.174 18.833 25.174 12.137 0 18.658-9.0588 18.658-24.814z"/>
<path transform="translate(-50 -101.33)" d="m728.84 142.99h32.421v15.214c5.0697-9.7792 15.389-17.747 31.149-17.747 18.292 0 30.969 11.411 30.969 35.674v61.578h-32.421v-55.052c0-10.69-4.1638-15.946-13.583-15.946-9.5991 0-16.115 5.7955-16.115 17.937v53.06h-32.421z"/>
<path transform="translate(-50 -101.33)" d="m846.16 207.28v-42.2h-11.406v-22.091h11.406v-19.739h32.421v19.739h18.653v22.091h-18.653v39.128c0 6.8762 3.4434 9.9594 9.5991 9.9594a24.634 24.634 0 0 0 9.2389-1.6316v24.633a68.338 68.338 0 0 1-17.932 2.7123c-21.37 0-33.327-10.32-33.327-32.601z"/>
<path transform="translate(-50 -101.33)" d="m906.82 211.45c0-22.271 18.838-30.969 50.348-30.969h9.0588v-2.172c0-9.0482-2.172-15.034-12.497-15.034-8.8734 0-12.137 5.2551-12.857 11.231h-30.429c1.4515-22.822 19.378-34.042 45.278-34.042 26.08 0 42.74 10.68 42.74 35.854v61.398h-31.51v-11.051c-4.5294 6.8868-12.862 13.223-28.072 13.223-17.026 0-32.061-8.3277-32.061-28.437zm59.406-6.8762v-5.7955h-8.5131c-13.037 0-18.833 2.5322-18.833 10.32 0 5.4353 3.6182 8.8786 11.225 8.8786 9.2389 3e-5 16.12-5.2551 16.12-13.403z"/>
<path transform="translate(-50 -101.33)" d="m1049.3 223.04v14.674h-32.421v-136.38h32.421v55.783a33.427 33.427 0 0 1 29.518-16.655c22.096 0 40.028 16.655 40.028 49.076v1.4515c0 32.601-17.932 48.896-40.208 48.896-14.128-1e-5 -24.633-6.6961-29.338-16.846zm36.579-32.05v-1.4515c0-16.666-7.2417-24.633-18.653-24.633-11.771 0-18.833 8.5184-18.833 24.453v1.4515c0 16.115 7.0616 24.263 18.833 24.263 12.137-1e-5 18.653-8.5078 18.653-24.083z"/>
<path transform="translate(-50 -101.33)" d="m1134.2 101.33h32.235v136.38h-32.235z"/>
<path transform="translate(-50 -101.33)" d="m1181.5 191.53v-1.4515c0-30.418 22.636-49.617 51.254-49.617 25.9 0 48.176 14.844 48.176 48.896v8.5078h-66.648c0.90587 12.502 8.1476 19.749 19.739 19.749 10.685 0 15.214-4.8949 16.481-11.231h30.429c-2.8977 21.37-19.378 33.502-47.996 33.502-29.703 0-51.434-17.386-51.434-48.356zm67.914-11.951c-0.54564-11.411-6.1557-17.747-16.661-17.747-9.7792 0-16.481 6.3358-18.112 17.747z"/>
<path class="cls-1" transform="translate(-50 -101.33)" d="m1295.3 244h54.668v54.668h-54.668z"/>
</svg>
