<svg xmlns="http://www.w3.org/2000/svg" width="430" height="107" viewBox="0 0 430 107">
  <g id="Handsontable-gh" transform="translate(-542 -396)">
    <rect id="Rectangle_1" data-name="Rectangle 1" width="430" height="107" rx="10" transform="translate(542 396)" fill="#fff"/>
    <g id="Group_6" data-name="Group 6" transform="translate(520 399.525)">
      <path id="Path_1" data-name="Path 1" d="M25.9,17.747H12.727V4.256H4.667v35.85h8.06V24.626H25.9V40.106h8.063V4.256H25.9Zm37.2,5.966c0-3.817-.7-5.912-2.58-7.578-2.044-1.773-5.052-2.686-8.976-2.686-7.31,0-11.018,2.9-11.5,8.869h6.827c.322-2.1,1.827-3.065,4.622-3.065,2.473,0,3.978.914,3.978,2.366,0,1.074-.592,1.5-2.312,1.773l-4.139.7c-7.256,1.183-10.32,3.708-10.32,8.6s3.817,8.117,9.568,8.117a10.081,10.081,0,0,0,7.419-2.743c.267.97.267,1.131.589,2.044h7.793c-.857-1.288-.966-1.666-.966-4.461Zm-7.416,8.008A5.965,5.965,0,0,1,50.093,35c-2.421,0-3.872-1.022-3.872-2.741,0-1.56,1.183-2.473,3.924-3.117l2.743-.591a14.963,14.963,0,0,0,2.8-.809ZM83.046,13.393c-2.69,0-4.3.7-7.1,3.278V14.145H68.532V40.106h7.634V25.542c0-2.258.268-3.334,1.129-4.3a4.3,4.3,0,0,1,3.278-1.4,3.606,3.606,0,0,1,3.117,1.5c.644.968.807,1.986.807,4.62V40.106h7.63V23.283C92.128,17.156,88.688,13.393,83.046,13.393Zm31.395,2.69a8.446,8.446,0,0,0-6.61-2.69c-6.988,0-11.61,5.485-11.61,13.759,0,8.224,4.569,13.654,11.4,13.654a8.027,8.027,0,0,0,7.149-3.495v2.8h7.308V4.256H114.44Zm-5.213,18.541c-3.334,0-5.483-2.954-5.483-7.525s2.149-7.525,5.483-7.525,5.481,3.012,5.481,7.634C114.709,31.615,112.506,34.623,109.228,34.623Zm32.257-10.481-4.785-1.02c-2.418-.537-3.171-1.022-3.171-1.988,0-1.29,1.451-2.151,3.656-2.151,2.527,0,4.084,1.022,4.406,2.956h7.149c-.7-5.483-4.73-8.491-11.394-8.491-6.934,0-11.071,3.169-11.071,8.385,0,4.135,2.2,6.235,7.9,7.469l4.73,1.074c2.044.483,2.9,1.129,2.9,2.366,0,1.559-1.56,2.529-3.978,2.529-3.064,0-4.676-1.131-5.107-3.6h-7.147c.429,5.75,4.891,9.137,12.093,9.137s11.664-3.439,11.664-8.924a7.241,7.241,0,0,0-1.934-5.213C146.266,25.486,144.654,24.79,141.485,24.142Zm24.136-10.694c-8.063,0-13.759,5.642-13.759,13.65,0,8.063,5.7,13.707,13.759,13.707,8.008,0,13.815-5.644,13.815-13.491C179.436,19.039,173.846,13.449,165.621,13.449Zm.054,21.284c-3.922,0-6.127-2.741-6.127-7.634,0-4.837,2.2-7.577,6.073-7.577,3.978,0,6.129,2.74,6.129,7.738C171.75,31.991,169.492,34.733,165.675,34.733Zm32.366-21.339c-2.688,0-4.3.7-7.1,3.278V14.145h-7.419V40.106h7.634V25.542c0-2.258.268-3.334,1.129-4.3a4.3,4.3,0,0,1,3.278-1.4,3.606,3.606,0,0,1,3.117,1.5c.646.968.807,1.986.807,4.62V40.106h7.63V23.283C207.123,17.156,203.683,13.393,198.041,13.393ZM221,6.246h-7.63V14.47H209.71v5.374h3.656V31.669c0,4.03.322,5.427,1.5,6.716,1.129,1.238,2.8,1.721,6.125,1.721h4.678V34.355h-2.74c-1.773,0-1.938-.322-1.938-4.407v-10.1h4.678V14.47H221ZM252.23,23.713c0-3.817-.7-5.912-2.58-7.578-2.044-1.773-5.052-2.686-8.976-2.686-7.31,0-11.018,2.9-11.5,8.869H236c.322-2.1,1.827-3.065,4.622-3.065,2.473,0,3.978.914,3.978,2.366,0,1.074-.592,1.5-2.312,1.773l-4.139.7c-7.255,1.183-10.32,3.708-10.32,8.6s3.817,8.117,9.568,8.117a10.081,10.081,0,0,0,7.419-2.743c.267.97.267,1.131.589,2.044H253.2c-.857-1.288-.966-1.666-.966-4.461Zm-7.416,8.008a5.965,5.965,0,0,1-5.59,3.28c-2.421,0-3.872-1.022-3.872-2.741,0-1.56,1.183-2.473,3.924-3.117l2.743-.591a14.964,14.964,0,0,0,2.8-.809Zm27.629-18.272a11.088,11.088,0,0,0-7.147,2.525V4.256h-7.634v35.85h7.312V37.15c2.042,2.69,3.869,3.656,7.093,3.656,6.666,0,11.447-5.859,11.447-14.029C283.515,18.822,279.056,13.449,272.444,13.449Zm-1.934,21.175c-3.332,0-5.535-3.008-5.535-7.525,0-4.459,2.2-7.471,5.535-7.471,3.386,0,5.481,2.9,5.481,7.58C275.991,31.721,273.843,34.623,270.509,34.623Zm17.1,5.483h7.634V4.256h-7.634Zm36.555-19.027c-1.938-4.891-6.075-7.63-11.558-7.63-7.847,0-13.276,5.59-13.276,13.7,0,8.171,5.322,13.654,13.332,13.654,6.179,0,11.018-3.226,12.469-8.278H317.39a4.866,4.866,0,0,1-4.515,2.31c-3.278,0-5.377-1.934-5.86-5.479h18.437A21.084,21.084,0,0,0,324.163,21.079Zm-17.093,2.9c.589-3.064,2.527-4.73,5.481-4.73s4.731,1.666,5.053,4.73ZM329.4,44.734V60h15.268V44.734Z" transform="translate(62.333 17.847)"/>
    </g>
  </g>
</svg>
