<?xml version="1.0" encoding="UTF-8"?>
<svg version="1.1" viewBox="0 0 266.67 53.333" xml:space="preserve" xmlns="http://www.w3.org/2000/svg" xmlns:cc="http://creativecommons.org/ns#" xmlns:dc="http://purl.org/dc/elements/1.1/" xmlns:rdf="http://www.w3.org/1999/02/22-rdf-syntax-ns#"><metadata><rdf:RDF><cc:Work rdf:about=""><dc:format>image/svg+xml</dc:format><dc:type rdf:resource="http://purl.org/dc/dcmitype/StillImage"/></cc:Work></rdf:RDF></metadata><defs><clipPath id="a"><path d="m0 40h200v-40h-200z"/></clipPath></defs><g transform="matrix(1.3333 0 0 -1.3333 0 53.333)"><g clip-path="url(#a)"><path d="m186.14 4.593h8.532v8.531h-8.532zm-12.479 20.128c0.33 1.712 1.413 2.643 3.064 2.643 1.652 0 2.644-0.931 2.824-2.643zm9.553 1.622c-1.083 2.733-3.395 4.264-6.459 4.264-4.385 0-7.419-3.124-7.419-7.658 0-4.566 2.975-7.63 7.449-7.63 3.454 0 6.158 1.803 6.969 4.626h-4.325c-0.571-0.901-1.382-1.292-2.523-1.292-1.832 0-3.005 1.081-3.275 3.063h10.304c0 2.013-0.211 3.366-0.721 4.627m-20.428-10.633h4.266v20.034h-4.266zm-9.554 3.064c-1.864 0-3.094 1.681-3.094 4.205 0 2.492 1.23 4.174 3.094 4.174 1.891 0 3.062-1.621 3.062-4.235 0-2.522-1.2-4.144-3.062-4.144m1.081 11.833c-1.472 0-2.613-0.389-3.995-1.411v6.548h-4.266v-20.034h4.086v1.651c1.14-1.502 2.273-2.048 3.964-2.042 3.77 0.013 6.434 3.087 6.397 7.84-0.034 4.445-2.492 7.448-6.186 7.448m-15.442-10.211c-0.691-1.232-1.713-1.833-3.124-1.833-1.352 0-2.163 0.571-2.163 1.532 0 0.872 0.661 1.382 2.192 1.742l1.534 0.33c0.72 0.151 1.11 0.27 1.561 0.452zm4.145 4.475c0 2.133-0.39 3.304-1.442 4.235-1.142 0.991-2.823 1.501-5.015 1.501-4.086 0-6.158-1.621-6.429-4.956h3.814c0.181 1.173 1.022 1.713 2.584 1.713 1.381 0 2.223-0.511 2.223-1.322 0-0.6-0.331-0.841-1.292-0.991l-2.313-0.391c-4.054-0.661-5.767-2.072-5.767-4.805s2.133-4.536 5.347-4.536c1.712 0 2.733 0.361 4.145 1.533 0.151-0.542 0.151-0.632 0.33-1.142h4.355c-0.48 0.721-0.54 0.931-0.54 2.493zm-17.453 9.761h-4.265v-4.596h-2.043v-3.003h2.043v-6.608c0-2.252 0.18-3.032 0.841-3.753 0.631-0.692 1.562-0.962 3.424-0.962h2.613v3.214h-1.531c-0.992 0-1.082 0.18-1.082 2.463v5.646h2.613v3.003h-2.613zm-12.829-3.994c-1.502 0-2.403-0.391-3.965-1.832v1.412h-4.146v-14.508h4.267v8.14c0 1.261 0.149 1.862 0.63 2.402 0.451 0.511 1.112 0.781 1.833 0.781 0.751 0 1.381-0.3 1.742-0.842 0.359-0.54 0.45-1.109 0.45-2.582v-7.899h4.265v9.401c0 3.424-1.923 5.527-5.076 5.527m-18.086-11.925c-2.193 0-3.425 1.532-3.425 4.266 0 2.703 1.232 4.234 3.394 4.234 2.223 0 3.425-1.531 3.425-4.324 0-2.644-1.262-4.176-3.394-4.176m-0.031 11.894c-4.506 0-7.689-3.153-7.689-7.628 0-4.505 3.183-7.66 7.689-7.66 4.475 0 7.72 3.155 7.72 7.539 0 4.625-3.124 7.749-7.72 7.749m-13.488-5.976-2.674 0.57c-1.351 0.3-1.772 0.57-1.772 1.111 0 0.721 0.81 1.202 2.043 1.202 1.412 0 2.282-0.571 2.463-1.652h3.994c-0.39 3.064-2.643 4.745-6.367 4.745-3.875 0-6.187-1.771-6.187-4.686 0-2.312 1.23-3.484 4.414-4.174l2.643-0.6c1.142-0.271 1.623-0.631 1.623-1.322 0-0.871-0.872-1.413-2.223-1.413-1.712 0-2.613 0.632-2.853 2.013h-3.995c0.24-3.213 2.733-5.106 6.758-5.106s6.518 1.922 6.518 4.987c0 1.171-0.391 2.252-1.081 2.913-0.632 0.661-1.533 1.051-3.304 1.412m-18.026-5.857c-1.863 0-3.064 1.651-3.064 4.205 0 2.553 1.201 4.205 3.064 4.205 1.861 0 3.063-1.683 3.063-4.266 0-2.463-1.23-4.144-3.063-4.144m2.914 10.361c-1.022 1.052-2.134 1.503-3.696 1.503-3.904 0-6.487-3.065-6.487-7.689 0-4.596 2.553-7.63 6.368-7.63 1.772 0 2.913 0.54 3.994 1.952v-1.561h4.085v20.034h-4.264zm-17.545 1.503c-1.503 0-2.404-0.391-3.966-1.832v1.412h-4.145v-14.508h4.266v8.14c0 1.261 0.15 1.862 0.631 2.402 0.45 0.511 1.111 0.781 1.832 0.781 0.751 0 1.382-0.3 1.742-0.842 0.361-0.54 0.45-1.109 0.45-2.582v-7.899h4.265v9.401c0 3.424-1.922 5.527-5.075 5.527m-15.291-10.242c-0.692-1.232-1.714-1.833-3.124-1.833-1.353 0-2.164 0.571-2.164 1.532 0 0.872 0.661 1.382 2.193 1.742l1.533 0.33c0.72 0.151 1.11 0.27 1.562 0.452zm4.143 4.475c0 2.133-0.39 3.304-1.441 4.235-1.142 0.991-2.823 1.501-5.016 1.501-4.085 0-6.157-1.621-6.427-4.956h3.814c0.18 1.173 1.021 1.713 2.583 1.713 1.382 0 2.223-0.511 2.223-1.322 0-0.6-0.331-0.841-1.292-0.991l-2.313-0.391c-4.055-0.661-5.767-2.072-5.767-4.805s2.133-4.536 5.347-4.536c1.712 0 2.733 0.361 4.146 1.533 0.149-0.542 0.149-0.632 0.329-1.142h4.355c-0.48 0.721-0.541 0.931-0.541 2.493zm-20.789 3.335h-7.359v7.538h-4.504v-20.034h4.504v8.651h7.359v-8.651h4.506v20.034h-4.506z"/></g></g></svg>
