<svg xmlns="http://www.w3.org/2000/svg" width="430" height="107"><rect id="backgroundrect" width="100%" height="100%" x="0" y="0" fill="none" stroke="none"/>
  
  
<g class="currentLayer" style=""><title>Layer 1</title><path d="M66.233 39.119H53.06V25.628H45v35.85h8.06v-15.48h13.173v15.48h8.063v-35.85h-8.063zm37.2 5.966c0-3.817-.7-5.912-2.58-7.578-2.044-1.773-5.052-2.686-8.976-2.686-7.31 0-11.018 2.9-11.5 8.869h6.827c.322-2.1 1.827-3.065 4.622-3.065 2.473 0 3.978.914 3.978 2.366 0 1.074-.592 1.5-2.312 1.773l-4.139.7c-7.256 1.183-10.32 3.708-10.32 8.6s3.817 8.117 9.568 8.117a10.08 10.08 0 0 0 7.419-2.743c.267.97.267 1.131.589 2.044h7.793c-.857-1.288-.966-1.666-.966-4.461zm-7.416 8.008c-1.055 2.099-3.244 3.382-5.591 3.279-2.421 0-3.872-1.022-3.872-2.741 0-1.56 1.183-2.473 3.924-3.117l2.743-.591c.957-.178 1.895-.449 2.8-.809zm27.362-18.328c-2.69 0-4.3.7-7.1 3.278v-2.526h-7.414v25.961h7.634V46.914c0-2.258.268-3.334 1.129-4.3a4.3 4.3 0 0 1 3.278-1.4c1.227-.064 2.401.502 3.117 1.5.644.968.807 1.986.807 4.62v14.144h7.63V44.655c.001-6.127-3.439-9.89-9.081-9.89zm31.395 2.69c-1.698-1.829-4.117-2.814-6.61-2.69-6.988 0-11.61 5.485-11.61 13.759 0 8.224 4.569 13.654 11.4 13.654 2.833.181 5.552-1.148 7.149-3.495v2.8h7.308V25.628h-7.638zm-5.213 18.541c-3.334 0-5.483-2.954-5.483-7.525s2.149-7.525 5.483-7.525 5.481 3.012 5.481 7.634c0 4.407-2.203 7.415-5.481 7.415zm32.257-10.481l-4.785-1.02c-2.418-.537-3.171-1.022-3.171-1.988 0-1.29 1.451-2.151 3.656-2.151 2.527 0 4.084 1.022 4.406 2.956h7.149c-.7-5.483-4.73-8.491-11.394-8.491-6.934 0-11.071 3.169-11.071 8.385 0 4.135 2.2 6.235 7.9 7.469l4.73 1.074c2.044.483 2.9 1.129 2.9 2.366 0 1.559-1.56 2.529-3.978 2.529-3.064 0-4.676-1.131-5.107-3.6h-7.147c.429 5.75 4.891 9.137 12.093 9.137s11.664-3.439 11.664-8.924a7.24 7.24 0 0 0-1.934-5.213c-1.13-1.186-2.742-1.882-5.911-2.53zm24.136-10.694c-8.063 0-13.759 5.642-13.759 13.65 0 8.063 5.7 13.707 13.759 13.707 8.008 0 13.815-5.644 13.815-13.491 0-8.276-5.59-13.866-13.815-13.866zm.054 21.284c-3.922 0-6.127-2.741-6.127-7.634 0-4.837 2.2-7.577 6.073-7.577 3.978 0 6.129 2.74 6.129 7.738 0 4.731-2.258 7.473-6.075 7.473zm32.366-21.339c-2.688 0-4.3.7-7.1 3.278v-2.527h-7.419v25.961h7.634V46.914c0-2.258.268-3.334 1.129-4.3a4.3 4.3 0 0 1 3.278-1.4c1.227-.064 2.401.502 3.117 1.5.646.968.807 1.986.807 4.62v14.144h7.63V44.655c.006-6.127-3.434-9.89-9.076-9.89zm22.959-7.148h-7.63v8.224h-3.66v5.374h3.656v11.825c0 4.03.322 5.427 1.5 6.716 1.129 1.238 2.8 1.721 6.125 1.721h4.678v-5.751h-2.74c-1.773 0-1.938-.322-1.938-4.407v-10.1h4.678v-5.378h-4.669zm31.23 17.467c0-3.817-.7-5.912-2.58-7.578-2.044-1.773-5.052-2.686-8.976-2.686-7.31 0-11.018 2.9-11.5 8.869h6.826c.322-2.1 1.827-3.065 4.622-3.065 2.473 0 3.978.914 3.978 2.366 0 1.074-.592 1.5-2.312 1.773l-4.139.7c-7.255 1.183-10.32 3.708-10.32 8.6s3.817 8.117 9.568 8.117a10.08 10.08 0 0 0 7.419-2.743c.267.97.267 1.131.589 2.044h7.795c-.857-1.288-.966-1.666-.966-4.461zm-7.416 8.008c-1.055 2.099-3.243 3.383-5.59 3.28-2.421 0-3.872-1.022-3.872-2.741 0-1.56 1.183-2.473 3.924-3.117l2.743-.591c.957-.178 1.895-.449 2.8-.809zm27.629-18.272a11.09 11.09 0 0 0-7.147 2.525V25.628h-7.634v35.85h7.312v-2.956c2.042 2.69 3.869 3.656 7.093 3.656 6.666 0 11.447-5.859 11.447-14.029.001-7.955-4.458-13.328-11.07-13.328zm-1.934 21.175c-3.332 0-5.535-3.008-5.535-7.525 0-4.459 2.2-7.471 5.535-7.471 3.386 0 5.481 2.9 5.481 7.58.001 4.513-2.147 7.415-5.481 7.415zm17.1 5.483h7.634V25.628h-7.634zm36.555-19.027c-1.938-4.891-6.075-7.63-11.558-7.63-7.847 0-13.276 5.59-13.276 13.7 0 8.171 5.322 13.654 13.332 13.654 6.179 0 11.018-3.226 12.469-8.278h-7.741c-.953 1.555-2.696 2.447-4.515 2.31-3.278 0-5.377-1.934-5.86-5.479h18.437c.128-2.818-.31-5.633-1.289-8.278zm-17.093 2.9c.589-3.064 2.527-4.73 5.481-4.73s4.731 1.666 5.053 4.73zm22.329 20.754v15.266h15.268V66.106z" id="svg_2" class="" fill-opacity="1" fill="#104acc"/></g></svg>