<svg xmlns="http://www.w3.org/2000/svg" xmlns:xlink="http://www.w3.org/1999/xlink" width="1414" height="925" viewBox="0 0 1414 925"><defs><style>.a,.ad,.m{fill:#fff;}.aa,.ab,.af,.b,.c,.d,.e,.u{fill:none;}.b{stroke:#ffeec0;}.aa,.ab,.b,.c,.d,.e,.g,.j,.k,.l,.m,.n,.o,.u,.v,.w,.x,.y,.z{stroke-miterlimit:10;}.aa,.b,.c,.d,.e,.u{stroke-width:8px;}.aa,.b,.c,.d,.e{mix-blend-mode:multiply;isolation:isolate;}.c{stroke:#e6e6ff;}.d{stroke:#ffdfc0;}.e{stroke:#d0f1ff;}.f{fill:#e6e7ed;opacity:0.5;}.g{fill:#dfe1e8;}.g,.j,.k,.l,.m,.n,.o,.z{stroke:#bdbfc6;}.h{font-size:35px;letter-spacing:0.03em;}.h,.i,.p,.q,.r{font-family:Roboto-Medium, Roboto;font-weight:500;}.i{fill:#4767d2;font-size:17px;}.j{fill:#f4f4f4;}.k,.w{fill:#e6e6ff;}.l,.x{fill:#d0f1ff;}.n,.y{fill:#ffdfc0;}.o,.v{fill:#ffeec0;}.ad,.p{font-size:22px;}.aa,.p,.q,.r{opacity:0.7;}.q{font-size:20px;}.r{font-size:19px;}.s{fill:#96a3e4;}.s,.t{font-size:18px;font-family:Roboto-Regular, Roboto;letter-spacing:0.07em;}.t{fill:#9c988b;}.aa,.u{stroke:#bbb190;}.v,.w,.x,.y{stroke:#fff;stroke-width:4px;}.z{fill:url(#i);}.ab{stroke:#4767d2;stroke-width:2px;}.ac{fill:#a89e7d;}.ad{font-family:Roboto-Bold, Roboto;font-weight:700;letter-spacing:0.04em;}.ae{stroke:none;}.ag{filter:url(#k);}.ah{filter:url(#g);}.ai{filter:url(#e);}.aj{filter:url(#c);}.ak{filter:url(#a);}</style><filter id="a" x="295.902" y="394.165" width="40.67" height="40.67" filterUnits="userSpaceOnUse"><feOffset dy="3" input="SourceAlpha"/><feGaussianBlur stdDeviation="3" result="b"/><feFlood flood-color="#ffeec0" flood-opacity="0.6"/><feComposite operator="in" in2="b"/><feComposite in="SourceGraphic"/></filter><filter id="c" x="295.902" y="744.644" width="40.67" height="40.67" filterUnits="userSpaceOnUse"><feOffset dy="3" input="SourceAlpha"/><feGaussianBlur stdDeviation="3" result="d"/><feFlood flood-color="#e6e6ff" flood-opacity="0.6"/><feComposite operator="in" in2="d"/><feComposite in="SourceGraphic"/></filter><filter id="e" x="295.902" y="814.74" width="40.67" height="40.67" filterUnits="userSpaceOnUse"><feOffset dy="3" input="SourceAlpha"/><feGaussianBlur stdDeviation="3" result="f"/><feFlood flood-color="#d0f1ff" flood-opacity="0.6"/><feComposite operator="in" in2="f"/><feComposite in="SourceGraphic"/></filter><filter id="g" x="295.902" y="324.07" width="40.67" height="40.67" filterUnits="userSpaceOnUse"><feOffset dy="3" input="SourceAlpha"/><feGaussianBlur stdDeviation="3" result="h"/><feFlood flood-color="#ffdfc0" flood-opacity="0.6"/><feComposite operator="in" in2="h"/><feComposite in="SourceGraphic"/></filter><linearGradient id="i" y1="0.5" x2="1" y2="0.5" gradientUnits="objectBoundingBox"><stop offset="0" stop-color="#f1f2f5"/><stop offset="1" stop-color="#f1f2f5"/></linearGradient><filter id="k" x="445.175" y="389.528" width="162.897" height="123.401" filterUnits="userSpaceOnUse"><feOffset dy="6" input="SourceAlpha"/><feGaussianBlur stdDeviation="6" result="l"/><feFlood flood-color="#bbb190" flood-opacity="0.239"/><feComposite operator="in" in2="l"/><feComposite in="SourceGraphic"/></filter></defs><g transform="translate(5882.008 7154.628)"><rect class="a" width="1414" height="925" transform="translate(-5882.008 -7154.628)"/><path class="b" d="M-5456.189-6822.49h-47.443c-138.93,0-47.628-105.144-203.932-105.144" transform="translate(141.792 184.506)"/><path class="c" d="M-5456.189-6869.634h-47.443c-138.93,0-47.628,245.334-203.932,245.334" transform="translate(141.792 231.649)"/><path class="d" d="M-5456.189-6791.061h-47.443c-138.93,0-47.628-175.24-203.932-175.24" transform="translate(141.792 153.077)"/><path class="e" d="M-5456.189-6869.634h-47.443c-138.93,0-50.853,315.431-203.932,315.431" transform="translate(141.792 231.649)"/><path class="f" d="M-5600.66-7019.3h-112.8a7.251,7.251,0,0,0-7.252,7.252v62.843h-120.048a7.252,7.252,0,0,0-7.251,7.252v546.264a7.252,7.252,0,0,0,7.251,7.252h240.1a7.252,7.252,0,0,0,7.252-7.252v-616.358A7.251,7.251,0,0,0-5600.66-7019.3Z" transform="translate(27.636 109.999)"/><path class="g" d="M4,0H123.3a4,4,0,0,1,4,4V70.1a0,0,0,0,1,0,0H0a0,0,0,0,1,0,0V4A4,4,0,0,1,4,0Z" transform="translate(-5693.072 -6918.368)"/><text class="h" transform="translate(-5697.157 -7070.495)"><tspan x="-120.853" y="0">INITIAL STATE</tspan></text><text class="i" transform="translate(-5760.731 -6973.786)"><tspan x="-54.163" y="0">visual indexes</tspan></text><text class="i" transform="translate(-5633.621 -6973.477)"><tspan x="-52.179" y="0">header + data</tspan></text><text class="i" transform="translate(-5249.786 -6973.478)"><tspan x="-48.975" y="0">drop indexes</tspan></text><text class="h" transform="translate(-5089.733 -7070.495)"><tspan x="-117.479" y="0">DRAG ACTION</tspan></text><text class="h" transform="translate(-4656.149 -7070.495)"><tspan x="-65.105" y="0">RESULT</tspan></text><rect class="j" width="127.3" height="70.096" transform="translate(-5693.072 -6708.081)"/><rect class="j" width="127.3" height="70.096" transform="translate(-5693.072 -6637.984)"/><rect class="j" width="127.3" height="70.096" transform="translate(-5693.072 -6567.889)"/><rect class="j" width="127.3" height="70.096" transform="translate(-5693.072 -6497.793)"/><rect class="k" width="127.3" height="70.096" transform="translate(-5693.072 -6427.697)"/><path class="l" d="M0,0H127.3a0,0,0,0,1,0,0V66.1a4,4,0,0,1-4,4H0a0,0,0,0,1,0,0V0A0,0,0,0,1,0,0Z" transform="translate(-5693.072 -6357.602)"/><path class="m" d="M4,0H127.3a0,0,0,0,1,0,0V70.1a0,0,0,0,1,0,0H0a0,0,0,0,1,0,0V4A4,4,0,0,1,4,0Z" transform="translate(-5820.373 -6848.271)"/><rect class="m" width="127.3" height="70.096" transform="translate(-5820.373 -6778.176)"/><rect class="m" width="127.3" height="70.096" transform="translate(-5820.373 -6708.081)"/><rect class="m" width="127.3" height="70.096" transform="translate(-5820.373 -6637.984)"/><rect class="m" width="127.3" height="70.096" transform="translate(-5820.373 -6567.889)"/><rect class="m" width="127.3" height="70.096" transform="translate(-5820.373 -6497.793)"/><rect class="m" width="127.3" height="70.096" transform="translate(-5820.373 -6427.697)"/><path class="m" d="M0,0H127.3a0,0,0,0,1,0,0V70.1a0,0,0,0,1,0,0H4a4,4,0,0,1-4-4V0A0,0,0,0,1,0,0Z" transform="translate(-5820.373 -6357.602)"/><rect class="n" width="127.3" height="70.096" transform="translate(-5693.072 -6848.271)"/><rect class="o" width="127.3" height="70.096" transform="translate(-5693.072 -6778.176)"/><text class="p" transform="translate(-5629.671 -6876.47)"><tspan x="-7.09" y="0">A</tspan></text><text class="q" transform="translate(-5630.11 -6806.762)"><tspan x="-12.129" y="0">A1</tspan></text><text class="q" transform="translate(-5630.11 -6738.681)"><tspan x="-12.129" y="0">A2</tspan></text><text class="q" transform="translate(-5630.11 -6666.974)"><tspan x="-12.129" y="0">A3</tspan></text><text class="q" transform="translate(-5630.11 -6597.08)"><tspan x="-12.129" y="0">A4</tspan></text><text class="q" transform="translate(-5630.11 -6527.186)"><tspan x="-12.129" y="0">A5</tspan></text><text class="q" transform="translate(-5630.11 -6455.479)"><tspan x="-12.129" y="0">A6</tspan></text><text class="q" transform="translate(-5630.11 -6386.554)"><tspan x="-12.129" y="0">A7</tspan></text><text class="q" transform="translate(-5630.11 -6317.502)"><tspan x="-12.129" y="0">A8</tspan></text><text class="r" transform="translate(-5757.16 -6807.762)"><tspan x="-5.399" y="0">0</tspan></text><text class="r" transform="translate(-5757.16 -6739.681)"><tspan x="-5.399" y="0">1</tspan></text><text class="r" transform="translate(-5757.16 -6667.974)"><tspan x="-5.399" y="0">2</tspan></text><text class="r" transform="translate(-5757.16 -6598.08)"><tspan x="-5.399" y="0">3</tspan></text><text class="r" transform="translate(-5757.16 -6528.186)"><tspan x="-5.399" y="0">4</tspan></text><text class="r" transform="translate(-5757.16 -6456.479)"><tspan x="-5.399" y="0">5</tspan></text><text class="r" transform="translate(-5757.16 -6387.554)"><tspan x="-5.399" y="0">6</tspan></text><text class="r" transform="translate(-5757.16 -6318.502)"><tspan x="-5.399" y="0">7</tspan></text><text class="s" transform="translate(-5215.691 -6842.554)"><tspan x="-59.404" y="0">0 -------</tspan></text><text class="s" transform="translate(-5215.691 -6774.167)"><tspan x="-59.404" y="0">1 -------</tspan></text><text class="s" transform="translate(-5215.691 -6704.008)"><tspan x="-59.404" y="0">2 -------</tspan></text><text class="t" transform="translate(-5215.691 -6633.771)"><tspan x="-59.404" y="0">3 -------</tspan></text><text class="s" transform="translate(-5215.691 -6563.572)"><tspan x="-59.404" y="0">4 -------</tspan></text><text class="s" transform="translate(-5215.691 -6493.675)"><tspan x="-59.404" y="0">5 -------</tspan></text><text class="s" transform="translate(-5215.691 -6423.779)"><tspan x="-59.404" y="0">6 -------</tspan></text><text class="s" transform="translate(-5215.691 -6353.278)"><tspan x="-59.404" y="0">7 -------</tspan></text><text class="s" transform="translate(-5215.691 -6283.382)"><tspan x="-59.404" y="0">8 -------</tspan></text><path class="u" d="M-5575.9-6848.628l14.5-14.5-14.5-14.5" transform="translate(248.813 225.147)"/><g class="ak" transform="matrix(1, 0, 0, 1, -5882.01, -7154.63)"><g class="v" transform="translate(308.9 404.17)"><circle class="ae" cx="7.335" cy="7.335" r="7.335"/><circle class="af" cx="7.335" cy="7.335" r="9.335"/></g></g><g class="aj" transform="matrix(1, 0, 0, 1, -5882.01, -7154.63)"><g class="w" transform="translate(308.9 754.64)"><circle class="ae" cx="7.335" cy="7.335" r="7.335"/><circle class="af" cx="7.335" cy="7.335" r="9.335"/></g></g><g class="ai" transform="matrix(1, 0, 0, 1, -5882.01, -7154.63)"><g class="x" transform="translate(308.9 824.74)"><circle class="ae" cx="7.335" cy="7.335" r="7.335"/><circle class="af" cx="7.335" cy="7.335" r="9.335"/></g></g><g class="ah" transform="matrix(1, 0, 0, 1, -5882.01, -7154.63)"><g class="y" transform="translate(308.9 334.07)"><circle class="ae" cx="7.335" cy="7.335" r="7.335"/><circle class="af" cx="7.335" cy="7.335" r="9.335"/></g></g><path class="f" d="M-5265.381-7018.3h-112.8a7.251,7.251,0,0,0-7.251,7.251v62.844H-5505.48a7.251,7.251,0,0,0-7.251,7.251v546.265a7.252,7.252,0,0,0,7.251,7.251h240.1a7.252,7.252,0,0,0,7.252-7.251v-616.359A7.251,7.251,0,0,0-5265.381-7018.3Z" transform="translate(300.156 110.811)"/><path class="g" d="M4,0H123.3a4,4,0,0,1,4,4V70.1a0,0,0,0,1,0,0H0a0,0,0,0,1,0,0V4A4,4,0,0,1,4,0Z" transform="translate(-5085.274 -6918.368)"/><rect class="n" width="127.3" height="70.096" transform="translate(-5085.274 -6848.271)"/><rect class="o" width="127.3" height="70.096" transform="translate(-5085.274 -6778.176)"/><rect class="z" width="127.3" height="70.096" transform="translate(-5085.274 -6708.081)"/><rect class="j" width="127.3" height="70.096" transform="translate(-5085.274 -6637.984)"/><rect class="j" width="127.3" height="70.096" transform="translate(-5085.274 -6567.889)"/><rect class="j" width="127.3" height="70.096" transform="translate(-5085.274 -6497.793)"/><path class="m" d="M4,0H127.3a0,0,0,0,1,0,0V70.1a0,0,0,0,1,0,0H0a0,0,0,0,1,0,0V4A4,4,0,0,1,4,0Z" transform="translate(-5212.574 -6848.271)"/><rect class="m" width="127.3" height="70.096" transform="translate(-5212.574 -6778.176)"/><rect class="m" width="127.3" height="70.096" transform="translate(-5212.574 -6708.081)"/><rect class="m" width="127.3" height="70.096" transform="translate(-5212.574 -6637.984)"/><rect class="m" width="127.3" height="70.096" transform="translate(-5212.574 -6567.889)"/><rect class="m" width="127.3" height="70.096" transform="translate(-5212.574 -6497.793)"/><rect class="m" width="127.3" height="70.096" transform="translate(-5212.574 -6427.697)"/><path class="m" d="M0,0H127.3a0,0,0,0,1,0,0V70.1a0,0,0,0,1,0,0H4a4,4,0,0,1-4-4V0A0,0,0,0,1,0,0Z" transform="translate(-5212.574 -6357.602)"/><text class="p" transform="translate(-5021.874 -6876.47)"><tspan x="-7.09" y="0">A</tspan></text><text class="q" transform="translate(-5022.312 -6806.762)"><tspan x="-12.129" y="0">A1</tspan></text><text class="q" transform="translate(-5022.312 -6738.681)"><tspan x="-12.129" y="0">A2</tspan></text><text class="q" transform="translate(-5022.312 -6666.974)"><tspan x="-12.129" y="0">A3</tspan></text><text class="q" transform="translate(-5022.312 -6597.08)"><tspan x="-12.129" y="0">A4</tspan></text><text class="q" transform="translate(-5022.312 -6527.186)"><tspan x="-12.129" y="0">A5</tspan></text><text class="q" transform="translate(-5022.312 -6455.479)"><tspan x="-12.129" y="0">A6</tspan></text><text class="r" transform="translate(-5149.362 -6807.762)"><tspan x="-5.399" y="0">0</tspan></text><text class="r" transform="translate(-5149.362 -6739.681)"><tspan x="-5.399" y="0">1</tspan></text><text class="r" transform="translate(-5149.362 -6667.974)"><tspan x="-5.399" y="0">2</tspan></text><text class="r" transform="translate(-5149.362 -6598.08)"><tspan x="-5.399" y="0">3</tspan></text><text class="r" transform="translate(-5149.362 -6528.186)"><tspan x="-5.399" y="0">4</tspan></text><text class="r" transform="translate(-5149.362 -6456.479)"><tspan x="-5.399" y="0">5</tspan></text><text class="r" transform="translate(-5149.362 -6387.554)"><tspan x="-5.399" y="0">6</tspan></text><text class="r" transform="translate(-5149.362 -6318.502)"><tspan x="-5.399" y="0">7</tspan></text><line class="aa" x2="254.098" transform="translate(-5212.508 -6637.984)"/><path class="f" d="M-5027.52-7018.3h-112.8a7.251,7.251,0,0,0-7.251,7.251v62.844h-120.049a7.251,7.251,0,0,0-7.252,7.251v546.265a7.252,7.252,0,0,0,7.252,7.251h240.1a7.252,7.252,0,0,0,7.251-7.251v-616.359A7.251,7.251,0,0,0-5027.52-7018.3Z" transform="translate(493.496 110.811)"/><path class="g" d="M4,0H123.3a4,4,0,0,1,4,4V70.1a0,0,0,0,1,0,0H0a0,0,0,0,1,0,0V4A4,4,0,0,1,4,0Z" transform="translate(-4654.075 -6918.368)"/><rect class="z" width="127.3" height="70.096" transform="translate(-4654.075 -6848.271)"/><rect class="j" width="127.3" height="70.096" transform="translate(-4654.075 -6497.793)"/><rect class="j" width="127.3" height="70.096" transform="translate(-4654.075 -6427.697)"/><path class="j" d="M0,0H127.3a0,0,0,0,1,0,0V66.1a4,4,0,0,1-4,4H0a0,0,0,0,1,0,0V0A0,0,0,0,1,0,0Z" transform="translate(-4654.075 -6357.602)"/><path class="m" d="M4,0H127.3a0,0,0,0,1,0,0V70.1a0,0,0,0,1,0,0H0a0,0,0,0,1,0,0V4A4,4,0,0,1,4,0Z" transform="translate(-4781.375 -6848.271)"/><rect class="m" width="127.3" height="70.096" transform="translate(-4781.375 -6778.176)"/><rect class="m" width="127.3" height="70.096" transform="translate(-4781.375 -6708.081)"/><rect class="m" width="127.3" height="70.096" transform="translate(-4781.375 -6637.984)"/><rect class="m" width="127.3" height="70.096" transform="translate(-4781.375 -6567.889)"/><rect class="m" width="127.3" height="70.096" transform="translate(-4781.375 -6497.793)"/><rect class="m" width="127.3" height="70.096" transform="translate(-4781.375 -6427.697)"/><path class="m" d="M0,0H127.3a0,0,0,0,1,0,0V70.1a0,0,0,0,1,0,0H4a4,4,0,0,1-4-4V0A0,0,0,0,1,0,0Z" transform="translate(-4781.375 -6357.602)"/><text class="p" transform="translate(-4590.674 -6876.47)"><tspan x="-7.09" y="0">A</tspan></text><text class="q" transform="translate(-4591.112 -6806.762)"><tspan x="-12.129" y="0">A3</tspan></text><rect class="n" width="127.3" height="70.096" transform="translate(-4654.075 -6778.176)"/><rect class="o" width="127.3" height="70.096" transform="translate(-4654.075 -6708.081)"/><rect class="k" width="127.3" height="70.096" transform="translate(-4654.075 -6637.984)"/><text class="q" transform="translate(-4591.112 -6738.681)"><tspan x="-12.129" y="0">A1</tspan></text><rect class="l" width="127.3" height="70.096" transform="translate(-4654.075 -6567.889)"/><text class="q" transform="translate(-4591.112 -6666.974)"><tspan x="-12.129" y="0">A2</tspan></text><text class="q" transform="translate(-4591.112 -6597.08)"><tspan x="-12.129" y="0">A7</tspan></text><text class="q" transform="translate(-4591.112 -6527.186)"><tspan x="-12.129" y="0">A8</tspan></text><text class="q" transform="translate(-4591.112 -6455.479)"><tspan x="-12.129" y="0">A4</tspan></text><rect class="k" width="127.3" height="70.096" transform="translate(-5085.274 -6427.697)"/><path class="l" d="M0,0H127.3a0,0,0,0,1,0,0V66.1a4,4,0,0,1-4,4H0a0,0,0,0,1,0,0V0A0,0,0,0,1,0,0Z" transform="translate(-5085.274 -6357.602)"/><text class="q" transform="translate(-4591.112 -6386.554)"><tspan x="-12.129" y="0">A5</tspan></text><text class="q" transform="translate(-4591.112 -6317.502)"><tspan x="-12.129" y="0">A6</tspan></text><text class="r" transform="translate(-4718.162 -6807.762)"><tspan x="-5.399" y="0">0</tspan></text><text class="r" transform="translate(-4718.162 -6739.681)"><tspan x="-5.399" y="0">1</tspan></text><text class="r" transform="translate(-4718.162 -6667.974)"><tspan x="-5.399" y="0">2</tspan></text><text class="r" transform="translate(-4718.162 -6598.08)"><tspan x="-5.399" y="0">3</tspan></text><text class="r" transform="translate(-4718.162 -6528.186)"><tspan x="-5.399" y="0">4</tspan></text><text class="r" transform="translate(-4718.162 -6456.479)"><tspan x="-5.399" y="0">5</tspan></text><text class="r" transform="translate(-4718.162 -6387.554)"><tspan x="-5.399" y="0">6</tspan></text><text class="r" transform="translate(-4718.162 -6318.502)"><tspan x="-5.399" y="0">7</tspan></text><g transform="translate(-5819.47 -6954.732)"><g transform="translate(0 7.201)"><line class="ab" x1="126.849"/></g><line class="ab" y1="13.8"/><g transform="translate(126.85 0.301)"><line class="ab" y1="13.8"/></g></g><g transform="translate(-5692.621 -6954.575)"><g transform="translate(0 7.201)"><line class="ab" x1="126.849"/></g><line class="ab" y1="13.8"/><g transform="translate(126.849)"><line class="ab" y1="13.8"/></g></g><g transform="translate(-5279.852 -6954.575)"><g transform="translate(0 7.201)"><line class="ab" x1="67.278"/></g><line class="ab" y1="13.8"/><g transform="translate(67.278)"><line class="ab" y1="13.8"/></g></g><text class="q" transform="translate(-5022.312 -6386.554)"><tspan x="-12.129" y="0">A7</tspan></text><text class="q" transform="translate(-5022.312 -6317.502)"><tspan x="-12.129" y="0">A8</tspan></text><g transform="translate(-5418.833 -6753.1)"><g class="ag" transform="matrix(1, 0, 0, 1, -463.17, -401.53)"><path class="ac" d="M-5507.9-6933.135H-5618.22a8.288,8.288,0,0,0-8.289,8.29v59.3a8.289,8.289,0,0,0,8.289,8.291h43.641l11.519,11.519,11.519-11.519h43.639a8.292,8.292,0,0,0,8.292-8.291v-59.3A8.292,8.292,0,0,0-5507.9-6933.135Z" transform="translate(6089.68 7334.66)"/></g><text class="ad" transform="translate(61.566 31.911)"><tspan x="-23.798" y="0">drop</tspan><tspan x="-38.487" y="24">index 3</tspan></text></g></g></svg>