<svg width="145" height="22" viewBox="0 0 145 22" fill="none" xmlns="http://www.w3.org/2000/svg">
<g clip-path="url(#clip0_348_1486)">
<path d="M0 0.767578H4.15959V6.28022H8.90445V0.767578H13.0434V15.2042H8.90445V9.51079H4.15959V15.2042H0V0.767578Z" fill="white"/>
<path d="M14.7969 12.2763C14.7969 9.79345 16.897 8.82369 20.4099 8.82369H21.4198V8.58154C21.4198 7.5728 21.1777 6.90542 20.0266 6.90542C19.0374 6.90542 18.6736 7.4913 18.5932 8.15749H15.2008C15.3627 5.61319 17.3613 4.3623 20.2487 4.3623C23.1562 4.3623 25.0136 5.55295 25.0136 8.35948V15.2045H21.5008V13.9725C20.9958 14.7403 20.0668 15.4467 18.3712 15.4467C16.473 15.4467 14.7969 14.5182 14.7969 12.2763ZM21.4198 11.5097V10.8636H20.4708C19.0173 10.8636 18.3712 11.1459 18.3712 12.0141C18.3712 12.6201 18.7746 13.0039 19.6227 13.0039C20.6527 13.0039 21.4198 12.4181 21.4198 11.5097V11.5097Z" fill="white"/>
<path d="M27.0703 4.64461H30.6848V6.34081C31.25 5.25057 32.4005 4.3623 34.1575 4.3623C36.1968 4.3623 37.6101 5.63446 37.6101 8.3394V15.2045H33.9957V9.06701C33.9957 7.87519 33.5315 7.28931 32.4814 7.28931C31.4112 7.28931 30.6848 7.93543 30.6848 9.28908V15.2045H27.0703V4.64461Z" fill="white"/>
<path d="M39.1416 10.0354V9.87362C39.1416 6.28042 41.1201 4.36216 43.6242 4.36216C45.2797 4.36216 46.2689 5.06851 46.8749 6.13868V0H50.4888V15.2044H46.8749V13.4881C46.3499 14.5783 45.1787 15.4465 43.5835 15.4465C41.1408 15.4465 39.1416 13.6901 39.1416 10.0354ZM46.9759 9.97521V9.81338C46.9759 8.03686 46.2288 7.08718 44.8958 7.08718C43.5433 7.08718 42.8163 7.9967 42.8163 9.83346V9.99529C42.8163 11.7718 43.6036 12.6802 44.8556 12.6802C46.168 12.6802 46.9759 11.7718 46.9759 9.97521H46.9759Z" fill="white"/>
<path d="M51.9199 11.8523H55.2515C55.3726 12.6201 55.7163 13.0441 56.7457 13.0441C57.634 13.0441 58.0379 12.7004 58.0379 12.1759C58.0379 11.6716 57.5336 11.4282 56.0795 11.2274C53.2529 10.8636 52.0617 10.0356 52.0617 7.83502C52.0617 5.49271 54.1412 4.3623 56.5845 4.3623C59.189 4.3623 61.0063 5.25057 61.2484 7.77478H57.9777C57.836 7.06725 57.4527 6.7247 56.6246 6.7247C55.8374 6.7247 55.4334 7.06725 55.4334 7.55154C55.4334 8.05709 55.9177 8.25907 57.2099 8.41972C60.1381 8.78353 61.5514 9.5513 61.5514 11.8121C61.5514 14.3163 59.694 15.4467 56.7658 15.4467C53.7573 15.4467 52.0008 14.1946 51.9199 11.8523Z" fill="white"/>
<path d="M62.5596 10.0557V9.89385C62.5596 6.50263 65.0832 4.3623 68.3539 4.3623C71.6052 4.3623 74.1087 6.44121 74.1087 9.79345V9.95527C74.1087 13.3878 71.5845 15.4467 68.3338 15.4467C65.0832 15.4467 62.5596 13.4682 62.5596 10.0557ZM70.434 9.99543V9.83361C70.434 8.05708 69.7271 7.06725 68.3539 7.06725C67.0015 7.06725 66.2544 8.01693 66.2544 9.79345V9.95527C66.2544 11.772 66.9613 12.7618 68.3539 12.7618C69.707 12.7618 70.434 11.7519 70.434 9.99544V9.99543Z" fill="white"/>
<path d="M75.6807 4.64461H79.2951V6.34081C79.8603 5.25057 81.0108 4.3623 82.7678 4.3623C84.8072 4.3623 86.2205 5.63446 86.2205 8.3394V15.2045H82.606V9.06701C82.606 7.87519 82.1418 7.28931 81.0917 7.28931C80.0216 7.28931 79.2951 7.93543 79.2951 9.28908V15.2045H75.6807V4.64461Z" fill="white"/>
<path d="M88.7608 11.8124V7.1077H87.4893V4.64491H88.7608V2.44434H92.3753V4.64491H94.4548V7.1077H92.3753V11.4699C92.3753 12.2365 92.7592 12.5802 93.4454 12.5802C93.7973 12.5861 94.1469 12.5243 94.4754 12.3983V15.1446C93.8255 15.3337 93.1531 15.4354 92.4763 15.447C90.0938 15.447 88.7608 14.2965 88.7608 11.8124Z" fill="white"/>
<path d="M95.5234 12.2763C95.5234 9.79345 97.6236 8.82369 101.136 8.82369H102.146V8.58154C102.146 7.5728 101.904 6.90542 100.753 6.90542C99.7639 6.90542 99.4001 7.4913 99.3198 8.15749H95.9274C96.0892 5.61319 98.0878 4.3623 100.975 4.3623C103.883 4.3623 105.74 5.55295 105.74 8.35948V15.2045H102.227V13.9725C101.722 14.7403 100.793 15.4467 99.0977 15.4467C97.1996 15.4467 95.5234 14.5182 95.5234 12.2763ZM102.146 11.5097V10.8636H101.197C99.7439 10.8636 99.0977 11.1459 99.0977 12.0141C99.0977 12.6201 99.5011 13.0039 100.349 13.0039C101.379 13.0039 102.146 12.4181 102.146 11.5097V11.5097Z" fill="white"/>
<path d="M111.411 13.5684V15.2044H107.797V0H111.411V6.219C111.745 5.64427 112.225 5.16906 112.804 4.84258C113.383 4.51611 114.038 4.35024 114.702 4.36216C117.166 4.36216 119.165 6.219 119.165 9.83346V9.99529C119.165 13.6298 117.166 15.4465 114.682 15.4465C113.107 15.4465 111.936 14.7 111.411 13.5684ZM115.489 9.99529V9.83347C115.489 7.97544 114.682 7.08718 113.41 7.08718C112.098 7.08718 111.31 8.03687 111.31 9.81339V9.97521C111.31 11.7718 112.098 12.6802 113.41 12.6802C114.763 12.6802 115.489 11.7316 115.489 9.99529Z" fill="white"/>
<path d="M120.878 0H124.472V15.2044H120.878V0Z" fill="white"/>
<path d="M126.147 10.0557V9.89385C126.147 6.50263 128.671 4.3623 131.861 4.3623C134.749 4.3623 137.232 6.01716 137.232 9.81353V10.762H129.802C129.903 12.1558 130.71 12.9638 132.003 12.9638C133.194 12.9638 133.699 12.4181 133.84 11.7117H137.232C136.909 14.0942 135.072 15.4467 131.882 15.4467C128.57 15.4467 126.147 13.5083 126.147 10.0557ZM133.719 8.72329C133.658 7.45114 133.033 6.74478 131.861 6.74478C130.771 6.74478 130.024 7.45114 129.842 8.72329H133.719Z" fill="white"/>
<path d="M138.837 15.9053H144.932V22H138.837V15.9053Z" fill="#27C2FF"/>
</g>
<defs>
<clipPath id="clip0_348_1486">
<rect width="144.932" height="22" fill="white"/>
</clipPath>
</defs>
</svg>
