<svg width="16" height="16" viewBox="0 0 16 16" fill="none" xmlns="http://www.w3.org/2000/svg">
<path d="M5.73307 5.7334L12.6664 12.6667M5.73307 10.267L12.6664 3.33366M2 4.66699C2 5.19743 2.21071 5.70613 2.58579 6.08121C2.96086 6.45628 3.46957 6.66699 4 6.66699C4.53043 6.66699 5.03914 6.45628 5.41421 6.08121C5.78929 5.70613 6 5.19743 6 4.66699C6 4.13656 5.78929 3.62785 5.41421 3.25278C5.03914 2.87771 4.53043 2.66699 4 2.66699C3.46957 2.66699 2.96086 2.87771 2.58579 3.25278C2.21071 3.62785 2 4.13656 2 4.66699ZM2 11.3337C2 11.8641 2.21071 12.3728 2.58579 12.7479C2.96086 13.1229 3.46957 13.3337 4 13.3337C4.53043 13.3337 5.03914 13.1229 5.41421 12.7479C5.78929 12.3728 6 11.8641 6 11.3337C6 10.8032 5.78929 10.2945 5.41421 9.91945C5.03914 9.54437 4.53043 9.33366 4 9.33366C3.46957 9.33366 2.96086 9.54437 2.58579 9.91945C2.21071 10.2945 2 10.8032 2 11.3337Z" stroke="black" stroke-linecap="round" stroke-linejoin="round"/>
</svg>
