<svg xmlns="http://www.w3.org/2000/svg" width="54" height="54" viewBox="0 0 54 54"><defs><style>.a{fill:#f7df1e;}</style></defs><g transform="translate(0 0)"><path class="a" d="M5315.626,1075.37v54h54v-54Z" transform="translate(-5315.626 -1075.37)"/><path d="M5340.112,1109.008c0,5.265-3.082,7.647-7.572,7.647a7.85,7.85,0,0,1-7.608-4.627l4.127-2.508c.8,1.422,1.524,2.62,3.255,2.62,1.674,0,2.722-.661,2.722-3.193V1091.7h5.077Zm11.988,7.659c-4.7,0-7.76-2.245-9.245-5.189l4.129-2.395a5.52,5.52,0,0,0,5,3.081c2.1,0,3.445-1.048,3.445-2.507,0-1.734-1.386-2.345-3.693-3.367l-1.273-.537c-3.653-1.559-6.087-3.518-6.087-7.647,0-3.8,2.894-6.7,7.421-6.7a7.51,7.51,0,0,1,7.222,4.054l-3.954,2.545c-.86-1.56-1.807-2.184-3.268-2.184a2.2,2.2,0,0,0-2.419,2.184c0,1.521.934,2.133,3.12,3.08l1.271.537c4.3,1.846,6.734,3.742,6.734,7.971C5360.5,1114.161,5356.926,1116.668,5352.1,1116.668Z" transform="translate(-5310.708 -1066.897)"/></g></svg>