<svg width="16" height="16" viewBox="0 0 16 16" fill="none" xmlns="http://www.w3.org/2000/svg">
<path d="M7.05703 7.05794C6.80702 7.30804 6.6666 7.64721 6.66667 8.00085C6.66673 8.35448 6.80727 8.6936 7.05737 8.94361C7.30747 9.19362 7.64664 9.33404 8.00027 9.33398C8.3539 9.33392 8.69302 9.19338 8.94303 8.94328M11.1207 11.1154C10.1855 11.7005 9.1031 12.0073 8 12C5.6 12 3.6 10.6667 2 8.00002C2.848 6.58669 3.808 5.54802 4.88 4.88402M6.78667 4.12002C7.18603 4.03917 7.59254 3.99897 8 4.00002C10.4 4.00002 12.4 5.33335 14 8.00002C13.556 8.74002 13.0807 9.37802 12.5747 9.91335M2 2L14 14" stroke="black" stroke-linecap="round" stroke-linejoin="round"/>
</svg>
