<svg width="16" height="16" viewBox="0 0 16 16" fill="none" xmlns="http://www.w3.org/2000/svg">
<path d="M2.99935 7.99967L6.99935 7.99967M6.99935 7.99967L4.99935 5.99967M6.99935 7.99967L4.99935 9.99967M12.9993 7.99967L8.99935 7.99967M8.99935 7.99967L10.9993 5.99967M8.99935 7.99967L10.9993 9.99967M2.66602 5.33301L2.66602 3.99967C2.66602 3.64605 2.80649 3.30691 3.05654 3.05687C3.30659 2.80682 3.64573 2.66634 3.99935 2.66634L5.33268 2.66634M2.66602 10.6663L2.66602 11.9997C2.66602 12.3533 2.80649 12.6924 3.05654 12.9425C3.30659 13.1925 3.64573 13.333 3.99935 13.333L5.33268 13.333M10.666 2.66634L11.9993 2.66634C12.353 2.66634 12.6921 2.80682 12.9422 3.05686C13.1922 3.30691 13.3327 3.64605 13.3327 3.99967L13.3327 5.33301M10.666 13.333L11.9993 13.333C12.353 13.333 12.6921 13.1925 12.9422 12.9425C13.1922 12.6924 13.3327 12.3533 13.3327 11.9997L13.3327 10.6663" stroke="black" stroke-linecap="round" stroke-linejoin="round"/>
</svg>
