<svg width="16" height="16" viewBox="0 0 16 16" fill="none" xmlns="http://www.w3.org/2000/svg">
<path d="M2.67467 11.158C2.47023 11.0415 2.30018 10.873 2.18172 10.6697C2.06325 10.4663 2.00057 10.2353 2 10V3.33333C2 2.6 2.6 2 3.33333 2H10C10.5 2 10.772 2.25667 11 2.66667M4.66667 6.44467C4.66667 5.97311 4.85399 5.52087 5.18743 5.18743C5.52087 4.85399 5.97311 4.66667 6.44467 4.66667H12.222C12.4555 4.66667 12.6867 4.71266 12.9024 4.80201C13.1181 4.89136 13.3141 5.02233 13.4792 5.18743C13.6443 5.35253 13.7753 5.54854 13.8647 5.76426C13.954 5.97997 14 6.21118 14 6.44467V12.222C14 12.4555 13.954 12.6867 13.8647 12.9024C13.7753 13.1181 13.6443 13.3141 13.4792 13.4792C13.3141 13.6443 13.1181 13.7753 12.9024 13.8647C12.6867 13.954 12.4555 14 12.222 14H6.44467C6.21118 14 5.97997 13.954 5.76426 13.8647C5.54854 13.7753 5.35253 13.6443 5.18743 13.4792C5.02233 13.3141 4.89136 13.1181 4.80201 12.9024C4.71266 12.6867 4.66667 12.4555 4.66667 12.222V6.44467Z" stroke="black" stroke-linecap="round" stroke-linejoin="round"/>
</svg>
