<svg width="15" height="15" viewBox="0 0 15 15" fill="none" xmlns="http://www.w3.org/2000/svg">
<path d="M5 5.625H10M5 8.125H8.75M7.8125 12.8125L7.5 13.125L5.625 11.25H3.75C3.25272 11.25 2.77581 11.0525 2.42417 10.7008C2.07254 10.3492 1.875 9.87228 1.875 9.375V4.375C1.875 3.87772 2.07254 3.40081 2.42417 3.04917C2.77581 2.69754 3.25272 2.5 3.75 2.5H11.25C11.7473 2.5 12.2242 2.69754 12.5758 3.04917C12.9275 3.40081 13.125 3.87772 13.125 4.375V7.8125M10 11.875H13.75M11.875 10V13.75" stroke="black" stroke-linecap="round" stroke-linejoin="round"/>
</svg>
