<svg width="16" height="16" viewBox="0 0 16 16" fill="none" xmlns="http://www.w3.org/2000/svg">
<path d="M4.33406 5.66672C3.98044 5.66672 3.00073 5.66672 3.00073 5.66672C3.00073 5.66672 3.00073 4.68701 3.00073 4.33339C3.00073 3.97977 3.00073 3.00046 3.00073 3.00046C3.00073 3.00046 3.98044 3.00006 4.33406 3.00006C4.68769 3.00006 8.5 3 8.5 3C8.5 3 8.5 3.97977 8.5 4.33339M4.33406 5.66672C4.68769 5.66672 8.5 5.66672 8.5 5.66672M4.33406 5.66672L4.33406 9.66672C4.33406 10.0203 4.47454 10.3595 4.72459 10.6095C4.97464 10.8596 5.31378 11.0001 5.6674 11.0001L9.00073 11.0001M8.5 5.66672C8.5 5.66672 8.5 4.68701 8.5 4.33339M8.5 5.66672C8.5 5.66672 11.9804 5.66672 12.3341 5.66672C12.6877 5.66672 13.6674 5.66672 13.6674 5.66672C13.6674 5.66672 13.6674 4.68701 13.6674 4.33339C13.6674 3.97977 13.668 3.00046 13.668 3.00046C13.668 3.00046 12.6877 3.00006 12.3341 3.00006C11.9804 3.00006 8.50138 3.00021 8.50138 3.00021C8.50138 3.00021 8.5 3.97977 8.5 4.33339M9.00073 11.0001L7.00073 9.00006M9.00073 11.0001L7.00073 13.0001M13.6674 9.66672L11.0007 12.3334M11.0007 9.66672L13.6674 12.3334" stroke="black" stroke-linecap="round" stroke-linejoin="round"/>
</svg>
