<svg width="16" height="16" viewBox="0 0 16 16" fill="none" xmlns="http://www.w3.org/2000/svg">
<path d="M10.6673 6.66699L13.334 9.33366M10.6673 9.33366L13.334 6.66699M4.00065 2.66699H6.66732C6.84413 2.66699 7.0137 2.73723 7.13872 2.86225C7.26375 2.98728 7.33398 3.15685 7.33398 3.33366V12.667C7.33398 12.8438 7.26375 13.0134 7.13872 13.1384C7.0137 13.2634 6.84413 13.3337 6.66732 13.3337H4.00065C3.82384 13.3337 3.65427 13.2634 3.52925 13.1384C3.40422 13.0134 3.33398 12.8438 3.33398 12.667V3.33366C3.33398 3.15685 3.40422 2.98728 3.52925 2.86225C3.65427 2.73723 3.82384 2.66699 4.00065 2.66699Z" stroke="black" stroke-linecap="round" stroke-linejoin="round"/>
</svg>
