<svg width="16" height="16" viewBox="0 0 16 16" fill="none" xmlns="http://www.w3.org/2000/svg">
<path d="M3.33398 8.00033H6.00065M4.66732 6.66699V9.33366M9.33398 2.66699H12.0007C12.1775 2.66699 12.347 2.73723 12.4721 2.86225C12.5971 2.98728 12.6673 3.15685 12.6673 3.33366V12.667C12.6673 12.8438 12.5971 13.0134 12.4721 13.1384C12.347 13.2634 12.1775 13.3337 12.0007 13.3337H9.33398C9.15717 13.3337 8.9876 13.2634 8.86258 13.1384C8.73756 13.0134 8.66732 12.8438 8.66732 12.667V3.33366C8.66732 3.15685 8.73756 2.98728 8.86258 2.86225C8.9876 2.73723 9.15717 2.66699 9.33398 2.66699Z" stroke="black" stroke-linecap="round" stroke-linejoin="round"/>
</svg>
