<svg width="15" height="15" viewBox="0 0 15 15" fill="none" xmlns="http://www.w3.org/2000/svg">
<path d="M5 5.625H10M5 8.125H8.75M7.5 13.125L5.625 11.25H3.75C3.25272 11.25 2.77581 11.0525 2.42417 10.7008C2.07254 10.3492 1.875 9.87228 1.875 9.375V4.375C1.875 3.87772 2.07254 3.40081 2.42417 3.04917C2.77581 2.69754 3.25272 2.5 3.75 2.5H11.25C11.7473 2.5 12.2242 2.69754 12.5758 3.04917C12.9275 3.40081 13.125 3.87772 13.125 4.375V7.5M10.625 13.125L13.125 10.625M10 11.875C10 12.3723 10.1975 12.8492 10.5492 13.2008C10.9008 13.5525 11.3777 13.75 11.875 13.75C12.3723 13.75 12.8492 13.5525 13.2008 13.2008C13.5525 12.8492 13.75 12.3723 13.75 11.875C13.75 11.3777 13.5525 10.9008 13.2008 10.5492C12.8492 10.1975 12.3723 10 11.875 10C11.3777 10 10.9008 10.1975 10.5492 10.5492C10.1975 10.9008 10 11.3777 10 11.875Z" stroke="black" stroke-linecap="round" stroke-linejoin="round"/>
</svg>
