<svg width="16" height="16" viewBox="0 0 16 16" fill="none" xmlns="http://www.w3.org/2000/svg">
<g clip-path="url(#clip0_343_18984)">
<path d="M3.6185 11.4967L7.66916 13.8107C7.76987 13.8682 7.88385 13.8985 7.99983 13.8985C8.11581 13.8985 8.22979 13.8682 8.3305 13.8107L12.3812 11.4967C12.47 11.4459 12.546 11.3754 12.6033 11.2905C12.6605 11.2057 12.6974 11.1088 12.7112 11.0073L13.5932 4.538C13.6139 4.38603 13.5815 4.23157 13.5016 4.10065C13.4217 3.96974 13.2991 3.87038 13.1545 3.81933L8.22116 2.078C8.07771 2.02743 7.92128 2.02743 7.77783 2.078L2.84516 3.82C2.70053 3.87105 2.57793 3.97041 2.49802 4.10132C2.41811 4.23223 2.38579 4.3867 2.4065 4.53867L3.2885 11.008C3.30225 11.1094 3.33917 11.2063 3.3964 11.2912C3.45362 11.376 3.52962 11.4459 3.6185 11.4967Z" stroke="#1A42E8" stroke-linecap="round" stroke-linejoin="round"/>
<path d="M6 10L8 4.66666L10 10" stroke="#1A42E8" stroke-linecap="round" stroke-linejoin="round"/>
<path d="M6.66602 8.66666H9.33268" stroke="#1A42E8" stroke-linecap="round" stroke-linejoin="round"/>
</g>
<defs>
<clipPath id="clip0_343_18984">
<rect width="16" height="16" fill="white"/>
</clipPath>
</defs>
</svg>
