<svg width="16" height="16" viewBox="0 0 16 16" fill="none" xmlns="http://www.w3.org/2000/svg">
<g clip-path="url(#clip0_343_18874)">
<path d="M6 12.6667C3.13333 13.6 3.13333 11 2 10.6667M10 14V11.6667C10 11 10.0667 10.7333 9.66667 10.3333C11.5333 10.1333 13.3333 9.4 13.3333 6.33334C13.3325 5.53664 13.0217 4.77154 12.4667 4.2C12.727 3.50798 12.703 2.74109 12.4 2.06667C12.4 2.06667 11.6667 1.86667 10.0667 2.93334C8.71149 2.58039 7.28851 2.58039 5.93333 2.93334C4.33333 1.86667 3.6 2.06667 3.6 2.06667C3.29699 2.74109 3.27302 3.50798 3.53333 4.2C2.9783 4.77154 2.66748 5.53664 2.66667 6.33334C2.66667 9.4 4.46667 10.1333 6.33333 10.3333C5.93333 10.7333 5.93333 11.1333 6 11.6667V14" stroke="#1A42E8" stroke-linecap="round" stroke-linejoin="round"/>
</g>
<defs>
<clipPath id="clip0_343_18874">
<rect width="16" height="16" fill="white"/>
</clipPath>
</defs>
</svg>
