<svg width="16" height="16" viewBox="0 0 16 16" fill="none" xmlns="http://www.w3.org/2000/svg">
<g clip-path="url(#clip0_585_22583)">
<path d="M12.6675 5.80667L9.11217 3.04134C8.80016 2.79861 8.41614 2.66682 8.02083 2.66682C7.62553 2.66682 7.24151 2.79861 6.9295 3.04134L3.3735 5.80667C3.1598 5.97286 2.9869 6.18569 2.868 6.4289C2.74911 6.67212 2.68737 6.93929 2.6875 7.21V12.01C2.6875 12.3636 2.82798 12.7028 3.07802 12.9528C3.32807 13.2029 3.66721 13.3433 4.02083 13.3433H12.0208C12.3745 13.3433 12.7136 13.2029 12.9636 12.9528C13.2137 12.7028 13.3542 12.3636 13.3542 12.01V7.21C13.3542 6.66134 13.1008 6.14334 12.6675 5.80667Z" stroke="#1A42E8" stroke-linecap="round" stroke-linejoin="round"/>
<path d="M10.6673 10C9.19398 10.8887 6.80598 10.8887 5.33398 10" stroke="#1A42E8" stroke-linecap="round" stroke-linejoin="round"/>
</g>
<defs>
<clipPath id="clip0_585_22583">
<rect width="16" height="16" fill="white"/>
</clipPath>
</defs>
</svg>
