<svg width="16" height="16" viewBox="0 0 16 16" fill="none" xmlns="http://www.w3.org/2000/svg">
<g clip-path="url(#clip0_343_18886)">
<path d="M2.66602 4C2.66602 3.64638 2.80649 3.30724 3.05654 3.05719C3.30659 2.80714 3.64573 2.66666 3.99935 2.66666L11.9993 2.66666C12.353 2.66666 12.6921 2.80714 12.9422 3.05719C13.1922 3.30724 13.3327 3.64638 13.3327 4L13.3327 12C13.3327 12.3536 13.1922 12.6928 12.9422 12.9428C12.6921 13.1929 12.353 13.3333 11.9993 13.3333L3.99935 13.3333C3.64573 13.3333 3.30659 13.1929 3.05654 12.9428C2.80649 12.6928 2.66602 12.3536 2.66602 12L2.66602 4Z" stroke="#1A42E8" stroke-linecap="round" stroke-linejoin="round"/>
<path d="M8 2.66666L8 13.3333" stroke="#1A42E8" stroke-linecap="round" stroke-linejoin="round"/>
</g>
<defs>
<clipPath id="clip0_343_18886">
<rect width="16" height="16" fill="white"/>
</clipPath>
</defs>
</svg>
