<svg width="16" height="16" viewBox="0 0 16 16" fill="none" xmlns="http://www.w3.org/2000/svg">
<g clip-path="url(#clip0_343_18891)">
<path d="M2.66602 4C2.66602 3.64638 2.80649 3.30724 3.05654 3.05719C3.30659 2.80714 3.64573 2.66667 3.99935 2.66667L11.9993 2.66667C12.353 2.66667 12.6921 2.80714 12.9422 3.05719C13.1922 3.30724 13.3327 3.64638 13.3327 4V5.33333C13.3327 5.68695 13.1922 6.02609 12.9422 6.27614C12.6921 6.52619 12.353 6.66667 11.9993 6.66667L3.99935 6.66667C3.64573 6.66667 3.30659 6.52619 3.05654 6.27614C2.80649 6.02609 2.66602 5.68695 2.66602 5.33333L2.66602 4Z" stroke="#1A42E8" stroke-linecap="round" stroke-linejoin="round"/>
<path d="M2.66602 10.6667C2.66602 10.313 2.80649 9.97391 3.05654 9.72386C3.30659 9.47381 3.64573 9.33333 3.99935 9.33333L11.9993 9.33333C12.353 9.33333 12.6921 9.47381 12.9422 9.72386C13.1922 9.97391 13.3327 10.313 13.3327 10.6667V12C13.3327 12.3536 13.1922 12.6928 12.9422 12.9428C12.6921 13.1929 12.353 13.3333 11.9993 13.3333L3.99935 13.3333C3.64573 13.3333 3.30659 13.1929 3.05654 12.9428C2.80649 12.6928 2.66602 12.3536 2.66602 12L2.66602 10.6667Z" stroke="#1A42E8" stroke-linecap="round" stroke-linejoin="round"/>
</g>
<defs>
<clipPath id="clip0_343_18891">
<rect width="16" height="16" fill="white"/>
</clipPath>
</defs>
</svg>
