<svg width="16" height="16" viewBox="0 0 16 16" fill="none" xmlns="http://www.w3.org/2000/svg">
<g clip-path="url(#clip0_343_18895)">
<path d="M7.99924 2C9.55646 3.37772 11.5889 4.09504 13.6659 4C13.9683 5.02868 14.0608 6.10764 13.938 7.17279C13.8151 8.23793 13.4795 9.26751 12.9508 10.2004C12.4222 11.1332 11.7115 11.9503 10.8609 12.603C10.0103 13.2557 9.0371 13.7308 7.99924 14C6.96138 13.7308 5.98822 13.2557 5.1376 12.603C4.28698 11.9503 3.57624 11.1332 3.04764 10.2004C2.51903 9.26751 2.18333 8.23793 2.06049 7.17279C1.93765 6.10764 2.03018 5.02868 2.33257 4C4.40959 4.09504 6.44202 3.37772 7.99924 2Z" stroke="#1A42E8" stroke-linecap="round" stroke-linejoin="round"/>
<path d="M8 2L8 14" stroke="#1A42E8" stroke-linecap="round" stroke-linejoin="round"/>
</g>
<defs>
<clipPath id="clip0_343_18895">
<rect width="16" height="16" fill="white"/>
</clipPath>
</defs>
</svg>
