<svg width="18" height="18" viewBox="0 0 18 18" fill="none" xmlns="http://www.w3.org/2000/svg">
<path d="M3 5.99982V4.49982C3 4.10199 3.15804 3.72046 3.43934 3.43916C3.72064 3.15785 4.10218 2.99982 4.5 2.99982H6M3 11.9998V13.4998C3 13.8976 3.15804 14.2792 3.43934 14.5605C3.72064 14.8418 4.10218 14.9998 4.5 14.9998H6M12 2.99982H13.5C13.8978 2.99982 14.2794 3.15785 14.5607 3.43916C14.842 3.72046 15 4.10199 15 4.49982V5.99982M12 14.9998H13.5C13.8978 14.9998 14.2794 14.8418 14.5607 14.5605C14.842 14.2792 15 13.8976 15 13.4998V11.9998M12 11.9998L10.125 10.1248M6 8.24982C6 8.54529 6.0582 8.83787 6.17127 9.11085C6.28434 9.38384 6.45008 9.63188 6.65901 9.84081C6.86794 10.0497 7.11598 10.2155 7.38896 10.3285C7.66194 10.4416 7.95453 10.4998 8.25 10.4998C8.54547 10.4998 8.83806 10.4416 9.11104 10.3285C9.38402 10.2155 9.63206 10.0497 9.84099 9.84081C10.0499 9.63188 10.2157 9.38384 10.3287 9.11085C10.4418 8.83787 10.5 8.54529 10.5 8.24982C10.5 7.65308 10.2629 7.08078 9.84099 6.65883C9.41903 6.23687 8.84674 5.99982 8.25 5.99982C7.65326 5.99982 7.08097 6.23687 6.65901 6.65883C6.23705 7.08078 6 7.65308 6 8.24982Z" stroke="#1A42E8" stroke-width="1.125" stroke-linecap="round" stroke-linejoin="round"/>
</svg>
