<svg width="16" height="16" viewBox="0 0 16 16" fill="none" xmlns="http://www.w3.org/2000/svg">
<g clip-path="url(#clip0_642_23396)">
<path d="M2.66602 4.00001C2.66602 3.64638 2.80649 3.30724 3.05654 3.0572C3.30659 2.80715 3.64573 2.66667 3.99935 2.66667L11.9993 2.66667C12.353 2.66667 12.6921 2.80715 12.9422 3.0572C13.1922 3.30724 13.3327 3.64638 13.3327 4.00001L13.3327 12C13.3327 12.3536 13.1922 12.6928 12.9422 12.9428C12.6921 13.1929 12.353 13.3333 11.9993 13.3333L3.99935 13.3333C3.64573 13.3333 3.30659 13.1929 3.05654 12.9428C2.80649 12.6928 2.66602 12.3536 2.66602 12L2.66602 4.00001Z" stroke="#1A42E8" stroke-linecap="round" stroke-linejoin="round"/>
<path d="M8.84921 10.9143C8.81335 10.9501 8.81001 11.0072 8.84143 11.047C8.99925 11.2469 9.18166 11.4016 9.38898 11.5088C9.59968 11.6178 9.8496 11.67 10.1349 11.67C10.5104 11.67 10.8203 11.5795 11.0533 11.3874C11.2927 11.1927 11.4099 10.9227 11.4099 10.59C11.4099 10.3965 11.3767 10.2281 11.3041 10.0898C11.238 9.9544 11.1488 9.84226 11.0358 9.75564C10.9287 9.67354 10.8111 9.60592 10.6834 9.55269C10.5614 9.50187 10.4377 9.4561 10.3124 9.41539C10.1961 9.37336 10.0903 9.32838 9.99464 9.28056C9.90473 9.2356 9.83422 9.18331 9.78081 9.12482C9.73948 9.07335 9.71492 9.00291 9.71492 8.905C9.71492 8.7874 9.75689 8.7054 9.83874 8.64587L9.83875 8.64589L9.84031 8.64471C9.92771 8.57849 10.0525 8.54 10.2249 8.54C10.365 8.54 10.4839 8.56734 10.5842 8.61893L10.5842 8.61893L10.5852 8.61944C10.6914 8.67255 10.7929 8.75351 10.8891 8.86525C10.9073 8.88633 10.9334 8.8989 10.9612 8.89993C10.989 8.90097 11.016 8.89038 11.0356 8.87071L11.3556 8.55071C11.3915 8.51483 11.3948 8.45778 11.3634 8.41798C11.2399 8.26185 11.081 8.13781 10.889 8.04522C10.6936 7.94767 10.4749 7.9 10.2349 7.9C10.0158 7.9 9.81478 7.94067 9.63355 8.02396C9.45466 8.10436 9.31015 8.22247 9.20263 8.37818L9.20263 8.37818L9.20234 8.3786C9.09566 8.53482 9.04492 8.72208 9.04492 8.935C9.04492 9.12231 9.07664 9.28588 9.14599 9.42074L9.14597 9.42075L9.14704 9.42271C9.2169 9.55141 9.30807 9.65798 9.42079 9.74064L9.42077 9.74066L9.42258 9.74192C9.52885 9.81631 9.64524 9.87972 9.77146 9.93231L9.77145 9.93233L9.77368 9.9332C9.89443 9.98016 10.0152 10.0254 10.136 10.0691L10.1359 10.0691L10.1383 10.0699C10.2536 10.1083 10.3583 10.1528 10.4529 10.2032L10.4528 10.2033L10.4564 10.205C10.5475 10.2491 10.6158 10.3045 10.6649 10.37C10.7085 10.4281 10.7349 10.5101 10.7349 10.625C10.7349 10.7496 10.687 10.8424 10.587 10.9135L10.587 10.9135L10.586 10.9142C10.4849 10.988 10.3428 11.03 10.1499 11.03C9.95213 11.03 9.79296 10.9939 9.66788 10.9272C9.53949 10.8554 9.42368 10.7496 9.32118 10.6067C9.30406 10.5829 9.27733 10.5677 9.24807 10.5653C9.21881 10.5629 9.18997 10.5735 9.16921 10.5943L8.84921 10.9143Z" fill="#1A42E8" stroke="#1A42E8" stroke-width="0.2" stroke-linejoin="round"/>
<path d="M6.08 11.52C6.08 11.5752 6.12477 11.62 6.18 11.62H6.65C6.70523 11.62 6.75 11.5752 6.75 11.52V8.58H7.825C7.88023 8.58 7.925 8.53523 7.925 8.48V8.05C7.925 7.99477 7.88023 7.95 7.825 7.95H5C4.94477 7.95 4.9 7.99477 4.9 8.05V8.48C4.9 8.53523 4.94477 8.58 5 8.58H6.08V11.52Z" fill="#1A42E8" stroke="#1A42E8" stroke-width="0.2" stroke-linejoin="round"/>
</g>
<defs>
<clipPath id="clip0_642_23396">
<rect width="16" height="16" fill="white"/>
</clipPath>
</defs>
</svg>
