<svg width="16" height="16" viewBox="0 0 16 16" fill="none" xmlns="http://www.w3.org/2000/svg">
<g clip-path="url(#clip0_343_19010)">
<path d="M5.33398 6.66667C5.33398 6.31305 5.47446 5.97391 5.72451 5.72386C5.97456 5.47381 6.3137 5.33334 6.66732 5.33334L12.0007 5.33334C12.3543 5.33334 12.6934 5.47381 12.9435 5.72386C13.1935 5.97391 13.334 6.31305 13.334 6.66667V12C13.334 12.3536 13.1935 12.6928 12.9435 12.9428C12.6934 13.1929 12.3543 13.3333 12.0007 13.3333H6.66732C6.3137 13.3333 5.97456 13.1929 5.72451 12.9428C5.47446 12.6928 5.33398 12.3536 5.33398 12L5.33398 6.66667Z" stroke="#1A42E8" stroke-linecap="round" stroke-linejoin="round"/>
<path d="M10.666 5.33333V4C10.666 3.64638 10.5255 3.30724 10.2755 3.05719C10.0254 2.80714 9.6863 2.66666 9.33268 2.66666L3.99935 2.66666C3.64573 2.66666 3.30659 2.80714 3.05654 3.05719C2.80649 3.30724 2.66602 3.64638 2.66602 4L2.66602 9.33333C2.66602 9.68695 2.80649 10.0261 3.05654 10.2761C3.30659 10.5262 3.64573 10.6667 3.99935 10.6667H5.33268" stroke="#1A42E8" stroke-linecap="round" stroke-linejoin="round"/>
</g>
<defs>
<clipPath id="clip0_343_19010">
<rect width="16" height="16" fill="white"/>
</clipPath>
</defs>
</svg>
