<svg width="16" height="16" viewBox="0 0 16 16" fill="none" xmlns="http://www.w3.org/2000/svg">
<g clip-path="url(#clip0_343_18897)">
<path d="M3.33398 12C3.33398 12.3536 3.47446 12.6928 3.72451 12.9428C3.97456 13.1929 4.3137 13.3333 4.66732 13.3333C5.02094 13.3333 5.36008 13.1929 5.61013 12.9428C5.86018 12.6928 6.00065 12.3536 6.00065 12C6.00065 11.6464 5.86018 11.3072 5.61013 11.0572C5.36008 10.8071 5.02094 10.6667 4.66732 10.6667C4.3137 10.6667 3.97456 10.8071 3.72451 11.0572C3.47446 11.3072 3.33398 11.6464 3.33398 12Z" stroke="#1A42E8" stroke-linecap="round" stroke-linejoin="round"/>
<path d="M3.33398 4C3.33398 4.35362 3.47446 4.69276 3.72451 4.94281C3.97456 5.19286 4.3137 5.33333 4.66732 5.33333C5.02094 5.33333 5.36008 5.19286 5.61013 4.94281C5.86018 4.69276 6.00065 4.35362 6.00065 4C6.00065 3.64638 5.86018 3.30724 5.61013 3.05719C5.36008 2.80714 5.02094 2.66666 4.66732 2.66666C4.3137 2.66666 3.97456 2.80714 3.72451 3.05719C3.47446 3.30724 3.33398 3.64638 3.33398 4Z" stroke="#1A42E8" stroke-linecap="round" stroke-linejoin="round"/>
<path d="M10 4C10 4.35362 10.1405 4.69276 10.3905 4.94281C10.6406 5.19286 10.9797 5.33333 11.3333 5.33333C11.687 5.33333 12.0261 5.19286 12.2761 4.94281C12.5262 4.69276 12.6667 4.35362 12.6667 4C12.6667 3.64638 12.5262 3.30724 12.2761 3.05719C12.0261 2.80714 11.687 2.66666 11.3333 2.66666C10.9797 2.66666 10.6406 2.80714 10.3905 3.05719C10.1405 3.30724 10 3.64638 10 4Z" stroke="#1A42E8" stroke-linecap="round" stroke-linejoin="round"/>
<path d="M4.66602 5.33334L4.66602 10.6667" stroke="#1A42E8" stroke-linecap="round" stroke-linejoin="round"/>
<path d="M6 12H10C10.3536 12 10.6928 11.8595 10.9428 11.6095C11.1929 11.3594 11.3333 11.0203 11.3333 10.6667V7.33334" stroke="#1A42E8" stroke-linecap="round" stroke-linejoin="round"/>
<path d="M9.33398 9.33334L11.334 7.33334L13.334 9.33334" stroke="#1A42E8" stroke-linecap="round" stroke-linejoin="round"/>
</g>
<defs>
<clipPath id="clip0_343_18897">
<rect width="16" height="16" fill="white"/>
</clipPath>
</defs>
</svg>
