<svg width="16" height="16" viewBox="0 0 16 16" fill="none" xmlns="http://www.w3.org/2000/svg">
<g clip-path="url(#clip0_392_19020)">
<path d="M8.00051 2C8.08851 2 8.17584 2 8.26251 2C7.40607 2.79581 6.85557 3.86656 6.7067 5.02615C6.55783 6.18573 6.82001 7.36082 7.44766 8.34715C8.07531 9.33349 9.02875 10.0687 10.1422 10.425C11.2557 10.7813 12.4589 10.7361 13.5425 10.2973C13.1257 11.3003 12.4444 12.1714 11.5713 12.8175C10.6982 13.4637 9.66614 13.8607 8.58511 13.9663C7.50409 14.0718 6.41468 13.882 5.4331 13.4169C4.45152 12.9519 3.61458 12.2291 3.01156 11.3257C2.40855 10.4223 2.06207 9.37219 2.0091 8.28731C1.95612 7.20244 2.19863 6.12353 2.71075 5.16568C3.22288 4.20782 3.98541 3.40695 4.91701 2.84849C5.84862 2.29003 6.91434 1.99493 8.00051 1.99467V2Z" stroke="#1A42E8" stroke-linecap="round" stroke-linejoin="round"/>
</g>
<defs>
<clipPath id="clip0_392_19020">
<rect width="16" height="16" fill="white"/>
</clipPath>
</defs>
</svg>
