<svg width="16" height="16" viewBox="0 0 16 16" fill="none" xmlns="http://www.w3.org/2000/svg">
<g clip-path="url(#clip0_343_18872)">
<path d="M6.66602 3.33333C6.66602 2.97971 6.80649 2.64057 7.05654 2.39052C7.30659 2.14048 7.64573 2 7.99935 2C8.35297 2 8.69211 2.14048 8.94216 2.39052C9.19221 2.64057 9.33268 2.97971 9.33268 3.33333C10.0983 3.69535 10.7509 4.25888 11.2207 4.96353C11.6905 5.66818 11.9596 6.48738 11.9993 7.33333V9.33333C12.0495 9.7478 12.1963 10.1447 12.4279 10.4921C12.6595 10.8395 12.9694 11.1276 13.3327 11.3333H2.66602C3.02931 11.1276 3.33922 10.8395 3.57081 10.4921C3.80239 10.1447 3.94918 9.7478 3.99935 9.33333V7.33333C4.03906 6.48738 4.30822 5.66818 4.77798 4.96353C5.24775 4.25888 5.90041 3.69535 6.66602 3.33333Z" stroke="#1A42E8" stroke-linecap="round" stroke-linejoin="round"/>
<path d="M6 11.3333V12C6 12.5304 6.21071 13.0391 6.58579 13.4142C6.96086 13.7893 7.46957 14 8 14C8.53043 14 9.03914 13.7893 9.41421 13.4142C9.78929 13.0391 10 12.5304 10 12V11.3333" stroke="#1A42E8" stroke-linecap="round" stroke-linejoin="round"/>
</g>
<defs>
<clipPath id="clip0_343_18872">
<rect width="16" height="16" fill="white"/>
</clipPath>
</defs>
</svg>
