<svg width="16" height="16" viewBox="0 0 16 16" fill="none" xmlns="http://www.w3.org/2000/svg">
<g clip-path="url(#clip0_343_18957)">
<path d="M4.23865 6C2.48065 6.45333 1.33398 7.23 1.33398 8.11667C1.33398 9.52133 4.27065 10.6667 7.90065 10.6667C8.39398 10.6667 8.74065 10.6407 9.20065 10.602" stroke="#1A42E8" stroke-linecap="round" stroke-linejoin="round"/>
<path d="M6.55742 10.6C6.28209 10.2027 6.02009 9.84467 5.77076 9.4C3.93676 6.13334 3.44542 2.88667 4.68409 2.15134C5.45076 1.68667 6.71542 2.32 8.00009 3.654" stroke="#1A42E8" stroke-linecap="round" stroke-linejoin="round"/>
<path d="M4.28582 10.258C3.81782 12.05 3.91249 13.402 4.65915 13.8547C5.84782 14.5747 8.25049 12.5493 10.0212 9.31867C10.2612 8.872 10.4765 8.43267 10.6665 8" stroke="#1A42E8" stroke-linecap="round" stroke-linejoin="round"/>
<path d="M8 12.3467C9.28533 13.68 10.5447 14.3133 11.3187 13.8487C12.552 13.114 12.066 9.86733 10.23 6.6C9.974 6.14867 9.712 5.79733 9.44333 5.4" stroke="#1A42E8" stroke-linecap="round" stroke-linejoin="round"/>
<path d="M11.7741 10C13.5154 9.542 14.6674 8.76667 14.6674 7.88267C14.6674 6.476 11.7288 5.33334 8.10411 5.33334C7.60611 5.33334 7.26011 5.35267 6.80078 5.39134" stroke="#1A42E8" stroke-linecap="round" stroke-linejoin="round"/>
<path d="M5.33398 8C5.52398 7.56 5.73865 7.128 5.97932 6.68133C7.74398 3.452 10.148 1.42133 11.3433 2.14733C12.0833 2.6 12.1847 3.95133 11.7167 5.74267" stroke="#1A42E8" stroke-linecap="round" stroke-linejoin="round"/>
<path d="M8.17284 8.01H8.16617C8.15951 8.09667 8.08617 8.17 7.99284 8.17C7.9482 8.1678 7.90609 8.14862 7.87511 8.11641C7.84413 8.08419 7.82663 8.04136 7.82617 7.99667C7.82617 7.90334 7.89951 7.83 7.98617 7.83H7.97951C8.06617 7.82334 8.14617 7.90334 8.14617 7.99" stroke="#1A42E8" stroke-linecap="round" stroke-linejoin="round"/>
</g>
<defs>
<clipPath id="clip0_343_18957">
<rect width="16" height="16" fill="white"/>
</clipPath>
</defs>
</svg>
