<svg width="16" height="16" viewBox="0 0 16 16" fill="none" xmlns="http://www.w3.org/2000/svg">
<g clip-path="url(#clip0_2626_30411)">
<path d="M2.66602 9.66667L5.33268 7" stroke="#1A42E8" stroke-linecap="round" stroke-linejoin="round"/>
<path d="M6.33008 13.3333L8.99941 10.6667" stroke="#1A42E8" stroke-linecap="round" stroke-linejoin="round"/>
<path d="M3.05664 12.9427L5.66597 10.3333" stroke="#1A42E8" stroke-linecap="round" stroke-linejoin="round"/>
<path d="M5.33398 4C5.33398 3.64638 5.47446 3.30724 5.72451 3.05719C5.97456 2.80714 6.3137 2.66667 6.66732 2.66667H12.0007C12.3543 2.66667 12.6934 2.80714 12.9435 3.05719C13.1935 3.30724 13.334 3.64638 13.334 4V9.33333C13.334 9.68695 13.1935 10.0261 12.9435 10.2761C12.6934 10.5262 12.3543 10.6667 12.0007 10.6667H6.66732C6.3137 10.6667 5.97456 10.5262 5.72451 10.2761C5.47446 10.0261 5.33398 9.68695 5.33398 9.33333V4Z" stroke="#1A42E8" stroke-linecap="round" stroke-linejoin="round"/>
<path d="M10.666 10.6667V12C10.666 12.3536 10.5255 12.6928 10.2755 12.9428C10.0254 13.1929 9.6863 13.3333 9.33268 13.3333H3.99935C3.64573 13.3333 3.30659 13.1929 3.05654 12.9428C2.80649 12.6928 2.66602 12.3536 2.66602 12V6.66667C2.66602 6.31305 2.80649 5.97391 3.05654 5.72386C3.30659 5.47381 3.64573 5.33333 3.99935 5.33333H5.33268" stroke="#1A42E8" stroke-linecap="round" stroke-linejoin="round"/>
</g>
<defs>
<clipPath id="clip0_2626_30411">
<rect width="16" height="16" fill="white"/>
</clipPath>
</defs>
</svg>
