<svg width="16" height="16" viewBox="0 0 16 16" fill="none" xmlns="http://www.w3.org/2000/svg">
<g clip-path="url(#clip0_360_18703)">
<path d="M2.66602 4.44466C2.66602 3.97311 2.85334 3.52087 3.18678 3.18743C3.52022 2.85399 3.97246 2.66666 4.44402 2.66666L11.5547 2.66666C11.7882 2.66666 12.0194 2.71265 12.2351 2.80201C12.4508 2.89136 12.6468 3.02233 12.8119 3.18743C12.977 3.35253 13.108 3.54854 13.1973 3.76425C13.2867 3.97997 13.3327 4.21117 13.3327 4.44466L13.3327 11.5553C13.3327 11.7888 13.2867 12.02 13.1973 12.2357C13.108 12.4515 12.977 12.6475 12.8119 12.8126C12.6468 12.9777 12.4508 13.1086 12.2351 13.198C12.0194 13.2873 11.7882 13.3333 11.5547 13.3333L4.44402 13.3333C4.21053 13.3333 3.97932 13.2873 3.7636 13.198C3.54789 13.1086 3.35188 12.9777 3.18678 12.8126C3.02168 12.6475 2.89071 12.4515 2.80136 12.2357C2.71201 12.02 2.66602 11.7888 2.66602 11.5553L2.66602 4.44466Z" stroke="#1A42E8" stroke-linecap="round" stroke-linejoin="round"/>
<path d="M6 10.3333V10.5C6 10.96 6.37333 11.3333 6.83333 11.3333C7.30667 11.3333 7.70267 10.9747 7.74933 10.504L8.25067 5.496C8.27332 5.26878 8.3796 5.05809 8.54887 4.90484C8.71814 4.75158 8.93832 4.6667 9.16667 4.66666C9.62667 4.66666 10 5.04 10 5.5V5.66666" stroke="#1A42E8" stroke-linecap="round" stroke-linejoin="round"/>
<path d="M6 8H10" stroke="#1A42E8" stroke-linecap="round" stroke-linejoin="round"/>
</g>
<defs>
<clipPath id="clip0_360_18703">
<rect width="16" height="16" fill="white"/>
</clipPath>
</defs>
</svg>
