<svg width="18" height="18" viewBox="0 0 18 18" fill="none" xmlns="http://www.w3.org/2000/svg">
<g clip-path="url(#clip0_736_23661)">
<path d="M3.04898 9.78075C3.19061 10.8607 3.62354 11.8818 4.30136 12.7344C4.97917 13.587 5.87629 14.239 6.89651 14.6205C7.91673 15.002 9.02155 15.0986 10.0925 14.8999C11.1634 14.7013 12.1601 14.2148 12.9756 13.4927C13.7911 12.7707 14.3946 11.8402 14.7215 10.8012C15.0484 9.76223 15.0862 8.65384 14.8311 7.59494C14.5759 6.53604 14.0373 5.56658 13.273 4.79052C12.5087 4.01446 11.5476 3.46109 10.4927 3.18975C7.56848 2.43975 4.54148 3.945 3.42398 6.75" stroke="#1A42E8" stroke-width="1.125" stroke-linecap="round" stroke-linejoin="round"/>
<path d="M3 3L3 6.75H6.75" stroke="#1A42E8" stroke-width="1.125" stroke-linecap="round" stroke-linejoin="round"/>
</g>
<defs>
<clipPath id="clip0_736_23661">
<rect width="18" height="18" fill="white" transform="matrix(-1 0 0 1 18 0)"/>
</clipPath>
</defs>
</svg>
