<svg xmlns="http://www.w3.org/2000/svg" xmlns:xlink="http://www.w3.org/1999/xlink" width="123" height="129" viewBox="0 0 123 129"><defs><style>.a{fill:#5780db;}.b{fill:#fff;}.c{fill:#453209;}.d{fill:#a0710e;}.e{filter:url(#a);}</style><filter id="a" x="0" y="0" width="123" height="129" filterUnits="userSpaceOnUse"><feOffset dy="6" input="SourceAlpha"/><feGaussianBlur stdDeviation="6" result="b"/><feFlood flood-color="#104aca" flood-opacity="0.161"/><feComposite operator="in" in2="b"/><feComposite in="SourceGraphic"/></filter></defs><g transform="translate(-839 -3916)"><g class="e" transform="matrix(1, 0, 0, 1, 839, 3916)"><path class="a" d="M2612.4,3549.323c.156.4.386.765.54,1.167a7.177,7.177,0,0,1-6.115,9.749,22.013,22.013,0,0,1-11.533-2.479,24.541,24.541,0,0,1-12.63-14.651,22.2,22.2,0,0,1-1.126-8.038,7.244,7.244,0,0,1,6.246-6.632,7.452,7.452,0,0,1,3.275.312c-.006-.258-.195-.335-.311-.449a10.18,10.18,0,0,1-1.522-12.571,1.323,1.323,0,0,0-.007-1.733,11.256,11.256,0,0,1-1.852-7.371,11.566,11.566,0,0,1,4.59-8.222,10.11,10.11,0,0,1,3.6-1.827.534.534,0,0,0,.407-.411,11.38,11.38,0,0,1,9.309-8.161,9.866,9.866,0,0,1,4.447.148.716.716,0,0,0,.839-.283,11.562,11.562,0,0,1,4.1-3.14,11.362,11.362,0,0,1,10.82.783c.349.208.463.165.677-.154a.851.851,0,0,0,.008-1.1,7.191,7.191,0,0,1,4.512-10.943,12.294,12.294,0,0,1,4.149-.046,23.988,23.988,0,0,1,11.429,4.284,24.417,24.417,0,0,1,10.124,15.337c.1.45.2.609.711.62a11.488,11.488,0,0,1,10.879,8.061,11.943,11.943,0,0,1,.539,3.8q0,16.456,0,32.912a27.458,27.458,0,0,1-4.78,15.744,27.148,27.148,0,0,1-13.255,10.376,26.711,26.711,0,0,1-11.147,1.656,27.221,27.221,0,0,1-13.394-4.326,26.005,26.005,0,0,1-3.464-2.768c-3.293-3.052-6.453-6.242-9.663-9.382a2.466,2.466,0,0,1-.27-.392Z" transform="translate(-2563.52 -3461.12)"/></g><path class="b" d="M2666.605,3540.245c.006-4.7-.025-9.4.032-14.1a5.818,5.818,0,0,1,5.423-5.406,5.921,5.921,0,0,1,6.131,6.11c-.063,6.679-.015,13.359-.018,20.039,0,4.563.035,9.128-.031,13.691a21.791,21.791,0,0,1-17.053,20.6,21.214,21.214,0,0,1-18.189-4.21c-1.761-1.395-3.274-3.085-4.893-4.647q-13.482-13.012-26.957-26.032a6.429,6.429,0,0,1-1.765-2.207,4.349,4.349,0,0,1,6.107-5.405c.039.021.083.034.125.052a.912.912,0,0,1,.457.19,11.252,11.252,0,0,1,1.187,1.047q6.254,6.267,12.514,12.528a1.4,1.4,0,0,0,1.831.338,1.285,1.285,0,0,0,.38-1.889,18.165,18.165,0,0,0-2.142-2.2c-.186-.175-.387-.335-.569-.517q-9.987-10-19.971-20c-.163-.163-.4-.287-.389-.574a5.805,5.805,0,0,1,4.927-4.292,6.057,6.057,0,0,1,4.235,1.218l.061.01a3.8,3.8,0,0,1,.364.229c.187.154.351.332.522.5l18.765,18.781a4.973,4.973,0,0,0,.459.437,1.322,1.322,0,0,0,1.84-.147,1.291,1.291,0,0,0-.042-1.8c-.113-.122-.233-.236-.351-.354q-8.966-8.975-17.924-17.957c-1.116-1.124-2.209-2.272-3.32-3.4-.34-.345-.75-.611-1.07-.975-.127-.144-.3-.268-.227-.5a5.7,5.7,0,0,1,9.174-2.947,39.814,39.814,0,0,1,3.142,3.063,3.316,3.316,0,0,0,.655.609c.129-.048.191.05.263.123,5.244,5.327,10.559,10.584,15.834,15.88a1.333,1.333,0,0,0,2.2-.132,1.377,1.377,0,0,0-.078-1.493,4.7,4.7,0,0,0-.436-.46q-8.245-8.253-16.488-16.508c-.607-.608-1.15-1.28-1.779-1.867a1.245,1.245,0,0,1-.224-.338,5.713,5.713,0,0,1,9.468-2.78c2.384,2.224,4.636,4.588,6.943,6.9q9.354,9.356,18.7,18.715c.043.042.082.089.122.134.108.225-.075.338-.193.457-1.386,1.39-2.807,2.744-4.24,4.084-.044.041-.091.079-.133.123-.938.963-1.918,1.883-2.895,2.806a15.7,15.7,0,0,0-3.791,16.659,16.883,16.883,0,0,0,2.025,4.038,8.3,8.3,0,0,0,1.758,1.938,1.207,1.207,0,0,0,1.646-.038,1.158,1.158,0,0,0,.179-1.661,36.567,36.567,0,0,1-2.154-3.136,12.836,12.836,0,0,1-1.763-5.651,13.033,13.033,0,0,1,2.8-8.954,24.407,24.407,0,0,1,2.8-2.893c1.246-1.145,2.378-2.409,3.613-3.564C2665,3541.75,2665.751,3540.94,2666.605,3540.245Z" transform="translate(-1740.001 433.509)"/><path class="a" d="M2723.572,3576.026a11.882,11.882,0,0,1-1.627,1.681c-.451.423-.895.854-1.338,1.286-1.481,1.445-2.946,2.906-4.437,4.339a12.981,12.981,0,0,0-3.957,7.354,11.964,11.964,0,0,0,.818,7.064,21.4,21.4,0,0,0,2.641,4.253,1.921,1.921,0,0,1,.589,1.189,1.378,1.378,0,0,1-.812,1.262,1.254,1.254,0,0,1-1.475-.164,10.911,10.911,0,0,1-2.6-3.272,17.609,17.609,0,0,1-2.08-6.131,15.371,15.371,0,0,1,.508-6.528,14.848,14.848,0,0,1,2.652-5.257,19.213,19.213,0,0,1,2.392-2.465c.069-.059.137-.119.2-.183,1.406-1.369,2.8-2.754,4.225-4.1q.987-.933,1.956-1.885c.115-.114.271-.2.284-.393.558.557,1.114,1.114,1.675,1.667C2723.3,3575.854,2723.388,3576.008,2723.572,3576.026Z" transform="translate(-1796.963 397.694)"/><path class="a" d="M2627.5,3530.422a1.993,1.993,0,0,0,.7.81,47.346,47.346,0,0,1,3.359,3.353c.133.144.272.283.411.422l18.39,18.394a1.4,1.4,0,0,1,.318,1.9,1.455,1.455,0,0,1-2.128.357,3.687,3.687,0,0,1-.3-.281l-19.324-19.318c-.053-.053-.1-.114-.148-.17a1.673,1.673,0,0,0-.363-.294l0,0a2.928,2.928,0,0,0-.431-.782A5.265,5.265,0,0,1,2627.5,3530.422Z" transform="translate(-1750.465 422.419)"/><path class="a" d="M2608.51,3549.493c.4.411.8.827,1.2,1.234q9.7,9.7,19.4,19.382c.844.841,1.759,1.612,2.517,2.534a1.392,1.392,0,0,1-.1,1.949,1.459,1.459,0,0,1-2.075-.048q-4.109-4.1-8.209-8.2-2.229-2.226-4.454-4.456c-.384-.386-.795-.739-1.213-1.085-.062-.128-.193-.2-.246-.338-1.7-1.7-3.378-3.406-5.093-5.084a6.2,6.2,0,0,1-1.941-4.111A4.383,4.383,0,0,1,2608.51,3549.493Z" transform="translate(-1739.698 411.615)"/><path class="b" d="M2594.976,3616.129c0-.287-.02-.575,0-.86a1.434,1.434,0,0,1,2.816-.158c.1.73.1,1.475.176,2.208a15.665,15.665,0,0,0,3.857,8.665,15.505,15.505,0,0,0,8.336,5.042,15.28,15.28,0,0,0,3.5.412,1.474,1.474,0,0,1,1.6,1.478,1.544,1.544,0,0,1-1.659,1.434,18.93,18.93,0,0,1-18.313-15.251A16.075,16.075,0,0,1,2594.976,3616.129Z" transform="translate(-1732.147 375.073)"/><path class="b" d="M2715.821,3504.628a5.687,5.687,0,0,1,0,1.084,1.435,1.435,0,0,1-1.516,1.2,1.4,1.4,0,0,1-1.337-1.341,17.82,17.82,0,0,0-.633-4.514A16.007,16.007,0,0,0,2697,3489.515a1.46,1.46,0,0,1-.472-2.843,1.856,1.856,0,0,1,.67-.067,18.97,18.97,0,0,1,17.229,11.74A18.194,18.194,0,0,1,2715.821,3504.628Z" transform="translate(-1789.245 447.233)"/><path class="a" d="M2655.97,3521.013c.675.606,1.266,1.295,1.9,1.935q8.435,8.462,16.887,16.906a1.449,1.449,0,0,1-1.82,2.254c-.093-.078-.175-.167-.26-.253q-7.777-7.773-15.552-15.548c-.158-.158-.3-.332-.448-.5a11.624,11.624,0,0,1-.771-2.037A5.881,5.881,0,0,1,2655.97,3521.013Z" transform="translate(-1766.67 427.748)"/><path class="b" d="M2615.018,3615.9a1.764,1.764,0,0,1,.248-1.319,1.535,1.535,0,0,1,1.536-.545,1.333,1.333,0,0,1,1.066,1.253,7.839,7.839,0,0,0,1.013,3.8,7.163,7.163,0,0,0,6.013,3.619,2.435,2.435,0,0,1,.759.1,1.4,1.4,0,0,1,.938,1.61,1.416,1.416,0,0,1-1.43,1.2,10.052,10.052,0,0,1-8.519-4.68A9.515,9.515,0,0,1,2615.018,3615.9Z" transform="translate(-1743.518 375.057)"/><path class="b" d="M2697.461,3506.682a10.139,10.139,0,0,1,8.913,6.377,9.124,9.124,0,0,1,.742,3.517,1.492,1.492,0,0,1-1.286,1.716,1.51,1.51,0,0,1-1.609-1.576,7.155,7.155,0,0,0-1.125-3.764,7.055,7.055,0,0,0-5.7-3.35c-.2-.013-.394-.007-.587-.037a1.453,1.453,0,0,1-1.248-1.572,1.425,1.425,0,0,1,1.447-1.332C2697.159,3506.66,2697.31,3506.675,2697.461,3506.682Z" transform="translate(-1789.248 435.875)"/><path class="c" d="M2624.422,3574.845c.125.082.269.149.246.338l-.354-.233Z" transform="translate(-1748.808 397.232)"/><path class="d" d="M2630,3542.382c.2,0,.293.132.362.294A.551.551,0,0,1,2630,3542.382Z" transform="translate(-1752.033 415.63)"/></g></svg>